<?xml version="1.0" encoding="UTF-8"?>
<!DOCTYPE svg PUBLIC "-//W3C//DTD SVG 1.1//EN" "http://www.w3.org/Graphics/SVG/1.1/DTD/svg11.dtd">
<svg xmlns="http://www.w3.org/2000/svg" version="1.1" width="351px" height="495px" style="shape-rendering:geometricPrecision; text-rendering:geometricPrecision; image-rendering:optimizeQuality; fill-rule:evenodd; clip-rule:evenodd" xmlns:xlink="http://www.w3.org/1999/xlink">
<g><path style="opacity:1" fill="#030303" d="M 216.5,53.5 C 243.973,54.1559 271.639,54.4893 299.5,54.5C 308.652,55.4936 317.985,55.8269 327.5,55.5C 328.167,55.5 328.5,55.8333 328.5,56.5C 358.976,94.7038 352.976,125.204 310.5,148C 306.24,149.308 302.074,150.808 298,152.5C 297.333,153.167 297.333,153.833 298,154.5C 300.188,157.567 302.355,160.567 304.5,163.5C 305.41,166.992 307.076,169.992 309.5,172.5C 363.941,274.111 357.274,371.278 289.5,464C 204.754,504.976 122.754,500.31 43.5,450C 41.0235,446.855 38.6902,443.688 36.5,440.5C 35.3263,439.486 34.6596,438.153 34.5,436.5C 34.3404,434.847 33.6737,433.514 32.5,432.5C 29.7363,425.316 26.7363,418.316 23.5,411.5C 21.3582,408.2 20.0249,404.533 19.5,400.5C 19.2525,397.146 18.2525,394.146 16.5,391.5C 16.5905,388.848 15.9238,386.515 14.5,384.5C 14.5,384.167 14.5,383.833 14.5,383.5C 14.2785,380.933 13.6118,378.599 12.5,376.5C 10.8819,373.829 10.2153,370.829 10.5,367.5C 10.6558,363.236 9.98914,359.236 8.5,355.5C 4.14905,327.366 4.81572,299.366 10.5,271.5C 12.0395,269.162 12.7062,266.495 12.5,263.5C 13.7682,261.095 14.4349,258.428 14.5,255.5C 15.9238,253.485 16.5905,251.152 16.5,248.5C 16.5,248.167 16.5,247.833 16.5,247.5C 18.0719,244.785 19.0719,241.785 19.5,238.5C 21.2132,237.365 21.8799,235.698 21.5,233.5C 21.5,233.167 21.5,232.833 21.5,232.5C 22.6737,231.486 23.3404,230.153 23.5,228.5C 23.5,228.167 23.5,227.833 23.5,227.5C 24.7384,225.786 25.405,223.786 25.5,221.5C 27.6246,218.912 28.9579,215.912 29.5,212.5C 29.9348,209.843 30.9348,207.509 32.5,205.5C 33.9063,205.027 34.573,204.027 34.5,202.5C 34.5,202.167 34.5,201.833 34.5,201.5C 36.1765,200.817 36.8432,199.483 36.5,197.5C 37.6737,196.486 38.3404,195.153 38.5,193.5C 39.3257,190.515 40.659,187.849 42.5,185.5C 44.2503,184.341 45.2503,182.674 45.5,180.5C 45.3284,179.508 45.6618,178.842 46.5,178.5C 48.2503,177.341 49.2503,175.674 49.5,173.5C 50.9063,173.027 51.573,172.027 51.5,170.5C 51.3284,169.508 51.6618,168.842 52.5,168.5C 53.9063,168.027 54.573,167.027 54.5,165.5C 57.7747,163.627 58.7747,160.96 57.5,157.5C 47.2846,154.208 37.2846,150.542 27.5,146.5C 23.4109,139.985 19.0776,133.651 14.5,127.5C 14.3404,125.847 13.6737,124.514 12.5,123.5C 11.0687,122.22 10.4021,120.553 10.5,118.5C 10.678,114.878 10.0114,111.544 8.5,108.5C 7.35564,102.45 7.68897,96.4502 9.5,90.5C 11.2503,89.3406 12.2503,87.674 12.5,85.5C 12.5,85.1667 12.5,84.8333 12.5,84.5C 14.2503,83.3406 15.2503,81.674 15.5,79.5C 17.543,78.4206 18.8763,76.754 19.5,74.5C 21.5,73.8333 22.8333,72.5 23.5,70.5C 29.0869,67.21 34.0869,63.21 38.5,58.5C 39.7804,57.0687 41.4471,56.4021 43.5,56.5C 74.6275,55.8479 105.628,55.1813 136.5,54.5C 137.906,54.0269 138.573,53.0269 138.5,51.5C 138.328,50.5084 138.662,49.8417 139.5,49.5C 140.674,48.4863 141.34,47.153 141.5,45.5C 142.674,44.4863 143.34,43.153 143.5,41.5C 145.213,40.3646 145.88,38.698 145.5,36.5C 146.906,36.0269 147.573,35.0269 147.5,33.5C 149.104,32.713 149.771,31.3797 149.5,29.5C 151.262,28.7377 152.262,27.4044 152.5,25.5C 153.906,25.0269 154.573,24.0269 154.5,22.5C 155.906,22.0269 156.573,21.0269 156.5,19.5C 160.805,14.8594 165.139,10.1927 169.5,5.5C 180.345,-0.0769832 189.512,1.92302 197,11.5C 205.054,23.8182 210.888,37.1515 214.5,51.5C 214.747,52.7133 215.414,53.38 216.5,53.5 Z M 187.5,28.5 C 187.81,30.1436 188.81,31.1436 190.5,31.5C 190.5,32.1667 190.833,32.5 191.5,32.5C 191.427,34.0269 192.094,35.0269 193.5,35.5C 193.427,37.0269 194.094,38.0269 195.5,38.5C 196.326,41.4848 197.659,44.1515 199.5,46.5C 199.989,47.9952 200.655,49.3285 201.5,50.5C 201.5,51.5 201.5,52.5 201.5,53.5C 185.153,53.8328 168.82,53.4994 152.5,52.5C 157.007,43.6602 163.007,35.9936 170.5,29.5C 176.137,26.6238 181.803,26.2905 187.5,28.5 Z M 97.5,69.5 C 95.8958,70.287 95.2291,71.6203 95.5,73.5C 93.9261,75.1016 93.2594,77.1016 93.5,79.5C 91.9028,81.8478 90.9028,84.5145 90.5,87.5C 88.9261,89.1016 88.2594,91.1016 88.5,93.5C 86.9605,95.8383 86.2938,98.5049 86.5,101.5C 84.9605,103.838 84.2938,106.505 84.5,109.5C 83.087,112.219 82.4203,115.219 82.5,118.5C 82.5,119.167 82.5,119.833 82.5,120.5C 80.9177,123.876 80.2511,127.542 80.5,131.5C 79.1958,135.36 78.5291,139.36 78.5,143.5C 63.8238,144.614 49.1571,144.614 34.5,143.5C 25.7562,113.823 30.4228,86.49 48.5,61.5C 65.4526,60.5143 82.4526,60.181 99.5,60.5C 98.5392,63.4261 97.8726,66.4261 97.5,69.5 Z M 223.5,62.5 C 223.903,65.4855 224.903,68.1522 226.5,70.5C 226.259,72.8984 226.926,74.8984 228.5,76.5C 228.259,78.8984 228.926,80.8984 230.5,82.5C 230.259,84.8984 230.926,86.8984 232.5,88.5C 232.595,90.7857 233.262,92.7857 234.5,94.5C 234.41,97.1522 235.076,99.4855 236.5,101.5C 236.263,102.791 236.596,103.791 237.5,104.5C 237.171,107.228 237.837,109.562 239.5,111.5C 239.41,114.152 240.076,116.485 241.5,118.5C 241.5,118.833 241.5,119.167 241.5,119.5C 241.068,122.877 241.735,125.877 243.5,128.5C 243.5,128.833 243.5,129.167 243.5,129.5C 243.251,133.458 243.918,137.124 245.5,140.5C 245.567,141.959 245.234,143.292 244.5,144.5C 200.589,143.478 156.589,143.478 112.5,144.5C 111.081,143.549 109.415,143.216 107.5,143.5C 109.122,115.332 114.122,87.8321 122.5,61C 155.5,60.3333 188.5,60.3333 221.5,61C 222.044,61.7172 222.711,62.2172 223.5,62.5 Z M 315.5,61.5 C 318.788,66.7861 322.454,71.7861 326.5,76.5C 326.229,78.3797 326.896,79.713 328.5,80.5C 328.402,82.5529 329.069,84.2196 330.5,85.5C 330.565,88.4282 331.232,91.0948 332.5,93.5C 332.5,96.5 332.5,99.5 332.5,102.5C 331.087,105.219 330.42,108.219 330.5,111.5C 329.069,112.78 328.402,114.447 328.5,116.5C 327.069,117.78 326.402,119.447 326.5,121.5C 324.331,123.34 322.998,125.674 322.5,128.5C 318.464,132.534 314.798,136.868 311.5,141.5C 306.206,143.185 300.706,144.185 295,144.5C 289.871,143.631 284.704,143.298 279.5,143.5C 274.691,113.917 264.358,86.5832 248.5,61.5C 270.869,60.1883 293.202,60.1883 315.5,61.5 Z M 293.5,159.5 C 293.595,161.786 294.262,163.786 295.5,165.5C 296.315,170.794 297.981,175.794 300.5,180.5C 300.259,182.898 300.926,184.898 302.5,186.5C 302.259,188.898 302.926,190.898 304.5,192.5C 304.294,195.495 304.96,198.162 306.5,200.5C 306.5,200.833 306.5,201.167 306.5,201.5C 306.565,204.428 307.232,207.095 308.5,209.5C 310.169,216.857 311.836,224.19 313.5,231.5C 313.539,235.733 314.205,239.733 315.5,243.5C 315.5,243.833 315.5,244.167 315.5,244.5C 315.302,249.75 315.969,254.75 317.5,259.5C 317.5,260.167 317.5,260.833 317.5,261.5C 317.788,271.677 318.455,281.677 319.5,291.5C 319.5,296.5 319.5,301.5 319.5,306.5C 318.859,308.042 317.859,309.376 316.5,310.5C 300.978,305.228 285.312,300.395 269.5,296C 260.947,293.528 252.28,291.694 243.5,290.5C 239.985,289.081 236.319,288.414 232.5,288.5C 229.727,287.343 226.727,286.676 223.5,286.5C 220.57,285.701 217.57,285.368 214.5,285.5C 200.573,282.838 186.573,282.172 172.5,283.5C 165.604,283.294 158.937,283.961 152.5,285.5C 146.858,285.496 141.525,286.496 136.5,288.5C 132.681,288.414 129.015,289.081 125.5,290.5C 102.934,295.466 81.2678,302.799 60.5,312.5C 56.503,313.603 52.8363,315.269 49.5,317.5C 46.6027,318.129 43.936,319.129 41.5,320.5C 36.8359,321.333 32.5026,323 28.5,325.5C 27.7611,268.128 40.0945,213.795 65.5,162.5C 66.086,162.291 66.586,161.957 67,161.5C 70.3333,162.833 73.6667,164.167 77,165.5C 77.1701,175.009 77.6701,184.342 78.5,193.5C 78.8078,203.653 80.1411,213.653 82.5,223.5C 82.322,227.122 82.9886,230.456 84.5,233.5C 84.2153,236.829 84.8819,239.829 86.5,242.5C 86.5,242.833 86.5,243.167 86.5,243.5C 86.6633,245.857 86.4966,248.19 86,250.5C 83.952,251.098 82.7853,252.431 82.5,254.5C 83.3851,259.122 83.7184,263.789 83.5,268.5C 82.761,272.015 82.761,275.348 83.5,278.5C 83.484,280.484 84.484,281.484 86.5,281.5C 96.4113,280.639 106.411,280.306 116.5,280.5C 117.666,270.517 117.832,260.517 117,250.5C 114.291,249.803 111.624,249.47 109,249.5C 106.859,229.549 105.359,209.549 104.5,189.5C 104.62,183.435 104.953,177.602 105.5,172C 115.105,172.86 124.772,173.526 134.5,174C 157.833,174.667 181.167,174.667 204.5,174C 219.583,172.749 234.583,170.916 249.5,168.5C 249.19,171.713 249.523,174.713 250.5,177.5C 251.83,201.563 251.164,225.563 248.5,249.5C 245.07,249.107 241.904,249.773 239,251.5C 238.175,261.342 238.342,271.009 239.5,280.5C 240.607,282.931 242.607,283.931 245.5,283.5C 254.425,282.621 263.425,282.621 272.5,283.5C 273.5,283 274.5,282.5 275.5,282C 276.653,271.243 276.82,260.41 276,249.5C 274.644,248.62 273.144,248.286 271.5,248.5C 279.784,219.661 282.951,190.328 281,160.5C 284.094,159.038 287.261,157.704 290.5,156.5C 291.735,157.34 292.735,158.34 293.5,159.5 Z"/></g>
<g><path style="opacity:0.6" fill="#cacaca" d="M 169.5,5.5 C 165.139,10.1927 160.805,14.8594 156.5,19.5C 159.448,13.5517 163.781,8.88504 169.5,5.5 Z"/></g>
<g><path style="opacity:0.241" fill="#f2f2f2" d="M 216.5,53.5 C 215.414,53.38 214.747,52.7133 214.5,51.5C 210.888,37.1515 205.054,23.8182 197,11.5C 189.512,1.92302 180.345,-0.0769832 169.5,5.5C 175.499,0.0488761 182.166,-0.784457 189.5,3C 192.312,4.9773 194.978,7.14396 197.5,9.5C 206.155,23.1228 212.489,37.7895 216.5,53.5 Z"/></g>
<g><path style="opacity:0.655" fill="#9b9b9b" d="M 156.5,19.5 C 156.573,21.0269 155.906,22.0269 154.5,22.5C 154.427,20.9731 155.094,19.9731 156.5,19.5 Z"/></g>
<g><path style="opacity:0.518" fill="#b0b0b0" d="M 154.5,22.5 C 154.573,24.0269 153.906,25.0269 152.5,25.5C 152.427,23.9731 153.094,22.9731 154.5,22.5 Z"/></g>
<g><path style="opacity:0.576" fill="#bbbbbb" d="M 152.5,25.5 C 152.262,27.4044 151.262,28.7377 149.5,29.5C 149.738,27.5956 150.738,26.2623 152.5,25.5 Z"/></g>
<g><path style="opacity:0.495" fill="#fdfdfd" d="M 187.5,28.5 C 189.19,28.8564 190.19,29.8564 190.5,31.5C 188.81,31.1436 187.81,30.1436 187.5,28.5 Z"/></g>
<g><path style="opacity:0.227" fill="#dfdfdf" d="M 149.5,29.5 C 149.771,31.3797 149.104,32.713 147.5,33.5C 147.66,31.847 148.326,30.5137 149.5,29.5 Z"/></g>
<g><path style="opacity:0.304" fill="#f7f7f7" d="M 191.5,32.5 C 192.906,32.9731 193.573,33.9731 193.5,35.5C 192.094,35.0269 191.427,34.0269 191.5,32.5 Z"/></g>
<g><path style="opacity:0.333" fill="#dddddd" d="M 147.5,33.5 C 147.573,35.0269 146.906,36.0269 145.5,36.5C 145.427,34.9731 146.094,33.9731 147.5,33.5 Z"/></g>
<g><path style="opacity:0.165" fill="#efefef" d="M 193.5,35.5 C 194.906,35.9731 195.573,36.9731 195.5,38.5C 194.094,38.0269 193.427,37.0269 193.5,35.5 Z"/></g>
<g><path style="opacity:0.933" fill="#8b8b8b" d="M 145.5,36.5 C 145.88,38.698 145.213,40.3646 143.5,41.5C 143.402,39.4471 144.069,37.7804 145.5,36.5 Z"/></g>
<g><path style="opacity:0.517" fill="#f3f3f3" d="M 187.5,28.5 C 181.803,26.2905 176.137,26.6238 170.5,29.5C 163.007,35.9936 157.007,43.6602 152.5,52.5C 168.82,53.4994 185.153,53.8328 201.5,53.5C 201.5,52.5 201.5,51.5 201.5,50.5C 202.434,51.5676 202.768,52.901 202.5,54.5C 185.497,54.6666 168.497,54.4999 151.5,54C 150.692,53.6924 150.025,53.1924 149.5,52.5C 154.677,42.9879 161.344,34.6546 169.5,27.5C 174.565,24.2003 179.899,23.7003 185.5,26C 186.381,26.7083 187.047,27.5416 187.5,28.5 Z"/></g>
<g><path style="opacity:0.096" fill="#e1e1e1" d="M 195.5,38.5 C 197.873,40.5792 199.206,43.2459 199.5,46.5C 197.659,44.1515 196.326,41.4848 195.5,38.5 Z"/></g>
<g><path style="opacity:0.227" fill="#d2d2d2" d="M 143.5,41.5 C 143.34,43.153 142.674,44.4863 141.5,45.5C 141.229,43.6203 141.896,42.287 143.5,41.5 Z"/></g>
<g><path style="opacity:0.318" fill="#c4c4c4" d="M 141.5,45.5 C 141.34,47.153 140.674,48.4863 139.5,49.5C 139.229,47.6203 139.896,46.287 141.5,45.5 Z"/></g>
<g><path style="opacity:0.301" fill="#e8e8e8" d="M 138.5,51.5 C 138.573,53.0269 137.906,54.0269 136.5,54.5C 106.5,54.5 76.5,54.5 46.5,54.5C 76.3305,53.6676 106.331,53.1676 136.5,53C 137.044,52.2828 137.711,51.7828 138.5,51.5 Z"/></g>
<g><path style="opacity:0.941" fill="#212121" d="M 46.5,54.5 C 76.5,54.5 106.5,54.5 136.5,54.5C 105.628,55.1813 74.6275,55.8479 43.5,56.5C 43.9731,55.0937 44.9731,54.427 46.5,54.5 Z"/></g>
<g><path style="opacity:0.909" fill="#7a7a7a" d="M 327.5,55.5 C 317.985,55.8269 308.652,55.4936 299.5,54.5C 308.505,54.0467 317.505,53.88 326.5,54C 327.056,54.3826 327.389,54.8826 327.5,55.5 Z"/></g>
<g><path style="opacity:0.576" fill="#f6f6f6" d="M 97.5,69.5 C 97.8726,66.4261 98.5392,63.4261 99.5,60.5C 82.4526,60.181 65.4526,60.5143 48.5,61.5C 30.4228,86.49 25.7562,113.823 34.5,143.5C 33.2502,143.423 32.4169,142.756 32,141.5C 24.012,111.373 29.1786,83.8733 47.5,59C 65.5,58.3333 83.5,58.3333 101.5,59C 100.973,62.5978 99.6396,66.0978 97.5,69.5 Z"/></g>
<g><path style="opacity:0.474" fill="#f5f5f5" d="M 223.5,62.5 C 222.711,62.2172 222.044,61.7172 221.5,61C 188.5,60.3333 155.5,60.3333 122.5,61C 114.122,87.8321 109.122,115.332 107.5,143.5C 109.415,143.216 111.081,143.549 112.5,144.5C 107.082,145.906 104.748,143.906 105.5,138.5C 108.026,111.677 113.026,85.3436 120.5,59.5C 153.646,58.8707 186.646,58.5374 219.5,58.5C 222.175,58.5307 223.509,59.8641 223.5,62.5 Z"/></g>
<g><path style="opacity:0.692" fill="#f5f5f5" d="M 315.5,61.5 C 293.202,60.1883 270.869,60.1883 248.5,61.5C 264.358,86.5832 274.691,113.917 279.5,143.5C 274.28,120.024 266.113,97.3572 255,75.5C 251.625,69.9154 248.125,64.4154 244.5,59C 267.833,58.3333 291.167,58.3333 314.5,59C 315.252,59.6708 315.586,60.5041 315.5,61.5 Z"/></g>
<g><path style="opacity:0.357" fill="#dedede" d="M 38.5,58.5 C 34.0869,63.21 29.0869,67.21 23.5,70.5C 26.2854,66.8844 29.6187,63.7177 33.5,61C 35.0779,59.9055 36.7446,59.0722 38.5,58.5 Z"/></g>
<g><path style="opacity:0.249" fill="#f6f6f6" d="M 315.5,61.5 C 320.318,65.6522 323.985,70.6522 326.5,76.5C 322.454,71.7861 318.788,66.7861 315.5,61.5 Z"/></g>
<g><path style="opacity:0.576" fill="#d5d5d5" d="M 97.5,69.5 C 97.3404,71.153 96.6737,72.4863 95.5,73.5C 95.2291,71.6203 95.8958,70.287 97.5,69.5 Z"/></g>
<g><path style="opacity:0.361" fill="#d8d8d8" d="M 23.5,70.5 C 22.8333,72.5 21.5,73.8333 19.5,74.5C 20.1667,72.5 21.5,71.1667 23.5,70.5 Z"/></g>
<g><path style="opacity:0.084" fill="#e8e8e8" d="M 226.5,70.5 C 227.738,72.2143 228.405,74.2143 228.5,76.5C 226.926,74.8984 226.259,72.8984 226.5,70.5 Z"/></g>
<g><path style="opacity:0.055" fill="#e7e7e7" d="M 95.5,73.5 C 95.405,75.7857 94.7384,77.7857 93.5,79.5C 93.2594,77.1016 93.9261,75.1016 95.5,73.5 Z"/></g>
<g><path style="opacity:0.214" fill="#fdfdfd" d="M 326.5,76.5 C 327.674,77.5137 328.34,78.847 328.5,80.5C 326.896,79.713 326.229,78.3797 326.5,76.5 Z"/></g>
<g><path style="opacity:0.608" fill="#c7c7c7" d="M 19.5,74.5 C 18.8763,76.754 17.543,78.4206 15.5,79.5C 16.1355,77.2054 17.4689,75.5387 19.5,74.5 Z"/></g>
<g><path style="opacity:0.38" fill="#cecece" d="M 15.5,79.5 C 15.2503,81.674 14.2503,83.3406 12.5,84.5C 12.7497,82.326 13.7497,80.6594 15.5,79.5 Z"/></g>
<g><path style="opacity:0.097" fill="#dfdfdf" d="M 230.5,82.5 C 232.074,84.1016 232.741,86.1016 232.5,88.5C 230.926,86.8984 230.259,84.8984 230.5,82.5 Z"/></g>
<g><path style="opacity:0.373" fill="#e8e8e8" d="M 328.5,80.5 C 329.931,81.7804 330.598,83.4471 330.5,85.5C 329.069,84.2196 328.402,82.5529 328.5,80.5 Z"/></g>
<g><path style="opacity:0.251" fill="#d3d3d3" d="M 12.5,85.5 C 12.2503,87.674 11.2503,89.3406 9.5,90.5C 9.74973,88.326 10.7497,86.6594 12.5,85.5 Z"/></g>
<g><path style="opacity:0.043" fill="#eeeeee" d="M 90.5,87.5 C 90.405,89.7857 89.7384,91.7857 88.5,93.5C 88.2594,91.1016 88.9261,89.1016 90.5,87.5 Z"/></g>
<g><path style="opacity:0.337" fill="#d9d9d9" d="M 330.5,85.5 C 332.223,87.78 332.889,90.4467 332.5,93.5C 331.232,91.0948 330.565,88.4282 330.5,85.5 Z"/></g>
<g><path style="opacity:0.51" fill="#d0d0d0" d="M 232.5,88.5 C 234.074,90.1016 234.741,92.1016 234.5,94.5C 233.262,92.7857 232.595,90.7857 232.5,88.5 Z"/></g>
<g><path style="opacity:0.056" fill="#e6e6e6" d="M 234.5,94.5 C 235.924,96.5145 236.59,98.8478 236.5,101.5C 235.076,99.4855 234.41,97.1522 234.5,94.5 Z"/></g>
<g><path style="opacity:0.62" fill="#c4c4c4" d="M 88.5,93.5 C 88.7062,96.4951 88.0395,99.1617 86.5,101.5C 86.2938,98.5049 86.9605,95.8383 88.5,93.5 Z"/></g>
<g><path style="opacity:0.784" fill="#b6b6b6" d="M 86.5,101.5 C 86.7062,104.495 86.0395,107.162 84.5,109.5C 84.2938,106.505 84.9605,103.838 86.5,101.5 Z"/></g>
<g><path style="opacity:0.119" fill="#e8e8e8" d="M 237.5,104.5 C 238.612,106.599 239.279,108.933 239.5,111.5C 237.837,109.562 237.171,107.228 237.5,104.5 Z"/></g>
<g><path style="opacity:0.616" fill="#d2d2d2" d="M 332.5,102.5 C 332.58,105.781 331.913,108.781 330.5,111.5C 330.42,108.219 331.087,105.219 332.5,102.5 Z"/></g>
<g><path style="opacity:0.843" fill="#a0a0a0" d="M 8.5,108.5 C 10.0114,111.544 10.678,114.878 10.5,118.5C 8.82547,115.493 8.1588,112.16 8.5,108.5 Z"/></g>
<g><path style="opacity:0.061" fill="#eaeaea" d="M 330.5,111.5 C 330.598,113.553 329.931,115.22 328.5,116.5C 328.402,114.447 329.069,112.78 330.5,111.5 Z"/></g>
<g><path style="opacity:0.769" fill="#adadad" d="M 239.5,111.5 C 240.924,113.515 241.59,115.848 241.5,118.5C 240.076,116.485 239.41,114.152 239.5,111.5 Z"/></g>
<g><path style="opacity:0.502" fill="#f6f6f6" d="M 328.5,56.5 C 345.25,71.9983 351.75,90.9983 348,113.5C 344.767,123.446 338.933,131.612 330.5,138C 321.374,144.229 311.707,149.396 301.5,153.5C 301.167,154 300.833,154.5 300.5,155C 302.26,157.685 303.594,160.518 304.5,163.5C 302.355,160.567 300.188,157.567 298,154.5C 297.333,153.833 297.333,153.167 298,152.5C 302.074,150.808 306.24,149.308 310.5,148C 352.976,125.204 358.976,94.7038 328.5,56.5 Z"/></g>
<g><path style="opacity:0.341" fill="#cfcfcf" d="M 84.5,109.5 C 84.5797,112.781 83.913,115.781 82.5,118.5C 82.4203,115.219 83.087,112.219 84.5,109.5 Z"/></g>
<g><path style="opacity:0.847" fill="#acacac" d="M 328.5,116.5 C 328.88,118.698 328.213,120.365 326.5,121.5C 326.402,119.447 327.069,117.78 328.5,116.5 Z"/></g>
<g><path style="opacity:0.239" fill="#d9d9d9" d="M 241.5,119.5 C 242.657,122.273 243.324,125.273 243.5,128.5C 241.735,125.877 241.068,122.877 241.5,119.5 Z"/></g>
<g><path style="opacity:0.259" fill="#dddddd" d="M 326.5,121.5 C 325.921,124.331 324.588,126.664 322.5,128.5C 322.998,125.674 324.331,123.34 326.5,121.5 Z"/></g>
<g><path style="opacity:0.177" fill="#fdfdfd" d="M 12.5,123.5 C 13.6737,124.514 14.3404,125.847 14.5,127.5C 12.8958,126.713 12.2291,125.38 12.5,123.5 Z"/></g>
<g><path style="opacity:0.357" fill="#bfbfbf" d="M 82.5,120.5 C 82.3541,124.387 81.6874,128.054 80.5,131.5C 80.2511,127.542 80.9177,123.876 82.5,120.5 Z"/></g>
<g><path style="opacity:0.297" fill="#fafafa" d="M 14.5,127.5 C 19.0776,133.651 23.4109,139.985 27.5,146.5C 24.1983,143.026 21.0316,139.359 18,135.5C 16.0073,133.182 14.8406,130.516 14.5,127.5 Z"/></g>
<g><path style="opacity:0.608" fill="#c9c9c9" d="M 243.5,129.5 C 245.217,132.845 245.884,136.511 245.5,140.5C 243.918,137.124 243.251,133.458 243.5,129.5 Z"/></g>
<g><path style="opacity:0.808" fill="#a2a2a2" d="M 322.5,128.5 C 319.954,133.719 316.287,138.052 311.5,141.5C 314.798,136.868 318.464,132.534 322.5,128.5 Z"/></g>
<g><path style="opacity:0.859" fill="#a3a3a3" d="M 245.5,140.5 C 246.124,140.917 246.457,141.584 246.5,142.5C 246.253,143.713 245.586,144.38 244.5,144.5C 245.234,143.292 245.567,141.959 245.5,140.5 Z"/></g>
<g><path style="opacity:0.502" fill="#f0f0f0" d="M 27.5,146.5 C 37.2846,150.542 47.2846,154.208 57.5,157.5C 58.7747,160.96 57.7747,163.627 54.5,165.5C 55.2423,163.574 56.2423,161.741 57.5,160C 47.7222,156.739 38.0555,153.072 28.5,149C 27.7476,148.329 27.4142,147.496 27.5,146.5 Z"/></g>
<g><path style="opacity:0.514" fill="#cfcfcf" d="M 293.5,159.5 C 295.074,161.102 295.741,163.102 295.5,165.5C 294.262,163.786 293.595,161.786 293.5,159.5 Z"/></g>
<g><path style="opacity:0.455" fill="#f5f5f5" d="M 304.5,163.5 C 306.943,166.052 308.61,169.052 309.5,172.5C 307.076,169.992 305.41,166.992 304.5,163.5 Z"/></g>
<g><path style="opacity:0.431" fill="#c4c4c4" d="M 54.5,165.5 C 54.573,167.027 53.9063,168.027 52.5,168.5C 52.427,166.973 53.0937,165.973 54.5,165.5 Z"/></g>
<g><path style="opacity:0.373" fill="#c9c9c9" d="M 51.5,170.5 C 51.573,172.027 50.9063,173.027 49.5,173.5C 49.427,171.973 50.0937,170.973 51.5,170.5 Z"/></g>
<g><path style="opacity:0.231" fill="#dbdbdb" d="M 49.5,173.5 C 49.2503,175.674 48.2503,177.341 46.5,178.5C 46.7497,176.326 47.7497,174.659 49.5,173.5 Z"/></g>
<g><path style="opacity:0.306" fill="#d7d7d7" d="M 45.5,180.5 C 45.2503,182.674 44.2503,184.341 42.5,185.5C 42.7497,183.326 43.7497,181.659 45.5,180.5 Z"/></g>
<g><path style="opacity:0.104" fill="#eaeaea" d="M 300.5,180.5 C 301.738,182.214 302.405,184.214 302.5,186.5C 300.926,184.898 300.259,182.898 300.5,180.5 Z"/></g>
<g><path style="opacity:0.538" fill="#f5f5f5" d="M 78.5,193.5 C 77.6701,184.342 77.1701,175.009 77,165.5C 73.6667,164.167 70.3333,162.833 67,161.5C 66.586,161.957 66.086,162.291 65.5,162.5C 40.0945,213.795 27.7611,268.128 28.5,325.5C 32.5026,323 36.8359,321.333 41.5,320.5C 36.9252,322.787 32.2585,325.121 27.5,327.5C 24.831,268.644 37.1644,212.811 64.5,160C 67.7492,160.596 71.0826,161.263 74.5,162C 75.9308,162.465 77.0975,163.299 78,164.5C 78.4998,174.161 78.6665,183.828 78.5,193.5 Z"/></g>
<g><path style="opacity:0.077" fill="#e0e0e0" d="M 302.5,186.5 C 304.074,188.102 304.741,190.102 304.5,192.5C 302.926,190.898 302.259,188.898 302.5,186.5 Z"/></g>
<g><path style="opacity:0.506" fill="#dfdfdf" d="M 38.5,193.5 C 38.3404,195.153 37.6737,196.486 36.5,197.5C 36.2291,195.62 36.8958,194.287 38.5,193.5 Z"/></g>
<g><path style="opacity:0.521" fill="#f6f6f6" d="M 293.5,159.5 C 292.735,158.34 291.735,157.34 290.5,156.5C 287.261,157.704 284.094,159.038 281,160.5C 282.951,190.328 279.784,219.661 271.5,248.5C 270.624,248.631 269.957,248.298 269.5,247.5C 278.03,218.066 281.363,188.066 279.5,157.5C 283.069,156.811 286.569,155.811 290,154.5C 292.54,155.207 293.707,156.873 293.5,159.5 Z"/></g>
<g><path style="opacity:0.061" fill="#dedede" d="M 304.5,192.5 C 306.04,194.838 306.706,197.505 306.5,200.5C 304.96,198.162 304.294,195.495 304.5,192.5 Z"/></g>
<g><path style="opacity:0.984" fill="#7a7a7a" d="M 36.5,197.5 C 36.8432,199.483 36.1765,200.817 34.5,201.5C 34.6596,199.847 35.3263,198.514 36.5,197.5 Z"/></g>
<g><path style="opacity:0.384" fill="#bebebe" d="M 34.5,202.5 C 34.573,204.027 33.9063,205.027 32.5,205.5C 32.427,203.973 33.0937,202.973 34.5,202.5 Z"/></g>
<g><path style="opacity:0.139" fill="#e8e8e8" d="M 306.5,201.5 C 308.223,203.78 308.889,206.447 308.5,209.5C 307.232,207.095 306.565,204.428 306.5,201.5 Z"/></g>
<g><path style="opacity:0.216" fill="#e3e3e3" d="M 29.5,212.5 C 28.9579,215.912 27.6246,218.912 25.5,221.5C 26.0421,218.088 27.3754,215.088 29.5,212.5 Z"/></g>
<g><path style="opacity:0.053" fill="#ebebeb" d="M 25.5,221.5 C 25.405,223.786 24.7384,225.786 23.5,227.5C 23.2594,225.102 23.9261,223.102 25.5,221.5 Z"/></g>
<g><path style="opacity:0.278" fill="#cfcfcf" d="M 82.5,223.5 C 83.7846,226.589 84.4512,229.922 84.5,233.5C 82.9886,230.456 82.322,227.122 82.5,223.5 Z"/></g>
<g><path style="opacity:0.251" fill="#d1d1d1" d="M 23.5,228.5 C 23.3404,230.153 22.6737,231.486 21.5,232.5C 21.2291,230.62 21.8958,229.287 23.5,228.5 Z"/></g>
<g><path style="opacity:0.929" fill="#828282" d="M 21.5,233.5 C 21.8799,235.698 21.2132,237.365 19.5,238.5C 19.4021,236.447 20.0687,234.78 21.5,233.5 Z"/></g>
<g><path style="opacity:0.537" fill="#bebebe" d="M 313.5,231.5 C 315.136,235.21 315.802,239.21 315.5,243.5C 314.205,239.733 313.539,235.733 313.5,231.5 Z"/></g>
<g><path style="opacity:0.549" fill="#bebebe" d="M 84.5,233.5 C 86.1181,236.171 86.7847,239.171 86.5,242.5C 84.8819,239.829 84.2153,236.829 84.5,233.5 Z"/></g>
<g><path style="opacity:0.029" fill="#f2f2f2" d="M 19.5,238.5 C 19.0719,241.785 18.0719,244.785 16.5,247.5C 16.5275,244.084 17.5275,241.084 19.5,238.5 Z"/></g>
<g><path style="opacity:0.341" fill="#f1f1f1" d="M 271.5,248.5 C 273.144,248.286 274.644,248.62 276,249.5C 276.82,260.41 276.653,271.243 275.5,282C 274.5,282.5 273.5,283 272.5,283.5C 263.425,282.621 254.425,282.621 245.5,283.5C 242.607,283.931 240.607,282.931 239.5,280.5C 250.838,280.667 262.172,280.5 273.5,280C 274.179,270.53 274.846,261.03 275.5,251.5C 274.376,250.141 273.042,249.141 271.5,248.5 Z"/></g>
<g><path style="opacity:0.408" fill="#f5f5f5" d="M 250.5,177.5 C 249.523,174.713 249.19,171.713 249.5,168.5C 234.583,170.916 219.583,172.749 204.5,174C 181.167,174.667 157.833,174.667 134.5,174C 124.772,173.526 115.105,172.86 105.5,172C 104.953,177.602 104.62,183.435 104.5,189.5C 105.359,209.549 106.859,229.549 109,249.5C 111.624,249.47 114.291,249.803 117,250.5C 117.832,260.517 117.666,270.517 116.5,280.5C 106.411,280.306 96.4113,280.639 86.5,281.5C 84.484,281.484 83.484,280.484 83.5,278.5C 83.8333,278.5 84.1667,278.5 84.5,278.5C 94.5094,278.525 104.676,278.525 115,278.5C 115.181,269.589 115.681,260.755 116.5,252C 115.892,251.13 115.059,250.63 114,250.5C 111.945,251.692 109.945,251.692 108,250.5C 104.024,223.323 102.524,195.989 103.5,168.5C 151.518,175.938 199.351,174.938 247,165.5C 248.261,165.759 249.261,166.426 250,167.5C 250.498,170.817 250.665,174.15 250.5,177.5 Z"/></g>
<g><path style="opacity:0.659" fill="#cbcbcb" d="M 16.5,248.5 C 16.5905,251.152 15.9238,253.485 14.5,255.5C 14.4095,252.848 15.0762,250.515 16.5,248.5 Z"/></g>
<g><path style="opacity:0.604" fill="#c7c7c7" d="M 86.5,243.5 C 87.6341,245.966 87.8007,248.633 87,251.5C 86.586,251.957 86.086,252.291 85.5,252.5C 84.5052,257.792 84.1718,263.125 84.5,268.5C 84.1667,268.5 83.8333,268.5 83.5,268.5C 83.7184,263.789 83.3851,259.122 82.5,254.5C 82.7853,252.431 83.952,251.098 86,250.5C 86.4966,248.19 86.6633,245.857 86.5,243.5 Z"/></g>
<g><path style="opacity:0.714" fill="#c3c3c3" d="M 14.5,255.5 C 14.4349,258.428 13.7682,261.095 12.5,263.5C 12.2938,260.505 12.9605,257.838 14.5,255.5 Z"/></g>
<g><path style="opacity:0.071" fill="#d8d8d8" d="M 315.5,244.5 C 317.031,249.25 317.698,254.25 317.5,259.5C 315.969,254.75 315.302,249.75 315.5,244.5 Z"/></g>
<g><path style="opacity:0.824" fill="#b0b0b0" d="M 12.5,263.5 C 12.7062,266.495 12.0395,269.162 10.5,271.5C 10.2938,268.505 10.9605,265.838 12.5,263.5 Z"/></g>
<g><path style="opacity:0.114" fill="#eaeaea" d="M 248.5,249.5 C 245.638,250.132 242.804,251.132 240,252.5C 239.5,261.827 239.334,271.161 239.5,280.5C 238.342,271.009 238.175,261.342 239,251.5C 241.904,249.773 245.07,249.107 248.5,249.5 Z"/></g>
<g><path style="opacity:0.796" fill="#8d8d8d" d="M 83.5,268.5 C 83.8333,268.5 84.1667,268.5 84.5,268.5C 84.5,271.833 84.5,275.167 84.5,278.5C 84.1667,278.5 83.8333,278.5 83.5,278.5C 82.761,275.348 82.761,272.015 83.5,268.5 Z"/></g>
<g><path style="opacity:0.54" fill="#c9c9c9" d="M 317.5,261.5 C 319.207,271.279 319.873,281.279 319.5,291.5C 318.455,281.677 317.788,271.677 317.5,261.5 Z"/></g>
<g><path style="opacity:0.767" fill="#8a8a8a" d="M 172.5,283.5 C 173.833,283.5 175.167,283.5 176.5,283.5C 170.359,284.636 164.026,285.303 157.5,285.5C 155.833,285.5 154.167,285.5 152.5,285.5C 158.937,283.961 165.604,283.294 172.5,283.5 Z"/></g>
<g><path style="opacity:0.773" fill="#a1a1a1" d="M 172.5,283.5 C 186.573,282.172 200.573,282.838 214.5,285.5C 201.825,284.987 189.158,284.32 176.5,283.5C 175.167,283.5 173.833,283.5 172.5,283.5 Z"/></g>
<g><path style="opacity:0.984" fill="#515151" d="M 152.5,285.5 C 154.167,285.5 155.833,285.5 157.5,285.5C 150.736,287.235 143.736,288.235 136.5,288.5C 141.525,286.496 146.858,285.496 152.5,285.5 Z"/></g>
<g><path style="opacity:0.904" fill="#7f7f7f" d="M 223.5,286.5 C 226.727,286.676 229.727,287.343 232.5,288.5C 229.813,288.664 227.146,288.497 224.5,288C 223.944,287.617 223.611,287.117 223.5,286.5 Z"/></g>
<g><path style="opacity:0.089" fill="#e1e1e1" d="M 243.5,290.5 C 252.28,291.694 260.947,293.528 269.5,296C 285.312,300.395 300.978,305.228 316.5,310.5C 317.859,309.376 318.859,308.042 319.5,306.5C 319.917,311.068 317.917,312.568 313.5,311C 290.208,303.62 266.875,296.787 243.5,290.5 Z"/></g>
<g><path style="opacity:0.071" fill="#d9d9d9" d="M 125.5,290.5 C 104.311,297.009 83.3114,304.342 62.5,312.5C 61.8333,312.5 61.1667,312.5 60.5,312.5C 81.2678,302.799 102.934,295.466 125.5,290.5 Z"/></g>
<g><path style="opacity:0.973" fill="#5a5a5a" d="M 60.5,312.5 C 61.1667,312.5 61.8333,312.5 62.5,312.5C 58.5407,314.973 54.2074,316.64 49.5,317.5C 52.8363,315.269 56.503,313.603 60.5,312.5 Z"/></g>
<g><path style="opacity:0.447" fill="#bebebe" d="M 8.5,355.5 C 9.98914,359.236 10.6558,363.236 10.5,367.5C 9.01086,363.764 8.3442,359.764 8.5,355.5 Z"/></g>
<g><path style="opacity:0.11" fill="#e1e1e1" d="M 12.5,376.5 C 13.6118,378.599 14.2785,380.933 14.5,383.5C 12.8372,381.562 12.1706,379.228 12.5,376.5 Z"/></g>
<g><path style="opacity:0.046" fill="#e6e6e6" d="M 14.5,384.5 C 15.9238,386.515 16.5905,388.848 16.5,391.5C 14.8372,389.562 14.1706,387.228 14.5,384.5 Z"/></g>
<g><path style="opacity:0.059" fill="#dbdbdb" d="M 16.5,391.5 C 18.2525,394.146 19.2525,397.146 19.5,400.5C 17.7475,397.854 16.7475,394.854 16.5,391.5 Z"/></g>
<g><path style="opacity:0.198" fill="#efefef" d="M 23.5,411.5 C 26.7363,418.316 29.7363,425.316 32.5,432.5C 28.1645,426.153 25.1645,419.153 23.5,411.5 Z"/></g>
<g><path style="opacity:0.22" fill="#fdfdfd" d="M 32.5,432.5 C 33.6737,433.514 34.3404,434.847 34.5,436.5C 32.8958,435.713 32.2291,434.38 32.5,432.5 Z"/></g>
<g><path style="opacity:0.406" fill="#f6f6f6" d="M 309.5,172.5 C 355.094,250.172 359.927,330.505 324,413.5C 315.129,429.388 305.795,445.054 296,460.5C 294.5,462.667 292.667,464.5 290.5,466C 258.337,482.262 224.337,491.762 188.5,494.5C 181.5,494.5 174.5,494.5 167.5,494.5C 121.645,490.714 79.4787,476.047 41,450.5C 39.1909,447.222 37.6909,443.889 36.5,440.5C 38.6902,443.688 41.0235,446.855 43.5,450C 122.754,500.31 204.754,504.976 289.5,464C 357.274,371.278 363.941,274.111 309.5,172.5 Z"/></g>
</svg>
