<?xml version="1.0" encoding="UTF-8"?>
<!DOCTYPE svg PUBLIC "-//W3C//DTD SVG 1.1//EN" "http://www.w3.org/Graphics/SVG/1.1/DTD/svg11.dtd">
<svg xmlns="http://www.w3.org/2000/svg" version="1.1" width="341px" height="502px" style="shape-rendering:geometricPrecision; text-rendering:geometricPrecision; image-rendering:optimizeQuality; fill-rule:evenodd; clip-rule:evenodd" xmlns:xlink="http://www.w3.org/1999/xlink">
<g><path style="opacity:1" fill="#040404" d="M 202.5,33.5 C 203.911,35.914 205.911,37.5806 208.5,38.5C 210.167,40.8333 212.167,42.8333 214.5,44.5C 214.833,45.5 215.5,46.1667 216.5,46.5C 233.949,67.0682 244.616,90.7349 248.5,117.5C 250.664,163.558 234.164,201.225 199,230.5C 198.365,232.635 198.699,234.635 200,236.5C 202.942,241.406 206.109,246.072 209.5,250.5C 209.595,253.272 210.929,255.272 213.5,256.5C 216.077,255.057 218.41,253.39 220.5,251.5C 222.404,251.262 223.738,250.262 224.5,248.5C 226.117,247.028 228.117,246.361 230.5,246.5C 232.045,246.511 233.378,246.844 234.5,247.5C 243.436,263.041 252.103,278.707 260.5,294.5C 260.66,296.153 261.326,297.486 262.5,298.5C 270.391,315.285 279.058,331.618 288.5,347.5C 305.327,381.156 322.66,414.489 340.5,447.5C 340.5,451.833 340.5,456.167 340.5,460.5C 332.068,470.104 323.401,479.604 314.5,489C 304.072,490.719 293.739,492.886 283.5,495.5C 280.525,494.861 277.525,494.361 274.5,494C 257.52,461.865 240.186,430.031 222.5,398.5C 207.701,369.571 192.368,340.904 176.5,312.5C 175.662,312.158 175.328,311.492 175.5,310.5C 175.34,308.847 174.674,307.514 173.5,306.5C 173.34,304.847 172.674,303.514 171.5,302.5C 171.25,300.326 170.25,298.659 168.5,297.5C 167.059,294.105 165.726,290.605 164.5,287C 164.643,284.849 165.643,283.182 167.5,282C 170.585,280.04 173.752,278.207 177,276.5C 177.443,273.386 176.276,271.052 173.5,269.5C 173.573,267.973 172.906,266.973 171.5,266.5C 171.573,264.973 170.906,263.973 169.5,263.5C 169.573,261.973 168.906,260.973 167.5,260.5C 166.026,259.564 165.026,258.23 164.5,256.5C 164.573,254.973 163.906,253.973 162.5,253.5C 162.441,251.278 161.275,250.278 159,250.5C 154.467,251.931 149.967,253.597 145.5,255.5C 94.52,260.342 53.1866,242.675 21.5,202.5C 14.8177,191.779 9.48439,180.446 5.5,168.5C 5.27852,165.933 4.61185,163.599 3.5,161.5C 3.5,161.167 3.5,160.833 3.5,160.5C 3.43487,157.572 2.7682,154.905 1.5,152.5C 0.951844,150.374 0.285178,148.374 -0.5,146.5C -0.5,136.167 -0.5,125.833 -0.5,115.5C 0.285178,113.626 0.951844,111.626 1.5,109.5C 3.03954,107.162 3.70621,104.495 3.5,101.5C 3.28262,98.5794 3.94929,95.9128 5.5,93.5C 7.07394,91.8984 7.74061,89.8984 7.5,87.5C 9.21321,86.3646 9.87988,84.698 9.5,82.5C 12.0078,78.8178 14.0078,74.8178 15.5,70.5C 17.588,68.6644 18.9213,66.3311 19.5,63.5C 19.3284,62.5084 19.6618,61.8417 20.5,61.5C 23.5558,59.0515 25.8892,56.0515 27.5,52.5C 28.5,52.1667 29.1667,51.5 29.5,50.5C 31.5869,49.4154 32.9202,47.7488 33.5,45.5C 33.8333,44.5 34.5,43.8333 35.5,43.5C 39.4356,41.2343 42.7689,38.2343 45.5,34.5C 97.6035,-2.45529 149.937,-2.78863 202.5,33.5 Z M 177.5,71.5 C 181.466,76.801 185.8,81.801 190.5,86.5C 192,90.173 194,93.5063 196.5,96.5C 196.402,98.5529 197.069,100.22 198.5,101.5C 198.893,103.284 199.559,104.95 200.5,106.5C 200.595,108.786 201.262,110.786 202.5,112.5C 202.5,112.833 202.5,113.167 202.5,113.5C 202.549,117.078 203.215,120.411 204.5,123.5C 204.5,129.167 204.5,134.833 204.5,140.5C 203.313,143.946 202.646,147.613 202.5,151.5C 200.595,155.216 199.261,159.216 198.5,163.5C 197.326,164.514 196.66,165.847 196.5,167.5C 195.326,168.514 194.66,169.847 194.5,171.5C 193.662,171.842 193.328,172.508 193.5,173.5C 191.75,174.659 190.75,176.326 190.5,178.5C 187.484,181.52 184.817,184.854 182.5,188.5C 178.008,193.232 173.008,197.232 167.5,200.5C 146.676,212.499 124.676,215.332 101.5,209C 95.1349,206.48 88.8015,203.98 82.5,201.5C 78.5238,198.531 74.5238,195.531 70.5,192.5C 69.1667,190.5 67.5,188.833 65.5,187.5C 65.5,186.167 64.8333,185.5 63.5,185.5C 62.4707,182.109 60.4707,179.443 57.5,177.5C 40.0138,147.333 40.1804,117.333 58,87.5C 83.4823,54.7961 115.982,44.9628 155.5,58C 163.056,62.2713 170.39,66.7713 177.5,71.5 Z M 115.5,97.5 C 110.637,97.1805 105.97,97.5139 101.5,98.5C 100.053,99.1342 99.3866,100.301 99.5,102C 100.802,108.21 101.302,114.377 101,120.5C 105.892,121.329 110.725,121.662 115.5,121.5C 114.506,123.334 114.506,125.001 115.5,126.5C 115.259,128.898 115.926,130.898 117.5,132.5C 119.908,142.076 125.908,148.243 135.5,151C 138.72,152.352 142.053,153.186 145.5,153.5C 145.5,154.5 145.5,155.5 145.5,156.5C 144.89,157.391 144.557,158.391 144.5,159.5C 143.683,161.969 143.183,164.635 143,167.5C 142.329,168.252 141.496,168.586 140.5,168.5C 131.682,167.507 122.682,167.173 113.5,167.5C 113.422,158.026 110.089,150.026 103.5,143.5C 101.833,139.833 99.1667,137.167 95.5,135.5C 94.1618,133.33 92.3284,131.664 90,130.5C 89.5001,118.505 89.3335,106.505 89.5,94.5C 98.1667,94.5 106.833,94.5 115.5,94.5C 115.5,95.5 115.5,96.5 115.5,97.5 Z M 97.5,145.5 C 97.7376,147.404 98.7376,148.738 100.5,149.5C 101.263,151.368 102.263,153.035 103.5,154.5C 103.402,156.553 104.069,158.22 105.5,159.5C 105.325,161.621 105.659,163.621 106.5,165.5C 101.265,167.45 95.5982,168.117 89.5,167.5C 89.1685,158.475 89.5018,149.475 90.5,140.5C 92.7158,142.431 95.0492,144.098 97.5,145.5 Z M 165.5,163.5 C 165.5,165.167 165.5,166.833 165.5,168.5C 160.167,168.5 154.833,168.5 149.5,168.5C 150.595,152.949 155.928,151.282 165.5,163.5 Z M 188.5,241.5 C 189.383,244.704 191.05,247.371 193.5,249.5C 193.328,250.492 193.662,251.158 194.5,251.5C 194.427,253.027 195.094,254.027 196.5,254.5C 196.229,256.38 196.896,257.713 198.5,258.5C 199.028,259.847 199.195,261.181 199,262.5C 195.99,264.183 192.99,265.85 190,267.5C 185.396,261.279 180.563,255.279 175.5,249.5C 175.5,248.5 175.5,247.5 175.5,246.5C 179.693,244.575 184.026,242.908 188.5,241.5 Z"/></g>
<g><path style="opacity:0.263" fill="#e9e9e9" d="M 202.5,33.5 C 149.937,-2.78863 97.6035,-2.45529 45.5,34.5C 67.8769,14.8109 94.2102,5.14425 124.5,5.5C 146.934,5.52506 167.934,11.0251 187.5,22C 192.929,25.369 197.929,29.2023 202.5,33.5 Z"/></g>
<g><path style="opacity:0.086" fill="#d7d7d7" d="M 202.5,33.5 C 205.089,34.4194 207.089,36.086 208.5,38.5C 205.911,37.5806 203.911,35.914 202.5,33.5 Z"/></g>
<g><path style="opacity:0.773" fill="#9b9b9b" d="M 45.5,34.5 C 42.7689,38.2343 39.4356,41.2343 35.5,43.5C 38.2311,39.7657 41.5644,36.7657 45.5,34.5 Z"/></g>
<g><path style="opacity:0.024" fill="#f6f6f6" d="M 208.5,38.5 C 211.5,39.5 213.5,41.5 214.5,44.5C 212.167,42.8333 210.167,40.8333 208.5,38.5 Z"/></g>
<g><path style="opacity:0.012" fill="#fafafa" d="M 214.5,44.5 C 215.833,44.5 216.5,45.1667 216.5,46.5C 215.5,46.1667 214.833,45.5 214.5,44.5 Z"/></g>
<g><path style="opacity:0.773" fill="#9b9b9b" d="M 33.5,45.5 C 32.9202,47.7488 31.5869,49.4154 29.5,50.5C 30.0798,48.2512 31.4131,46.5846 33.5,45.5 Z"/></g>
<g><path style="opacity:0.231" fill="#ededed" d="M 29.5,50.5 C 29.1667,51.5 28.5,52.1667 27.5,52.5C 27.5,51.1667 28.1667,50.5 29.5,50.5 Z"/></g>
<g><path style="opacity:0.089" fill="#ececec" d="M 216.5,46.5 C 219.13,48.6281 221.63,50.9614 224,53.5C 238.238,72.4034 246.404,93.7367 248.5,117.5C 244.616,90.7349 233.949,67.0682 216.5,46.5 Z"/></g>
<g><path style="opacity:0.208" fill="#e1e1e1" d="M 27.5,52.5 C 25.8892,56.0515 23.5558,59.0515 20.5,61.5C 22.1108,57.9485 24.4442,54.9485 27.5,52.5 Z"/></g>
<g><path style="opacity:0.465" fill="#f3f3f3" d="M 177.5,71.5 C 170.39,66.7713 163.056,62.2713 155.5,58C 115.982,44.9628 83.4823,54.7961 58,87.5C 40.1804,117.333 40.0138,147.333 57.5,177.5C 38.8895,149.018 37.7228,119.684 54,89.5C 79.7792,52.8604 113.946,42.0271 156.5,57C 164.505,60.5263 171.505,65.3596 177.5,71.5 Z"/></g>
<g><path style="opacity:0.337" fill="#e2e2e2" d="M 19.5,63.5 C 18.9213,66.3311 17.588,68.6644 15.5,70.5C 15.9977,67.6737 17.3311,65.3403 19.5,63.5 Z"/></g>
<g><path style="opacity:0.204" fill="#ededed" d="M 177.5,71.5 C 179.229,72.1175 180.729,73.1175 182,74.5C 185.467,78.12 188.3,82.12 190.5,86.5C 185.8,81.801 181.466,76.801 177.5,71.5 Z"/></g>
<g><path style="opacity:0.22" fill="#dddddd" d="M 15.5,70.5 C 14.0078,74.8178 12.0078,78.8178 9.5,82.5C 10.4598,77.9136 12.4598,73.9136 15.5,70.5 Z"/></g>
<g><path style="opacity:1" fill="#121212" d="M 133.5,142.5 C 143.671,145.176 153.671,148.176 163.5,151.5C 169.762,157.45 172.095,164.617 170.5,173C 156,173.167 141.5,173.333 127,173.5C 112.151,173.499 97.6509,172.833 83.5,171.5C 83.5,141.5 83.5,111.5 83.5,81.5C 83.7911,80.3509 84.6244,79.6842 86,79.5C 97.3875,80.124 108.721,80.7907 120,81.5C 120.078,97.5448 120.745,113.545 122,129.5C 124.293,135.288 128.127,139.621 133.5,142.5 Z M 115.5,97.5 C 110.637,97.1805 105.97,97.5139 101.5,98.5C 100.053,99.1342 99.3866,100.301 99.5,102C 100.802,108.21 101.302,114.377 101,120.5C 105.892,121.329 110.725,121.662 115.5,121.5C 114.506,123.334 114.506,125.001 115.5,126.5C 115.259,128.898 115.926,130.898 117.5,132.5C 119.908,142.076 125.908,148.243 135.5,151C 138.72,152.352 142.053,153.186 145.5,153.5C 145.5,154.5 145.5,155.5 145.5,156.5C 144.89,157.391 144.557,158.391 144.5,159.5C 143.683,161.969 143.183,164.635 143,167.5C 142.329,168.252 141.496,168.586 140.5,168.5C 131.682,167.507 122.682,167.173 113.5,167.5C 113.422,158.026 110.089,150.026 103.5,143.5C 101.833,139.833 99.1667,137.167 95.5,135.5C 94.1618,133.33 92.3284,131.664 90,130.5C 89.5001,118.505 89.3335,106.505 89.5,94.5C 98.1667,94.5 106.833,94.5 115.5,94.5C 115.5,95.5 115.5,96.5 115.5,97.5 Z M 97.5,145.5 C 97.7376,147.404 98.7376,148.738 100.5,149.5C 101.263,151.368 102.263,153.035 103.5,154.5C 103.402,156.553 104.069,158.22 105.5,159.5C 105.325,161.621 105.659,163.621 106.5,165.5C 101.265,167.45 95.5982,168.117 89.5,167.5C 89.1685,158.475 89.5018,149.475 90.5,140.5C 92.7158,142.431 95.0492,144.098 97.5,145.5 Z M 165.5,163.5 C 155.928,151.282 150.595,152.949 149.5,168.5C 154.833,168.5 160.167,168.5 165.5,168.5C 165.5,166.833 165.5,165.167 165.5,163.5 Z"/></g>
<g><path style="opacity:0.39" fill="#e0e0e0" d="M 133.5,142.5 C 128.127,139.621 124.293,135.288 122,129.5C 120.745,113.545 120.078,97.5448 120,81.5C 108.721,80.7907 97.3875,80.124 86,79.5C 84.6244,79.6842 83.7911,80.3509 83.5,81.5C 82.5318,83.6074 82.1984,85.9407 82.5,88.5C 79.4694,81.4132 81.8027,78.0798 89.5,78.5C 99.8261,79.1386 110.159,79.6386 120.5,80C 122.665,81.1607 123.665,82.994 123.5,85.5C 121.703,99.1675 121.536,112.834 123,126.5C 123.438,129.376 124.438,132.043 126,134.5C 128.705,137.036 131.205,139.703 133.5,142.5 Z"/></g>
<g><path style="opacity:1" fill="#ededed" d="M 87.5,84.5 C 96.8745,84.2687 106.208,84.7687 115.5,86C 110.833,86.1667 106.167,86.3333 101.5,86.5C 96.4492,86.4933 91.7825,85.8266 87.5,84.5 Z"/></g>
<g><path style="opacity:0.914" fill="#9a9a9a" d="M 9.5,82.5 C 9.87988,84.698 9.21321,86.3646 7.5,87.5C 7.40206,85.4471 8.06873,83.7804 9.5,82.5 Z"/></g>
<g><path style="opacity:0.069" fill="#ededed" d="M 190.5,86.5 C 193.521,89.2061 195.521,92.5395 196.5,96.5C 194,93.5063 192,90.173 190.5,86.5 Z"/></g>
<g><path style="opacity:0.859" fill="#aeaeae" d="M 7.5,87.5 C 7.74061,89.8984 7.07394,91.8984 5.5,93.5C 5.25939,91.1016 5.92606,89.1016 7.5,87.5 Z"/></g>
<g><path style="opacity:0.208" fill="#e4e4e4" d="M 115.5,97.5 C 115.5,96.5 115.5,95.5 115.5,94.5C 106.833,94.5 98.1667,94.5 89.5,94.5C 89.3335,106.505 89.5001,118.505 90,130.5C 92.3284,131.664 94.1618,133.33 95.5,135.5C 92.8996,134.081 90.3996,132.415 88,130.5C 87.5001,117.504 87.3334,104.504 87.5,91.5C 96.8571,91.1684 106.19,91.5017 115.5,92.5C 116.735,94.3163 116.735,95.983 115.5,97.5 Z"/></g>
<g><path style="opacity:0.035" fill="#e6e6e6" d="M 196.5,96.5 C 197.931,97.7804 198.598,99.4471 198.5,101.5C 197.069,100.22 196.402,98.5529 196.5,96.5 Z"/></g>
<g><path style="opacity:0.282" fill="#cecece" d="M 3.5,101.5 C 3.70621,104.495 3.03954,107.162 1.5,109.5C 1.29379,106.505 1.96046,103.838 3.5,101.5 Z"/></g>
<g><path style="opacity:0.533" fill="#cdcdcd" d="M 200.5,106.5 C 202.074,108.102 202.741,110.102 202.5,112.5C 201.262,110.786 200.595,108.786 200.5,106.5 Z"/></g>
<g><path style="opacity:0.996" fill="#888888" d="M 101.5,110.5 C 106.167,110.5 110.833,110.5 115.5,110.5C 115.737,111.791 115.404,112.791 114.5,113.5C 110.427,111.865 106.094,110.865 101.5,110.5 Z"/></g>
<g><path style="opacity:0.338" fill="#ececec" d="M 101.5,98.5 C 100.829,99.8471 100.829,101.014 101.5,102C 106.155,102.499 110.821,102.666 115.5,102.5C 115.5,103.5 115.5,104.5 115.5,105.5C 111.154,105.334 106.821,105.501 102.5,106C 101.62,107.356 101.286,108.856 101.5,110.5C 106.094,110.865 110.427,111.865 114.5,113.5C 110.51,113.999 106.51,114.499 102.5,115C 100.834,118.131 101.834,119.631 105.5,119.5C 108.482,118.668 111.482,118.501 114.5,119C 115.252,119.671 115.586,120.504 115.5,121.5C 110.725,121.662 105.892,121.329 101,120.5C 101.302,114.377 100.802,108.21 99.5,102C 99.3866,100.301 100.053,99.1342 101.5,98.5 Z"/></g>
<g><path style="opacity:0.404" fill="#d6d6d6" d="M 202.5,113.5 C 204.175,116.507 204.841,119.84 204.5,123.5C 203.215,120.411 202.549,117.078 202.5,113.5 Z"/></g>
<g><path style="opacity:0.047" fill="#f3f3f3" d="M 115.5,126.5 C 116.738,128.214 117.405,130.214 117.5,132.5C 115.926,130.898 115.259,128.898 115.5,126.5 Z"/></g>
<g><path style="opacity:0.02" fill="#d8d8d8" d="M 95.5,135.5 C 99.1667,137.167 101.833,139.833 103.5,143.5C 100.5,141.167 97.8333,138.5 95.5,135.5 Z"/></g>
<g><path style="opacity:0.154" fill="#e6e6e6" d="M 97.5,145.5 C 95.0492,144.098 92.7158,142.431 90.5,140.5C 89.5018,149.475 89.1685,158.475 89.5,167.5C 95.5982,168.117 101.265,167.45 106.5,165.5C 107.434,166.568 107.768,167.901 107.5,169.5C 101.491,169.666 95.4908,169.499 89.5,169C 89,168.5 88.5,168 88,167.5C 87.1677,157.151 87.3344,146.817 88.5,136.5C 91.8815,139.215 94.8815,142.215 97.5,145.5 Z"/></g>
<g><path style="opacity:0.146" fill="#e9e9e9" d="M 117.5,132.5 C 123.475,143.667 132.808,150.167 145.5,152C 146.801,153.616 146.801,155.116 145.5,156.5C 145.5,155.5 145.5,154.5 145.5,153.5C 142.053,153.186 138.72,152.352 135.5,151C 125.908,148.243 119.908,142.076 117.5,132.5 Z"/></g>
<g><path style="opacity:0.016" fill="#f4f4f4" d="M 97.5,145.5 C 99.2624,146.262 100.262,147.596 100.5,149.5C 98.7376,148.738 97.7376,147.404 97.5,145.5 Z"/></g>
<g><path style="opacity:0.029" fill="#e2e2e2" d="M 204.5,140.5 C 204.749,144.458 204.082,148.124 202.5,151.5C 202.646,147.613 203.313,143.946 204.5,140.5 Z"/></g>
<g><path style="opacity:0.775" fill="#686868" d="M 83.5,81.5 C 83.5,111.5 83.5,141.5 83.5,171.5C 83.1667,171.5 82.8333,171.5 82.5,171.5C 82.4695,144.055 82.4695,116.388 82.5,88.5C 82.1984,85.9407 82.5318,83.6074 83.5,81.5 Z"/></g>
<g><path style="opacity:0.102" fill="#d8d8d8" d="M 1.5,152.5 C 2.7682,154.905 3.43487,157.572 3.5,160.5C 1.96046,158.162 1.29379,155.495 1.5,152.5 Z"/></g>
<g><path style="opacity:0.275" fill="#e1e1e1" d="M 103.5,154.5 C 104.931,155.78 105.598,157.447 105.5,159.5C 104.069,158.22 103.402,156.553 103.5,154.5 Z"/></g>
<g><path style="opacity:0.346" fill="#e4e4e4" d="M 165.5,163.5 C 166.461,165.265 166.795,167.265 166.5,169.5C 160.491,169.666 154.491,169.499 148.5,169C 148.038,164.873 148.538,160.706 150,156.5C 150.779,155.272 151.779,154.272 153,153.5C 159.441,154.118 163.608,157.451 165.5,163.5 Z M 165.5,163.5 C 155.928,151.282 150.595,152.949 149.5,168.5C 154.833,168.5 160.167,168.5 165.5,168.5C 165.5,166.833 165.5,165.167 165.5,163.5 Z"/></g>
<g><path style="opacity:0.053" fill="#dadada" d="M 202.5,151.5 C 202.139,155.915 200.806,159.915 198.5,163.5C 199.261,159.216 200.595,155.216 202.5,151.5 Z"/></g>
<g><path style="opacity:0.061" fill="#eaeaea" d="M 3.5,161.5 C 4.61185,163.599 5.27852,165.933 5.5,168.5C 3.83724,166.562 3.17057,164.228 3.5,161.5 Z"/></g>
<g><path style="opacity:0.282" fill="#e1e1e1" d="M 198.5,163.5 C 198.771,165.38 198.104,166.713 196.5,167.5C 196.66,165.847 197.326,164.514 198.5,163.5 Z"/></g>
<g><path style="opacity:0.069" fill="#f8f8f8" d="M 103.5,143.5 C 110.089,150.026 113.422,158.026 113.5,167.5C 122.682,167.173 131.682,167.507 140.5,168.5C 131.167,168.5 121.833,168.5 112.5,168.5C 111.674,159.352 108.674,151.019 103.5,143.5 Z"/></g>
<g><path style="opacity:0.396" fill="#c1c1c1" d="M 144.5,159.5 C 144.784,162.777 144.451,165.943 143.5,169C 132.992,169.825 122.658,169.659 112.5,168.5C 121.833,168.5 131.167,168.5 140.5,168.5C 141.496,168.586 142.329,168.252 143,167.5C 143.183,164.635 143.683,161.969 144.5,159.5 Z"/></g>
<g><path style="opacity:0.337" fill="#d7d7d7" d="M 196.5,167.5 C 196.771,169.38 196.104,170.713 194.5,171.5C 194.66,169.847 195.326,168.514 196.5,167.5 Z"/></g>
<g><path style="opacity:0.736" fill="#e8e8e8" d="M 163.5,151.5 C 166.428,152.591 168.594,154.591 170,157.5C 173.321,164.214 173.821,171.047 171.5,178C 173.279,182.779 172.613,187.112 169.5,191C 141.167,191.667 112.833,191.667 84.5,191C 84,190.5 83.5,190 83,189.5C 82.8477,183.426 82.681,177.426 82.5,171.5C 82.8333,171.5 83.1667,171.5 83.5,171.5C 97.6509,172.833 112.151,173.499 127,173.5C 141.5,173.333 156,173.167 170.5,173C 172.095,164.617 169.762,157.45 163.5,151.5 Z"/></g>
<g><path style="opacity:0.243" fill="#e1e1e1" d="M 193.5,173.5 C 193.25,175.674 192.25,177.341 190.5,178.5C 190.75,176.326 191.75,174.659 193.5,173.5 Z"/></g>
<g><path style="opacity:0.333" fill="#e6e6e6" d="M 5.5,168.5 C 9.48439,180.446 14.8177,191.779 21.5,202.5C 20.2058,201.71 19.0391,200.71 18,199.5C 15.137,194.554 12.4704,189.554 10,184.5C 7.57871,179.406 6.07871,174.072 5.5,168.5 Z"/></g>
<g><path style="opacity:1" fill="#0d0d0d" d="M 84.5,176.5 C 112.835,176.333 141.169,176.5 169.5,177C 170.833,180.667 170.833,184.333 169.5,188C 140.835,188.5 112.169,188.667 83.5,188.5C 83.307,184.434 83.6403,180.434 84.5,176.5 Z"/></g>
<g><path style="opacity:0.182" fill="#f5f5f5" d="M 57.5,177.5 C 60.4707,179.443 62.4707,182.109 63.5,185.5C 61.016,183.2 59.016,180.533 57.5,177.5 Z"/></g>
<g><path style="opacity:1" fill="#8e8e8e" d="M 87.5,181.5 C 113.175,181.167 138.842,181.5 164.5,182.5C 151.667,182.833 138.833,183.167 126,183.5C 112.815,183.499 99.9822,182.833 87.5,181.5 Z"/></g>
<g><path style="opacity:0.592" fill="#b8b8b8" d="M 190.5,178.5 C 188.912,182.749 186.245,186.082 182.5,188.5C 184.817,184.854 187.484,181.52 190.5,178.5 Z"/></g>
<g><path style="opacity:0.225" fill="#fefefe" d="M 63.5,185.5 C 64.8333,185.5 65.5,186.167 65.5,187.5C 64.5,187.167 63.8333,186.5 63.5,185.5 Z"/></g>
<g><path style="opacity:0.455" fill="#eeeeee" d="M 248.5,117.5 C 252.372,150.05 244.872,179.716 226,206.5C 217.993,216.006 209.493,225.006 200.5,233.5C 203.955,238.947 206.955,244.614 209.5,250.5C 206.109,246.072 202.942,241.406 200,236.5C 198.699,234.635 198.365,232.635 199,230.5C 234.164,201.225 250.664,163.558 248.5,117.5 Z"/></g>
<g><path style="opacity:0.835" fill="#aeaeae" d="M 65.5,187.5 C 67.5,188.833 69.1667,190.5 70.5,192.5C 67.8333,191.833 66.1667,190.167 65.5,187.5 Z"/></g>
<g><path style="opacity:0.211" fill="#f1f1f1" d="M 167.5,200.5 C 146.458,214.062 123.791,217.229 99.5,210C 93.2995,208.004 87.6328,205.171 82.5,201.5C 88.8015,203.98 95.1349,206.48 101.5,209C 124.676,215.332 146.676,212.499 167.5,200.5 Z"/></g>
<g><path style="opacity:0.37" fill="#e7e7e7" d="M 188.5,241.5 C 184.026,242.908 179.693,244.575 175.5,246.5C 175.5,247.5 175.5,248.5 175.5,249.5C 173.083,248.085 172.583,246.419 174,244.5C 178.155,242.756 182.155,240.756 186,238.5C 187.749,238.748 188.582,239.748 188.5,241.5 Z"/></g>
<g><path style="opacity:0.439" fill="#d8d8d8" d="M 188.5,241.5 C 190.95,243.629 192.617,246.296 193.5,249.5C 191.05,247.371 189.383,244.704 188.5,241.5 Z"/></g>
<g><path style="opacity:0.604" fill="#c7c7c7" d="M 224.5,248.5 C 223.738,250.262 222.404,251.262 220.5,251.5C 221.262,249.738 222.596,248.738 224.5,248.5 Z"/></g>
<g><path style="opacity:0.43" fill="#efefef" d="M 21.5,202.5 C 53.1866,242.675 94.52,260.342 145.5,255.5C 149.967,253.597 154.467,251.931 159,250.5C 161.275,250.278 162.441,251.278 162.5,253.5C 161.735,253.077 160.902,252.743 160,252.5C 155.52,254.244 151.02,255.911 146.5,257.5C 116.622,259.922 88.2883,254.422 61.5,241C 45.002,231.333 31.6687,218.5 21.5,202.5 Z"/></g>
<g><path style="opacity:0.231" fill="#ececec" d="M 234.5,247.5 C 236.017,247.511 237.184,248.177 238,249.5C 246.09,264.348 253.59,279.348 260.5,294.5C 252.103,278.707 243.436,263.041 234.5,247.5 Z"/></g>
<g><path style="opacity:0.318" fill="#e8e8e8" d="M 194.5,251.5 C 195.906,251.973 196.573,252.973 196.5,254.5C 195.094,254.027 194.427,253.027 194.5,251.5 Z"/></g>
<g><path style="opacity:0.075" fill="#f1f1f1" d="M 209.5,250.5 C 210.451,252.118 211.784,253.451 213.5,254.5C 215.739,253.212 218.072,252.212 220.5,251.5C 218.41,253.39 216.077,255.057 213.5,256.5C 210.929,255.272 209.595,253.272 209.5,250.5 Z"/></g>
<g><path style="opacity:0.02" fill="#ebebeb" d="M 162.5,253.5 C 163.906,253.973 164.573,254.973 164.5,256.5C 163.094,256.027 162.427,255.027 162.5,253.5 Z"/></g>
<g><path style="opacity:0.033" fill="#efefef" d="M 196.5,254.5 C 197.674,255.514 198.34,256.847 198.5,258.5C 196.896,257.713 196.229,256.38 196.5,254.5 Z"/></g>
<g><path style="opacity:0.183" fill="#e9e9e9" d="M 175.5,249.5 C 180.563,255.279 185.396,261.279 190,267.5C 192.99,265.85 195.99,264.183 199,262.5C 199.195,261.181 199.028,259.847 198.5,258.5C 200.377,259.659 200.877,261.326 200,263.5C 196.911,264.96 194.078,266.793 191.5,269C 190.5,269.667 189.5,269.667 188.5,269C 183.919,262.6 179.586,256.1 175.5,249.5 Z"/></g>
<g><path style="opacity:0.145" fill="#dedede" d="M 167.5,260.5 C 168.906,260.973 169.573,261.973 169.5,263.5C 168.094,263.027 167.427,262.027 167.5,260.5 Z"/></g>
<g><path style="opacity:0.059" fill="#ebebeb" d="M 169.5,263.5 C 170.906,263.973 171.573,264.973 171.5,266.5C 170.094,266.027 169.427,265.027 169.5,263.5 Z"/></g>
<g><path style="opacity:0.043" fill="#ebebeb" d="M 171.5,266.5 C 172.906,266.973 173.573,267.973 173.5,269.5C 172.094,269.027 171.427,268.027 171.5,266.5 Z"/></g>
<g><path style="opacity:0.451" fill="#dadada" d="M 173.5,269.5 C 176.276,271.052 177.443,273.386 177,276.5C 173.752,278.207 170.585,280.04 167.5,282C 165.643,283.182 164.643,284.849 164.5,287C 165.726,290.605 167.059,294.105 168.5,297.5C 164.448,293.712 162.948,289.046 164,283.5C 167.734,280.048 171.9,277.215 176.5,275C 175.242,273.259 174.242,271.426 173.5,269.5 Z"/></g>
<g><path style="opacity:0.153" fill="#eeeeee" d="M 260.5,294.5 C 262.104,295.287 262.771,296.62 262.5,298.5C 261.326,297.486 260.66,296.153 260.5,294.5 Z"/></g>
<g><path style="opacity:0.42" fill="#d7d7d7" d="M 168.5,297.5 C 170.25,298.659 171.25,300.326 171.5,302.5C 169.75,301.341 168.75,299.674 168.5,297.5 Z"/></g>
<g><path style="opacity:0.163" fill="#dedede" d="M 171.5,302.5 C 172.674,303.514 173.34,304.847 173.5,306.5C 171.896,305.713 171.229,304.38 171.5,302.5 Z"/></g>
<g><path style="opacity:0.129" fill="#ebebeb" d="M 173.5,306.5 C 174.674,307.514 175.34,308.847 175.5,310.5C 173.896,309.713 173.229,308.38 173.5,306.5 Z"/></g>
<g><path style="opacity:0.224" fill="#ebebeb" d="M 262.5,298.5 C 272.486,314.139 281.153,330.472 288.5,347.5C 279.058,331.618 270.391,315.285 262.5,298.5 Z"/></g>
<g><path style="opacity:0.173" fill="#eeeeee" d="M 288.5,347.5 C 290.558,349.927 292.391,352.593 294,355.5C 308.72,385.275 324.22,414.608 340.5,443.5C 340.5,444.833 340.5,446.167 340.5,447.5C 322.66,414.489 305.327,381.156 288.5,347.5 Z"/></g>
<g><path style="opacity:0.073" fill="#eeeeee" d="M 176.5,312.5 C 192.368,340.904 207.701,369.571 222.5,398.5C 206.152,370.477 190.819,341.81 176.5,312.5 Z"/></g>
<g><path style="opacity:0.36" fill="#ebebeb" d="M 222.5,398.5 C 240.186,430.031 257.52,461.865 274.5,494C 277.525,494.361 280.525,494.861 283.5,495.5C 293.739,492.886 304.072,490.719 314.5,489C 323.401,479.604 332.068,470.104 340.5,460.5C 340.5,461.833 340.5,463.167 340.5,464.5C 335.018,470.761 329.518,477.095 324,483.5C 321.131,486.704 317.965,489.537 314.5,492C 305.833,493.667 297.167,495.333 288.5,497C 283.713,497.879 279.047,497.545 274.5,496C 268.54,485.915 262.707,475.748 257,465.5C 245.274,443.277 233.774,420.943 222.5,398.5 Z"/></g>
</svg>
