<?xml version="1.0" encoding="UTF-8"?>
<!DOCTYPE svg PUBLIC "-//W3C//DTD SVG 1.1//EN" "http://www.w3.org/Graphics/SVG/1.1/DTD/svg11.dtd">
<svg xmlns="http://www.w3.org/2000/svg" version="1.1" width="313px" height="579px" style="shape-rendering:geometricPrecision; text-rendering:geometricPrecision; image-rendering:optimizeQuality; fill-rule:evenodd; clip-rule:evenodd" xmlns:xlink="http://www.w3.org/1999/xlink">
<g><path style="opacity:0.338" fill="#e0e0e0" d="M 225.5,20.5 C 178.164,-2.16629 130.831,-2.16629 83.5,20.5C 83.3691,19.6236 83.7025,18.9569 84.5,18.5C 131.22,-2.82821 177.887,-2.82821 224.5,18.5C 225.298,18.9569 225.631,19.6236 225.5,20.5 Z"/></g>
<g><path style="opacity:1" fill="#010101" d="M 225.5,20.5 C 225.833,20.5 226.167,20.5 226.5,20.5C 233.253,25.8881 240.586,30.5548 248.5,34.5C 253.467,39.4588 258.8,44.1255 264.5,48.5C 265.95,50.9228 267.95,52.9228 270.5,54.5C 272.458,57.7915 274.791,60.7915 277.5,63.5C 278.124,65.754 279.457,67.4206 281.5,68.5C 281.427,70.0269 282.094,71.0269 283.5,71.5C 285.446,75.4394 287.779,79.106 290.5,82.5C 291.326,85.4848 292.659,88.1515 294.5,90.5C 308.051,119.389 312.551,149.723 308,181.5C 291.332,315.113 239.666,432.779 153,534.5C 149.092,538.458 145.259,538.458 141.5,534.5C 141.573,532.973 140.906,531.973 139.5,531.5C 139.5,531.167 139.5,530.833 139.5,530.5C 138.189,527.865 136.522,525.531 134.5,523.5C 134.573,521.973 133.906,520.973 132.5,520.5C 132.573,518.973 131.906,517.973 130.5,517.5C 129,513.827 127,510.494 124.5,507.5C 124.573,505.973 123.906,504.973 122.5,504.5C 121.662,504.158 121.328,503.492 121.5,502.5C 120.66,500.147 119.326,498.147 117.5,496.5C 116.921,493.669 115.588,491.336 113.5,489.5C 113.573,487.973 112.906,486.973 111.5,486.5C 111.25,484.326 110.25,482.659 108.5,481.5C 108.573,479.973 107.906,478.973 106.5,478.5C 104.957,473.976 102.623,469.976 99.5,466.5C 97.9291,464.365 96.5957,462.032 95.5,459.5C 95.3404,457.847 94.6737,456.514 93.5,455.5C 92.9213,452.669 91.588,450.336 89.5,448.5C 88.9213,445.669 87.588,443.336 85.5,441.5C 84.3995,440.395 83.7329,439.062 83.5,437.5C 82.3411,433.849 80.6744,430.515 78.5,427.5C 78.3404,425.847 77.6737,424.514 76.5,423.5C 74.3233,420.48 72.6566,417.147 71.5,413.5C 71.7709,411.62 71.1042,410.287 69.5,409.5C 68.9579,406.088 67.6246,403.088 65.5,400.5C 64.6618,400.158 64.3284,399.492 64.5,398.5C 64.5979,396.447 63.9313,394.78 62.5,393.5C 62.2927,390.759 61.2927,388.426 59.5,386.5C 58.0512,384.389 57.0512,382.056 56.5,379.5C 56.8799,377.302 56.2132,375.635 54.5,374.5C 54.5979,372.447 53.9313,370.78 52.5,369.5C 52.7406,367.102 52.0739,365.102 50.5,363.5C 50.405,361.214 49.7384,359.214 48.5,357.5C 45.5686,351.144 43.2352,344.477 41.5,337.5C 41.7406,335.102 41.0739,333.102 39.5,331.5C 39.5,331.167 39.5,330.833 39.5,330.5C 39.5979,328.447 38.9313,326.78 37.5,325.5C 37.5,325.167 37.5,324.833 37.5,324.5C 37.7406,322.102 37.0739,320.102 35.5,318.5C 32.6658,310.674 30.3324,302.674 28.5,294.5C 28.8294,291.772 28.1628,289.438 26.5,287.5C 26.5905,284.848 25.9238,282.515 24.5,280.5C 24.5,279.833 24.5,279.167 24.5,278.5C 24.7406,276.102 24.0739,274.102 22.5,272.5C 19.5318,263.386 17.1985,254.052 15.5,244.5C 15.5905,241.848 14.9238,239.515 13.5,237.5C 13.5,237.167 13.5,236.833 13.5,236.5C 13.7062,233.505 13.0395,230.838 11.5,228.5C 11.5797,225.219 10.913,222.219 9.5,219.5C 7.83744,212.934 6.17078,206.267 4.5,199.5C 4.28649,197.856 4.61983,196.356 5.5,195C 4.30943,194.302 3.30943,193.469 2.5,192.5C 2.78472,189.171 2.11805,186.171 0.5,183.5C 0.5,182.833 0.166667,182.5 -0.5,182.5C -0.5,165.5 -0.5,148.5 -0.5,131.5C 0.166667,131.5 0.5,131.167 0.5,130.5C 1.7682,128.095 2.43487,125.428 2.5,122.5C 3.09035,117.175 4.42369,112.175 6.5,107.5C 8.10422,106.713 8.77089,105.38 8.5,103.5C 8.26269,102.209 8.59603,101.209 9.5,100.5C 10.6737,99.4863 11.3404,98.153 11.5,96.5C 11.5,96.1667 11.5,95.8333 11.5,95.5C 13.1042,94.713 13.7709,93.3797 13.5,91.5C 13.3284,90.5084 13.6618,89.8417 14.5,89.5C 15.6737,88.4863 16.3404,87.153 16.5,85.5C 17.9063,85.0269 18.573,84.0269 18.5,82.5C 18.5,82.1667 18.5,81.8333 18.5,81.5C 19.9063,81.0269 20.573,80.0269 20.5,78.5C 21.9063,78.0269 22.573,77.0269 22.5,75.5C 25.2768,73.0495 27.2768,70.0495 28.5,66.5C 32.289,62.9493 35.6223,58.9493 38.5,54.5C 40.5486,53.1182 42.2153,51.4516 43.5,49.5C 43.5,48.8333 43.8333,48.5 44.5,48.5C 48.1038,46.712 50.7705,44.0453 52.5,40.5C 61.6073,33.7704 71.2739,27.7704 81.5,22.5C 82.2975,22.0431 82.6309,21.3764 82.5,20.5C 82.8333,20.5 83.1667,20.5 83.5,20.5C 130.831,-2.16629 178.164,-2.16629 225.5,20.5 Z M 219.5,80.5 C 221.482,84.1463 224.149,87.1463 227.5,89.5C 228.08,91.7488 229.413,93.4154 231.5,94.5C 231.845,97.1979 233.178,99.1979 235.5,100.5C 235.992,102.819 236.992,104.819 238.5,106.5C 239.042,109.912 240.375,112.912 242.5,115.5C 242.402,117.553 243.069,119.22 244.5,120.5C 244.263,121.791 244.596,122.791 245.5,123.5C 245.66,125.199 245.494,126.866 245,128.5C 237.947,124.276 230.78,120.276 223.5,116.5C 223.631,115.624 223.298,114.957 222.5,114.5C 219.114,112.807 215.78,111.14 212.5,109.5C 209.16,106.159 205.16,103.826 200.5,102.5C 200.631,101.624 200.298,100.957 199.5,100.5C 196.114,98.8068 192.78,97.1401 189.5,95.5C 189.167,95.5 188.833,95.5 188.5,95.5C 186.177,91.9239 182.843,90.7573 178.5,92C 176.963,93.1096 176.297,94.6096 176.5,96.5C 174.784,96.3713 173.117,96.038 171.5,95.5C 171.167,95.5 170.833,95.5 170.5,95.5C 167.394,92.7743 163.727,90.7743 159.5,89.5C 156.943,86.2078 153.609,83.8744 149.5,82.5C 147.071,76.9192 143.071,75.4192 137.5,78C 135.314,79.4117 133.648,81.245 132.5,83.5C 127.882,85.8148 123.549,88.6482 119.5,92C 116.532,95.1473 113.198,97.814 109.5,100C 108.748,100.671 108.414,101.504 108.5,102.5C 105.484,103.343 102.817,104.843 100.5,107C 98.0427,110.058 95.0427,112.392 91.5,114C 90.7476,114.671 90.4142,115.504 90.5,116.5C 86.592,117.75 83.592,120.083 81.5,123.5C 77.296,125.033 73.9626,127.7 71.5,131.5C 68.6385,132.247 66.6385,133.914 65.5,136.5C 64.5222,136.189 63.8555,135.522 63.5,134.5C 73.1377,92.0285 99.1377,66.1952 141.5,57C 165.002,53.6346 186.669,58.3012 206.5,71C 210.449,74.796 214.783,77.9626 219.5,80.5 Z M 248.5,145.5 C 247.835,151.477 247.502,157.477 247.5,163.5C 245.96,165.838 245.294,168.505 245.5,171.5C 245.5,171.833 245.5,172.167 245.5,172.5C 243.733,174.792 242.733,177.458 242.5,180.5C 241.326,181.514 240.66,182.847 240.5,184.5C 240.5,184.833 240.5,185.167 240.5,185.5C 238.461,186.911 237.461,188.911 237.5,191.5C 236.662,191.842 236.328,192.508 236.5,193.5C 235.094,193.973 234.427,194.973 234.5,196.5C 233.662,196.842 233.328,197.508 233.5,198.5C 231.413,199.585 230.08,201.251 229.5,203.5C 229.5,203.833 229.5,204.167 229.5,204.5C 226.757,206.239 224.757,208.573 223.5,211.5C 217.784,216.226 212.117,220.893 206.5,225.5C 201.968,227.597 197.635,229.931 193.5,232.5C 186.713,235.038 179.713,236.871 172.5,238C 171.944,238.383 171.611,238.883 171.5,239.5C 167.466,239.505 163.466,239.838 159.5,240.5C 158.184,233.666 158.184,226.833 159.5,220C 163.627,221.982 167.794,224.149 172,226.5C 178.211,224.944 179.878,221.277 177,215.5C 174.842,213.506 172.342,212.172 169.5,211.5C 166.972,208.218 163.639,205.884 159.5,204.5C 158.229,198.636 158.229,192.802 159.5,187C 160.5,186.333 161.5,186.333 162.5,187C 165.966,188.642 169.299,190.475 172.5,192.5C 176.311,191.691 178.311,189.358 178.5,185.5C 178.674,183.307 178.007,181.473 176.5,180C 170.832,176.78 164.999,173.947 159,171.5C 158.179,168.446 158.345,165.446 159.5,162.5C 164.027,164.596 168.027,167.429 171.5,171C 174.835,173.291 177.668,172.791 180,169.5C 182.21,163.046 180.043,159.046 173.5,157.5C 170.725,154.395 167.392,152.062 163.5,150.5C 163.167,150.5 162.833,150.5 162.5,150.5C 160.353,146.737 157.02,144.403 152.5,143.5C 148.897,144.108 146.564,146.108 145.5,149.5C 143.413,150.585 142.08,152.251 141.5,154.5C 139.952,154.821 139.285,155.821 139.5,157.5C 138.833,157.5 138.5,157.833 138.5,158.5C 136.086,159.911 134.419,161.911 133.5,164.5C 128.232,168.671 128.232,172.837 133.5,177C 134.833,177.667 136.167,177.667 137.5,177C 141.359,174.208 144.359,170.708 146.5,166.5C 147.48,169.086 147.813,171.753 147.5,174.5C 147.5,174.833 147.5,175.167 147.5,175.5C 146.326,176.514 145.66,177.847 145.5,179.5C 143.469,180.539 142.136,182.205 141.5,184.5C 139.453,186.55 137.786,188.883 136.5,191.5C 134.124,192.512 133.124,194.345 133.5,197C 134.339,202.586 137.339,204.253 142.5,202C 144.359,200.442 145.859,198.609 147,196.5C 147.494,198.134 147.66,199.801 147.5,201.5C 146.167,201.5 145.5,202.167 145.5,203.5C 142.246,205.677 140.246,208.677 139.5,212.5C 138.026,213.436 137.026,214.77 136.5,216.5C 135.662,216.842 135.328,217.508 135.5,218.5C 134.542,218.953 133.708,219.619 133,220.5C 131.076,226.008 132.909,229.341 138.5,230.5C 142.694,228.776 145.527,225.776 147,221.5C 147.499,227.491 147.666,233.491 147.5,239.5C 145.043,239.792 142.376,239.792 139.5,239.5C 132.274,237.176 124.941,234.843 117.5,232.5C 113.365,229.931 109.032,227.597 104.5,225.5C 98.9019,220.916 93.2353,216.25 87.5,211.5C 86.2427,208.573 84.2427,206.239 81.5,204.5C 81.1551,201.802 79.8218,199.802 77.5,198.5C 72.9266,190.024 68.9266,181.358 65.5,172.5C 64.4466,165.856 63.9466,159.19 64,152.5C 72.5693,144.601 81.736,137.434 91.5,131C 92.1667,130 92.8333,129 93.5,128C 109.682,116.075 125.682,103.909 141.5,91.5C 146.815,95.8265 152.482,99.6598 158.5,103C 164.686,105.283 170.686,107.95 176.5,111C 180.829,112.151 184.662,111.318 188,108.5C 208.343,120.745 228.51,133.078 248.5,145.5 Z"/></g>
<g><path style="opacity:0.008" fill="#d2d2d2" d="M 226.5,20.5 C 234.659,24.0165 241.993,28.6831 248.5,34.5C 240.586,30.5548 233.253,25.8881 226.5,20.5 Z"/></g>
<g><path style="opacity:0.4" fill="#c9c9c9" d="M 82.5,20.5 C 82.6309,21.3764 82.2975,22.0431 81.5,22.5C 71.2739,27.7704 61.6073,33.7704 52.5,40.5C 61.4594,32.3479 71.4594,25.6812 82.5,20.5 Z"/></g>
<g><path style="opacity:0.149" fill="#e6e6e6" d="M 248.5,34.5 C 252.898,36.7253 256.898,39.5587 260.5,43C 262.464,44.451 263.797,46.2843 264.5,48.5C 258.8,44.1255 253.467,39.4588 248.5,34.5 Z"/></g>
<g><path style="opacity:0.686" fill="#b6b6b6" d="M 52.5,40.5 C 50.7705,44.0453 48.1038,46.712 44.5,48.5C 44.369,47.7611 44.5357,47.0944 45,46.5C 47.6633,44.6664 50.1633,42.6664 52.5,40.5 Z"/></g>
<g><path style="opacity:0.193" fill="#e3e3e3" d="M 264.5,48.5 C 267.438,49.622 269.438,51.622 270.5,54.5C 267.95,52.9228 265.95,50.9228 264.5,48.5 Z"/></g>
<g><path style="opacity:0.231" fill="#e2e2e2" d="M 43.5,49.5 C 42.2153,51.4516 40.5486,53.1182 38.5,54.5C 39.1439,51.856 40.8106,50.1894 43.5,49.5 Z"/></g>
<g><path style="opacity:0.485" fill="#f4f4f4" d="M 219.5,80.5 C 214.783,77.9626 210.449,74.796 206.5,71C 186.669,58.3012 165.002,53.6346 141.5,57C 99.1377,66.1952 73.1377,92.0285 63.5,134.5C 63.8555,135.522 64.5222,136.189 65.5,136.5C 64.469,137.249 63.3024,137.915 62,138.5C 68.3785,93.2979 93.8785,65.4646 138.5,55C 166.779,50.7846 192.112,57.4513 214.5,75C 216.373,76.7038 218.04,78.5372 219.5,80.5 Z"/></g>
<g><path style="opacity:0.109" fill="#ececec" d="M 270.5,54.5 C 273.973,56.6367 276.306,59.6367 277.5,63.5C 274.791,60.7915 272.458,57.7915 270.5,54.5 Z"/></g>
<g><path style="opacity:0.529" fill="#c0c0c0" d="M 38.5,54.5 C 35.6223,58.9493 32.289,62.9493 28.5,66.5C 30.8907,61.7212 34.224,57.7212 38.5,54.5 Z"/></g>
<g><path style="opacity:0.239" fill="#ececec" d="M 277.5,63.5 C 279.531,64.5387 280.864,66.2054 281.5,68.5C 279.457,67.4206 278.124,65.754 277.5,63.5 Z"/></g>
<g><path style="opacity:0.612" fill="#e2e2e2" d="M 281.5,68.5 C 282.906,68.9731 283.573,69.9731 283.5,71.5C 282.094,71.0269 281.427,70.0269 281.5,68.5 Z"/></g>
<g><path style="opacity:0.435" fill="#d5d5d5" d="M 28.5,66.5 C 27.2768,70.0495 25.2768,73.0495 22.5,75.5C 23.6817,71.9794 25.6817,68.9794 28.5,66.5 Z"/></g>
<g><path style="opacity:0.255" fill="#eaeaea" d="M 283.5,71.5 C 287.052,74.3865 289.385,78.0532 290.5,82.5C 287.779,79.106 285.446,75.4394 283.5,71.5 Z"/></g>
<g><path style="opacity:0.494" fill="#c0c0c0" d="M 22.5,75.5 C 22.573,77.0269 21.9063,78.0269 20.5,78.5C 20.427,76.9731 21.0937,75.9731 22.5,75.5 Z"/></g>
<g><path style="opacity:0.251" fill="#e1e1e1" d="M 149.5,82.5 C 147.27,80.4655 144.77,78.7988 142,77.5C 138.675,79.3399 135.508,81.3399 132.5,83.5C 133.648,81.245 135.314,79.4117 137.5,78C 143.071,75.4192 147.071,76.9192 149.5,82.5 Z"/></g>
<g><path style="opacity:0.31" fill="#d5d5d5" d="M 20.5,78.5 C 20.573,80.0269 19.9063,81.0269 18.5,81.5C 18.427,79.9731 19.0937,78.9731 20.5,78.5 Z"/></g>
<g><path style="opacity:0.362" fill="#f9f9f9" d="M 219.5,80.5 C 222.903,82.8998 225.57,85.8998 227.5,89.5C 224.149,87.1463 221.482,84.1463 219.5,80.5 Z"/></g>
<g><path style="opacity:0.467" fill="#b6b6b6" d="M 18.5,82.5 C 18.573,84.0269 17.9063,85.0269 16.5,85.5C 16.427,83.9731 17.0937,82.9731 18.5,82.5 Z"/></g>
<g><path style="opacity:0.155" fill="#f0f0f0" d="M 149.5,82.5 C 153.609,83.8744 156.943,86.2078 159.5,89.5C 155.779,87.6465 152.446,85.3131 149.5,82.5 Z"/></g>
<g><path style="opacity:0.408" fill="#e6e6e6" d="M 16.5,85.5 C 16.3404,87.153 15.6737,88.4863 14.5,89.5C 14.2291,87.6203 14.8958,86.287 16.5,85.5 Z"/></g>
<g><path style="opacity:0.171" fill="#f4f4f4" d="M 290.5,82.5 C 292.873,84.5792 294.206,87.2459 294.5,90.5C 292.659,88.1515 291.326,85.4848 290.5,82.5 Z"/></g>
<g><path style="opacity:0.216" fill="#ebebeb" d="M 227.5,89.5 C 229.587,90.5846 230.92,92.2512 231.5,94.5C 229.413,93.4154 228.08,91.7488 227.5,89.5 Z"/></g>
<g><path style="opacity:0.498" fill="#cdcdcd" d="M 13.5,91.5 C 13.7709,93.3797 13.1042,94.713 11.5,95.5C 11.2291,93.6203 11.8958,92.287 13.5,91.5 Z"/></g>
<g><path style="opacity:0.318" fill="#cccccc" d="M 132.5,83.5 C 124.539,89.8224 116.539,96.1557 108.5,102.5C 108.414,101.504 108.748,100.671 109.5,100C 113.198,97.814 116.532,95.1473 119.5,92C 123.549,88.6482 127.882,85.8148 132.5,83.5 Z"/></g>
<g><path style="opacity:0.143" fill="#ebebeb" d="M 159.5,89.5 C 163.727,90.7743 167.394,92.7743 170.5,95.5C 166.345,94.2583 162.678,92.2583 159.5,89.5 Z"/></g>
<g><path style="opacity:0.275" fill="#ebebeb" d="M 188.5,95.5 C 186.304,94.2366 183.97,93.2366 181.5,92.5C 179.213,93.1267 177.546,94.46 176.5,96.5C 176.297,94.6096 176.963,93.1096 178.5,92C 182.843,90.7573 186.177,91.9239 188.5,95.5 Z"/></g>
<g><path style="opacity:0.682" fill="#c0c0c0" d="M 171.5,95.5 C 173.117,96.038 174.784,96.3713 176.5,96.5C 174.545,97.9302 172.879,97.5969 171.5,95.5 Z"/></g>
<g><path style="opacity:0.141" fill="#eaeaea" d="M 231.5,94.5 C 233.326,96.1475 234.66,98.1475 235.5,100.5C 233.178,99.1979 231.845,97.1979 231.5,94.5 Z"/></g>
<g><path style="opacity:0.608" fill="#cdcdcd" d="M 11.5,96.5 C 11.3404,98.153 10.6737,99.4863 9.5,100.5C 9.22911,98.6203 9.89578,97.287 11.5,96.5 Z"/></g>
<g><path style="opacity:0.131" fill="#f0f0f0" d="M 189.5,95.5 C 192.78,97.1401 196.114,98.8068 199.5,100.5C 200.298,100.957 200.631,101.624 200.5,102.5C 196.289,100.902 192.622,98.5684 189.5,95.5 Z"/></g>
<g><path style="opacity:0.384" fill="#d7d7d7" d="M 108.5,102.5 C 102.81,107.518 96.8103,112.185 90.5,116.5C 90.4142,115.504 90.7476,114.671 91.5,114C 95.0427,112.392 98.0427,110.058 100.5,107C 102.817,104.843 105.484,103.343 108.5,102.5 Z"/></g>
<g><path style="opacity:0.204" fill="#eaeaea" d="M 8.5,103.5 C 8.77089,105.38 8.10422,106.713 6.5,107.5C 6.6596,105.847 7.32627,104.514 8.5,103.5 Z"/></g>
<g><path style="opacity:0.059" fill="#e6e6e6" d="M 200.5,102.5 C 205.16,103.826 209.16,106.159 212.5,109.5C 208.705,108.102 205.039,106.436 201.5,104.5C 200.702,104.043 200.369,103.376 200.5,102.5 Z"/></g>
<g><path style="opacity:0.176" fill="#e0e0e0" d="M 238.5,106.5 C 240.625,109.088 241.958,112.088 242.5,115.5C 240.375,112.912 239.042,109.912 238.5,106.5 Z"/></g>
<g><path style="opacity:0.094" fill="#f3f3f3" d="M 212.5,109.5 C 215.78,111.14 219.114,112.807 222.5,114.5C 223.298,114.957 223.631,115.624 223.5,116.5C 219.317,114.913 215.65,112.579 212.5,109.5 Z"/></g>
<g><path style="opacity:0.486" fill="#d0d0d0" d="M 242.5,115.5 C 243.931,116.78 244.598,118.447 244.5,120.5C 243.069,119.22 242.402,117.553 242.5,115.5 Z"/></g>
<g><path style="opacity:0.384" fill="#d4d4d4" d="M 90.5,116.5 C 87.8103,119.185 84.8103,121.518 81.5,123.5C 83.592,120.083 86.592,117.75 90.5,116.5 Z"/></g>
<g><path style="opacity:0.531" fill="#f5f5f5" d="M 248.5,145.5 C 228.51,133.078 208.343,120.745 188,108.5C 184.662,111.318 180.829,112.151 176.5,111C 170.686,107.95 164.686,105.283 158.5,103C 152.482,99.6598 146.815,95.8265 141.5,91.5C 125.682,103.909 109.682,116.075 93.5,128C 92.8333,129 92.1667,130 91.5,131C 81.736,137.434 72.5693,144.601 64,152.5C 63.9466,159.19 64.4466,165.856 65.5,172.5C 62.995,165.476 61.8284,158.143 62,150.5C 88.0229,129.643 114.19,108.976 140.5,88.5C 151.609,97.3911 163.942,104.224 177.5,109C 179.5,109.667 181.5,109.667 183.5,109C 184.619,105.434 186.619,104.767 189.5,107C 207.666,118.584 225.999,129.917 244.5,141C 246.635,141.876 247.969,143.376 248.5,145.5 Z"/></g>
<g><path style="opacity:0.033" fill="#e9e9e9" d="M 2.5,122.5 C 2.43487,125.428 1.7682,128.095 0.5,130.5C 0.29379,127.505 0.960457,124.838 2.5,122.5 Z"/></g>
<g><path style="opacity:0.322" fill="#cccccc" d="M 81.5,123.5 C 78.4607,126.54 75.1274,129.206 71.5,131.5C 73.9626,127.7 77.296,125.033 81.5,123.5 Z"/></g>
<g><path style="opacity:0.166" fill="#e7e7e7" d="M 223.5,116.5 C 230.78,120.276 237.947,124.276 245,128.5C 245.494,126.866 245.66,125.199 245.5,123.5C 246.797,125.693 246.797,128.027 245.5,130.5C 237.571,126.533 230.238,121.866 223.5,116.5 Z"/></g>
<g><path style="opacity:0.22" fill="#e8e8e8" d="M 71.5,131.5 C 69.9095,133.633 67.9095,135.299 65.5,136.5C 66.6385,133.914 68.6385,132.247 71.5,131.5 Z"/></g>
<g><path style="opacity:0.557" fill="#d1d1d1" d="M 162.5,150.5 C 159.446,148.129 156.113,146.129 152.5,144.5C 149.87,145.804 147.537,147.47 145.5,149.5C 146.564,146.108 148.897,144.108 152.5,143.5C 157.02,144.403 160.353,146.737 162.5,150.5 Z"/></g>
<g><path style="opacity:0.455" fill="#d5d5d5" d="M 145.5,149.5 C 144.92,151.749 143.587,153.415 141.5,154.5C 142.08,152.251 143.413,150.585 145.5,149.5 Z"/></g>
<g><path style="opacity:0.341" fill="#eeeeee" d="M 163.5,150.5 C 167.392,152.062 170.725,154.395 173.5,157.5C 169.608,155.938 166.275,153.605 163.5,150.5 Z"/></g>
<g><path style="opacity:0.045" fill="#e6e6e6" d="M 141.5,154.5 C 141.068,155.71 140.401,156.71 139.5,157.5C 139.285,155.821 139.952,154.821 141.5,154.5 Z"/></g>
<g><path style="opacity:0.404" fill="#d8d8d8" d="M 138.5,158.5 C 137.581,161.089 135.914,163.089 133.5,164.5C 134.419,161.911 136.086,159.911 138.5,158.5 Z"/></g>
<g><path style="opacity:0.424" fill="#b9b9b9" d="M 247.5,163.5 C 247.435,166.428 246.768,169.095 245.5,171.5C 245.294,168.505 245.96,165.838 247.5,163.5 Z"/></g>
<g><path style="opacity:0.46" fill="#f2f2f2" d="M 147.5,174.5 C 147.813,171.753 147.48,169.086 146.5,166.5C 144.359,170.708 141.359,174.208 137.5,177C 136.167,177.667 134.833,177.667 133.5,177C 128.232,172.837 128.232,168.671 133.5,164.5C 132.391,166.554 131.391,168.721 130.5,171C 131.798,174.205 134.132,175.205 137.5,174C 140.667,170.167 143.833,166.333 147,162.5C 148.714,166.563 148.88,170.563 147.5,174.5 Z"/></g>
<g><path style="opacity:0.557" fill="#cdcdcd" d="M 147.5,175.5 C 147.771,177.38 147.104,178.713 145.5,179.5C 145.66,177.847 146.326,176.514 147.5,175.5 Z"/></g>
<g><path style="opacity:0.929" fill="#767676" d="M 245.5,172.5 C 245.655,175.716 244.655,178.383 242.5,180.5C 242.733,177.458 243.733,174.792 245.5,172.5 Z"/></g>
<g><path style="opacity:0.265" fill="#ededed" d="M 65.5,172.5 C 68.9266,181.358 72.9266,190.024 77.5,198.5C 71.3972,190.883 67.3972,182.216 65.5,172.5 Z"/></g>
<g><path style="opacity:0.573" fill="#f4f4f4" d="M 173.5,157.5 C 180.043,159.046 182.21,163.046 180,169.5C 177.668,172.791 174.835,173.291 171.5,171C 168.027,167.429 164.027,164.596 159.5,162.5C 158.345,165.446 158.179,168.446 159,171.5C 164.999,173.947 170.832,176.78 176.5,180C 178.007,181.473 178.674,183.307 178.5,185.5C 178.311,189.358 176.311,191.691 172.5,192.5C 169.299,190.475 165.966,188.642 162.5,187C 161.5,186.333 160.5,186.333 159.5,187C 158.229,192.802 158.229,198.636 159.5,204.5C 158.883,204.389 158.383,204.056 158,203.5C 157.169,196.808 157.336,190.142 158.5,183.5C 163.059,185.363 167.559,187.363 172,189.5C 177.513,188.228 178.68,185.394 175.5,181C 169.649,178.163 163.816,175.33 158,172.5C 157.333,167.833 157.333,163.167 158,158.5C 163.116,162.79 168.616,166.457 174.5,169.5C 177.5,169.167 179.167,167.5 179.5,164.5C 177.922,161.734 175.922,159.401 173.5,157.5 Z"/></g>
<g><path style="opacity:0.604" fill="#cecece" d="M 145.5,179.5 C 144.876,181.754 143.543,183.421 141.5,184.5C 142.136,182.205 143.469,180.539 145.5,179.5 Z"/></g>
<g><path style="opacity:0.065" fill="#ececec" d="M 242.5,180.5 C 242.771,182.38 242.104,183.713 240.5,184.5C 240.66,182.847 241.326,181.514 242.5,180.5 Z"/></g>
<g><path style="opacity:0.044" fill="#e7e7e7" d="M 0.5,183.5 C 2.11805,186.171 2.78472,189.171 2.5,192.5C 1.34281,189.727 0.676146,186.727 0.5,183.5 Z"/></g>
<g><path style="opacity:0.033" fill="#dfdfdf" d="M 240.5,185.5 C 240.008,187.819 239.008,189.819 237.5,191.5C 237.461,188.911 238.461,186.911 240.5,185.5 Z"/></g>
<g><path style="opacity:0.537" fill="#c1c1c1" d="M 141.5,184.5 C 140.99,187.674 139.323,190.008 136.5,191.5C 137.786,188.883 139.453,186.55 141.5,184.5 Z"/></g>
<g><path style="opacity:1" fill="#7e7e7e" d="M 2.5,192.5 C 3.30943,193.469 4.30943,194.302 5.5,195C 4.61983,196.356 4.28649,197.856 4.5,199.5C 3.38815,197.401 2.72148,195.067 2.5,192.5 Z"/></g>
<g><path style="opacity:0.532" fill="#eeeeee" d="M 136.5,191.5 C 135.621,193.228 134.954,195.061 134.5,197C 135.551,201.026 137.885,202.026 141.5,200C 143.333,197.5 145.167,195 147,192.5C 148.534,195.595 148.701,198.595 147.5,201.5C 147.66,199.801 147.494,198.134 147,196.5C 145.859,198.609 144.359,200.442 142.5,202C 137.339,204.253 134.339,202.586 133.5,197C 133.124,194.345 134.124,192.512 136.5,191.5 Z"/></g>
<g><path style="opacity:0.361" fill="#d4d4d4" d="M 236.5,193.5 C 236.573,195.027 235.906,196.027 234.5,196.5C 234.427,194.973 235.094,193.973 236.5,193.5 Z"/></g>
<g><path style="opacity:0.164" fill="#f0f0f0" d="M 77.5,198.5 C 79.8218,199.802 81.1551,201.802 81.5,204.5C 79.6736,202.853 78.3403,200.853 77.5,198.5 Z"/></g>
<g><path style="opacity:0.075" fill="#e3e3e3" d="M 147.5,201.5 C 147.5,202.833 146.833,203.5 145.5,203.5C 145.5,202.167 146.167,201.5 147.5,201.5 Z"/></g>
<g><path style="opacity:0.149" fill="#e3e3e3" d="M 233.5,198.5 C 232.92,200.749 231.587,202.415 229.5,203.5C 230.08,201.251 231.413,199.585 233.5,198.5 Z"/></g>
<g><path style="opacity:0.153" fill="#e0e0e0" d="M 145.5,203.5 C 143.745,206.68 141.745,209.68 139.5,212.5C 140.246,208.677 142.246,205.677 145.5,203.5 Z"/></g>
<g><path style="opacity:0.154" fill="#dadada" d="M 159.5,204.5 C 163.639,205.884 166.972,208.218 169.5,211.5C 165.548,209.854 162.215,207.521 159.5,204.5 Z"/></g>
<g><path style="opacity:0.459" fill="#dbdbdb" d="M 81.5,204.5 C 84.2427,206.239 86.2427,208.573 87.5,211.5C 84.7573,209.761 82.7573,207.427 81.5,204.5 Z"/></g>
<g><path style="opacity:0.565" fill="#b6b6b6" d="M 229.5,204.5 C 228.243,207.427 226.243,209.761 223.5,211.5C 224.757,208.573 226.757,206.239 229.5,204.5 Z"/></g>
<g><path style="opacity:0.188" fill="#dbdbdb" d="M 87.5,211.5 C 93.2353,216.25 98.9019,220.916 104.5,225.5C 97.5746,222.23 91.9079,217.564 87.5,211.5 Z"/></g>
<g><path style="opacity:0.498" fill="#afafaf" d="M 139.5,212.5 C 139.446,214.632 138.446,215.965 136.5,216.5C 137.026,214.77 138.026,213.436 139.5,212.5 Z"/></g>
<g><path style="opacity:0.563" fill="#f6f6f6" d="M 169.5,211.5 C 172.342,212.172 174.842,213.506 177,215.5C 179.878,221.277 178.211,224.944 172,226.5C 167.794,224.149 163.627,221.982 159.5,220C 158.184,226.833 158.184,233.666 159.5,240.5C 159.167,240.5 158.833,240.5 158.5,240.5C 157.343,232.344 157.177,224.01 158,215.5C 161.412,218.123 164.912,220.623 168.5,223C 174.697,224.633 177.031,222.466 175.5,216.5C 173.429,214.815 171.429,213.148 169.5,211.5 Z"/></g>
<g><path style="opacity:0.506" fill="#d4d4d4" d="M 223.5,211.5 C 219.022,217.648 213.355,222.314 206.5,225.5C 212.117,220.893 217.784,216.226 223.5,211.5 Z"/></g>
<g><path style="opacity:0.47" fill="#ececec" d="M 148.5,239.5 C 148.167,239.5 147.833,239.5 147.5,239.5C 147.666,233.491 147.499,227.491 147,221.5C 145.527,225.776 142.694,228.776 138.5,230.5C 132.909,229.341 131.076,226.008 133,220.5C 133.708,219.619 134.542,218.953 135.5,218.5C 134.621,220.228 133.954,222.061 133.5,224C 135.377,229.171 138.21,229.671 142,225.5C 143.667,222.833 145.333,220.167 147,217.5C 148.429,224.719 148.929,232.053 148.5,239.5 Z"/></g>
<g><path style="opacity:0.095" fill="#e0e0e0" d="M 9.5,219.5 C 10.913,222.219 11.5797,225.219 11.5,228.5C 9.88195,225.829 9.21528,222.829 9.5,219.5 Z"/></g>
<g><path style="opacity:0.07" fill="#f0f0f0" d="M 104.5,225.5 C 109.032,227.597 113.365,229.931 117.5,232.5C 112.393,231.449 108.059,229.115 104.5,225.5 Z"/></g>
<g><path style="opacity:0.09" fill="#e5e5e5" d="M 206.5,225.5 C 202.941,229.115 198.607,231.449 193.5,232.5C 197.635,229.931 201.968,227.597 206.5,225.5 Z"/></g>
<g><path style="opacity:0.133" fill="#e0e0e0" d="M 11.5,228.5 C 13.0395,230.838 13.7062,233.505 13.5,236.5C 11.9605,234.162 11.2938,231.495 11.5,228.5 Z"/></g>
<g><path style="opacity:0.059" fill="#ededed" d="M 117.5,232.5 C 124.941,234.843 132.274,237.176 139.5,239.5C 138.5,239.5 137.5,239.5 136.5,239.5C 131.289,238.027 125.956,236.527 120.5,235C 119.058,234.623 118.058,233.79 117.5,232.5 Z"/></g>
<g><path style="opacity:0.159" fill="#e2e2e2" d="M 193.5,232.5 C 192.942,233.79 191.942,234.623 190.5,235C 185.126,236.84 179.793,238.34 174.5,239.5C 173.5,239.5 172.5,239.5 171.5,239.5C 171.611,238.883 171.944,238.383 172.5,238C 179.713,236.871 186.713,235.038 193.5,232.5 Z"/></g>
<g><path style="opacity:0.048" fill="#eaeaea" d="M 13.5,237.5 C 14.9238,239.515 15.5905,241.848 15.5,244.5C 14.0762,242.485 13.4095,240.152 13.5,237.5 Z"/></g>
<g><path style="opacity:0.627" fill="#9c9c9c" d="M 136.5,239.5 C 137.5,239.5 138.5,239.5 139.5,239.5C 142.376,239.792 145.043,239.792 147.5,239.5C 147.833,239.5 148.167,239.5 148.5,239.5C 148.038,240.88 147.038,241.547 145.5,241.5C 142.326,241.009 139.326,240.343 136.5,239.5 Z"/></g>
<g><path style="opacity:0.573" fill="#9c9c9c" d="M 171.5,239.5 C 172.5,239.5 173.5,239.5 174.5,239.5C 170.516,240.413 166.349,241.079 162,241.5C 160.615,241.486 159.449,241.152 158.5,240.5C 158.833,240.5 159.167,240.5 159.5,240.5C 163.466,239.838 167.466,239.505 171.5,239.5 Z"/></g>
<g><path style="opacity:0.565" fill="#f5f5f5" d="M 294.5,90.5 C 298.171,95.6328 301.004,101.299 303,107.5C 307.321,120.29 309.821,133.457 310.5,147C 302.038,295.998 249.372,426.498 152.5,538.5C 147.234,541.523 143.567,540.189 141.5,534.5C 145.259,538.458 149.092,538.458 153,534.5C 239.666,432.779 291.332,315.113 308,181.5C 312.551,149.723 308.051,119.389 294.5,90.5 Z"/></g>
<g><path style="opacity:0.176" fill="#d3d3d3" d="M 22.5,272.5 C 24.0739,274.102 24.7406,276.102 24.5,278.5C 22.9261,276.898 22.2594,274.898 22.5,272.5 Z"/></g>
<g><path style="opacity:0.092" fill="#ececec" d="M 24.5,280.5 C 25.9238,282.515 26.5905,284.848 26.5,287.5C 25.0762,285.485 24.4095,283.152 24.5,280.5 Z"/></g>
<g><path style="opacity:0.056" fill="#e2e2e2" d="M 26.5,287.5 C 28.1628,289.438 28.8294,291.772 28.5,294.5C 27.0762,292.485 26.4095,290.152 26.5,287.5 Z"/></g>
<g><path style="opacity:0.082" fill="#d8d8d8" d="M 35.5,318.5 C 37.0739,320.102 37.7406,322.102 37.5,324.5C 35.9261,322.898 35.2594,320.898 35.5,318.5 Z"/></g>
<g><path style="opacity:0.498" fill="#d6d6d6" d="M 37.5,325.5 C 38.9313,326.78 39.5979,328.447 39.5,330.5C 38.0687,329.22 37.4021,327.553 37.5,325.5 Z"/></g>
<g><path style="opacity:0.035" fill="#e6e6e6" d="M 39.5,331.5 C 41.0739,333.102 41.7406,335.102 41.5,337.5C 39.9261,335.898 39.2594,333.898 39.5,331.5 Z"/></g>
<g><path style="opacity:0.092" fill="#e7e7e7" d="M 48.5,357.5 C 49.7384,359.214 50.405,361.214 50.5,363.5C 48.9261,361.898 48.2594,359.898 48.5,357.5 Z"/></g>
<g><path style="opacity:0.584" fill="#cdcdcd" d="M 50.5,363.5 C 52.0739,365.102 52.7406,367.102 52.5,369.5C 51.2616,367.786 50.595,365.786 50.5,363.5 Z"/></g>
<g><path style="opacity:0.076" fill="#efefef" d="M 52.5,369.5 C 53.9313,370.78 54.5979,372.447 54.5,374.5C 53.0687,373.22 52.4021,371.553 52.5,369.5 Z"/></g>
<g><path style="opacity:0.525" fill="#d4d4d4" d="M 54.5,374.5 C 56.2132,375.635 56.8799,377.302 56.5,379.5C 55.4625,378.07 54.7959,376.403 54.5,374.5 Z"/></g>
<g><path style="opacity:0.147" fill="#e3e3e3" d="M 59.5,386.5 C 61.2927,388.426 62.2927,390.759 62.5,393.5C 60.7073,391.574 59.7073,389.241 59.5,386.5 Z"/></g>
<g><path style="opacity:0.037" fill="#e9e9e9" d="M 62.5,393.5 C 63.9313,394.78 64.5979,396.447 64.5,398.5C 63.0687,397.22 62.4021,395.553 62.5,393.5 Z"/></g>
<g><path style="opacity:0.065" fill="#ececec" d="M 65.5,400.5 C 67.6246,403.088 68.9579,406.088 69.5,409.5C 67.3754,406.912 66.0421,403.912 65.5,400.5 Z"/></g>
<g><path style="opacity:0.365" fill="#e4e4e4" d="M 69.5,409.5 C 71.1042,410.287 71.7709,411.62 71.5,413.5C 70.3263,412.486 69.6596,411.153 69.5,409.5 Z"/></g>
<g><path style="opacity:0.057" fill="#f9f9f9" d="M 76.5,423.5 C 77.6737,424.514 78.3404,425.847 78.5,427.5C 76.8958,426.713 76.2291,425.38 76.5,423.5 Z"/></g>
<g><path style="opacity:0.051" fill="#f8f8f8" d="M 78.5,427.5 C 80.6744,430.515 82.3411,433.849 83.5,437.5C 80.7933,434.753 79.1266,431.42 78.5,427.5 Z"/></g>
<g><path style="opacity:0.124" fill="#f2f2f2" d="M 85.5,441.5 C 87.588,443.336 88.9213,445.669 89.5,448.5C 87.412,446.664 86.0787,444.331 85.5,441.5 Z"/></g>
<g><path style="opacity:0.16" fill="#f0f0f0" d="M 89.5,448.5 C 91.588,450.336 92.9213,452.669 93.5,455.5C 91.3311,453.66 89.9977,451.326 89.5,448.5 Z"/></g>
<g><path style="opacity:0.071" fill="#f4f4f4" d="M 93.5,455.5 C 94.6737,456.514 95.3404,457.847 95.5,459.5C 93.8958,458.713 93.2291,457.38 93.5,455.5 Z"/></g>
<g><path style="opacity:0.067" fill="#ececec" d="M 99.5,466.5 C 102.623,469.976 104.957,473.976 106.5,478.5C 103.377,475.024 101.043,471.024 99.5,466.5 Z"/></g>
<g><path style="opacity:0.204" fill="#efefef" d="M 106.5,478.5 C 107.906,478.973 108.573,479.973 108.5,481.5C 107.094,481.027 106.427,480.027 106.5,478.5 Z"/></g>
<g><path style="opacity:0.235" fill="#e4e4e4" d="M 108.5,481.5 C 110.25,482.659 111.25,484.326 111.5,486.5C 109.75,485.341 108.75,483.674 108.5,481.5 Z"/></g>
<g><path style="opacity:0.169" fill="#e3e3e3" d="M 111.5,486.5 C 112.906,486.973 113.573,487.973 113.5,489.5C 112.094,489.027 111.427,488.027 111.5,486.5 Z"/></g>
<g><path style="opacity:0.147" fill="#f6f6f6" d="M 113.5,489.5 C 115.588,491.336 116.921,493.669 117.5,496.5C 115.331,494.66 113.998,492.326 113.5,489.5 Z"/></g>
<g><path style="opacity:0.161" fill="#e6e6e6" d="M 117.5,496.5 C 119.326,498.147 120.66,500.147 121.5,502.5C 118.956,501.292 117.622,499.292 117.5,496.5 Z"/></g>
<g><path style="opacity:0.306" fill="#e4e4e4" d="M 122.5,504.5 C 123.906,504.973 124.573,505.973 124.5,507.5C 123.094,507.027 122.427,506.027 122.5,504.5 Z"/></g>
<g><path style="opacity:0.129" fill="#f4f4f4" d="M 124.5,507.5 C 127,510.494 129,513.827 130.5,517.5C 127.498,514.839 125.498,511.505 124.5,507.5 Z"/></g>
<g><path style="opacity:0.147" fill="#f7f7f7" d="M 130.5,517.5 C 131.906,517.973 132.573,518.973 132.5,520.5C 131.094,520.027 130.427,519.027 130.5,517.5 Z"/></g>
<g><path style="opacity:0.271" fill="#f6f6f6" d="M 132.5,520.5 C 133.906,520.973 134.573,521.973 134.5,523.5C 133.094,523.027 132.427,522.027 132.5,520.5 Z"/></g>
<g><path style="opacity:0.114" fill="#ececec" d="M 134.5,523.5 C 136.522,525.531 138.189,527.865 139.5,530.5C 136.736,529.052 135.069,526.719 134.5,523.5 Z"/></g>
<g><path style="opacity:0.216" fill="#f7f7f7" d="M 139.5,531.5 C 140.906,531.973 141.573,532.973 141.5,534.5C 140.094,534.027 139.427,533.027 139.5,531.5 Z"/></g>
<g><path style="opacity:0.04" fill="#fbfbfb" d="M 150.5,559.5 C 148.833,559.5 147.167,559.5 145.5,559.5C 147.167,556.833 148.833,556.833 150.5,559.5 Z"/></g>
<g><path style="opacity:1" fill="#050505" d="M 152.5,578.5 C 148.833,578.5 145.167,578.5 141.5,578.5C 138.519,575.865 137.186,572.532 137.5,568.5C 137.5,567.833 137.5,567.167 137.5,566.5C 138.803,564.858 140.136,563.191 141.5,561.5C 152.99,557.799 158.157,561.799 157,573.5C 155.975,575.687 154.475,577.354 152.5,578.5 Z"/></g>
<g><path style="opacity:0.347" fill="#d3d3d3" d="M 145.5,559.5 C 147.167,559.5 148.833,559.5 150.5,559.5C 154.987,559.82 157.82,562.153 159,566.5C 160.112,570.981 159.279,574.981 156.5,578.5C 155.167,578.5 153.833,578.5 152.5,578.5C 154.475,577.354 155.975,575.687 157,573.5C 158.157,561.799 152.99,557.799 141.5,561.5C 142.514,560.326 143.847,559.66 145.5,559.5 Z"/></g>
<g><path style="opacity:0.314" fill="#e7e7e7" d="M 141.5,561.5 C 140.136,563.191 138.803,564.858 137.5,566.5C 137.369,563.633 138.703,561.967 141.5,561.5 Z"/></g>
<g><path style="opacity:0.506" fill="#e7e7e7" d="M 137.5,568.5 C 137.186,572.532 138.519,575.865 141.5,578.5C 140.833,578.5 140.167,578.5 139.5,578.5C 136.665,575.47 135.998,572.136 137.5,568.5 Z"/></g>
</svg>
