<?xml version="1.0" standalone="no"?>
<!DOCTYPE svg PUBLIC "-//W3C//DTD SVG 20010904//EN"
 "http://www.w3.org/TR/2001/REC-SVG-20010904/DTD/svg10.dtd">
<svg version="1.0" xmlns="http://www.w3.org/2000/svg"
 width="351.000000pt" height="500.000000pt" viewBox="0 0 351.000000 500.000000"
 preserveAspectRatio="xMidYMid meet">

<g transform="translate(0.000000,500.000000) scale(0.100000,-0.100000)"
fill="#000000" stroke="none">
<path d="M1130 4915 c-14 -8 -48 -14 -77 -15 -28 0 -55 -4 -58 -10 -3 -5 -21
-10 -39 -10 -19 0 -39 -7 -46 -15 -7 -8 -25 -15 -41 -15 -15 0 -31 -4 -34 -10
-3 -5 -17 -10 -30 -10 -12 0 -25 -7 -29 -15 -3 -8 -15 -15 -26 -15 -11 0 -20
-4 -20 -10 0 -5 -11 -10 -24 -10 -13 0 -26 -7 -30 -15 -3 -8 -15 -15 -26 -15
-11 0 -20 -4 -20 -10 0 -5 -6 -10 -13 -10 -7 0 -24 -11 -39 -25 -15 -14 -31
-25 -36 -25 -6 0 -12 -7 -16 -15 -3 -8 -10 -15 -16 -15 -6 0 -21 -9 -33 -20
-12 -12 -43 -40 -69 -63 -56 -51 -173 -198 -196 -247 -9 -19 -19 -37 -22 -40
-6 -5 -47 -91 -61 -127 -5 -13 -13 -33 -18 -45 -4 -13 -13 -34 -19 -48 -18
-41 -40 -158 -51 -274 -9 -88 -8 -135 5 -245 9 -74 20 -143 25 -153 5 -9 9
-26 9 -37 0 -12 4 -29 9 -39 5 -9 15 -37 22 -62 7 -25 26 -69 41 -99 15 -29
28 -58 28 -65 0 -6 10 -22 21 -36 11 -14 38 -52 61 -85 23 -33 48 -67 57 -76
9 -8 32 -34 51 -57 19 -23 37 -42 40 -42 4 0 29 -20 56 -45 53 -49 205 -155
222 -155 6 0 12 -4 14 -8 6 -15 155 -72 263 -100 126 -33 280 -46 405 -33 47
4 89 5 94 1 8 -8 74 10 133 36 30 14 34 13 54 -7 26 -26 120 -165 137 -202 7
-16 9 -34 6 -40 -16 -28 -49 -57 -65 -57 -10 0 -26 -12 -37 -27 -22 -32 -18
-50 26 -116 15 -23 50 -87 77 -142 28 -55 52 -102 55 -105 3 -3 12 -18 20 -35
8 -16 26 -48 40 -70 14 -22 31 -51 37 -65 20 -46 70 -144 98 -195 50 -90 84
-160 85 -172 0 -7 4 -13 8 -13 5 0 22 -26 39 -57 17 -32 55 -105 86 -163 30
-58 70 -132 87 -165 17 -33 36 -64 41 -70 5 -5 9 -17 9 -26 0 -10 3 -19 8 -21
4 -2 15 -19 24 -38 10 -19 30 -55 44 -80 15 -25 39 -67 54 -95 15 -27 38 -70
52 -95 42 -77 45 -84 58 -115 20 -49 66 -134 81 -150 5 -5 9 -16 9 -25 0 -9
15 -33 33 -54 29 -34 37 -37 82 -38 28 0 69 4 90 10 22 5 84 18 138 28 l98 18
77 86 c180 198 182 201 182 260 0 43 -8 69 -41 134 -78 150 -110 211 -120 221
-5 5 -9 15 -9 23 0 8 -9 26 -20 42 -16 23 -63 111 -178 335 -8 17 -20 39 -25
50 -6 11 -31 58 -55 105 -24 47 -52 99 -62 115 -18 30 -68 126 -220 420 -42
83 -88 170 -102 195 -14 25 -62 117 -107 205 -46 88 -92 170 -104 183 -28 30
-88 30 -130 0 -42 -30 -76 -48 -93 -48 -13 0 -64 60 -64 75 0 4 -18 31 -39 59
-22 28 -42 67 -46 86 -6 34 -4 38 84 118 203 186 335 425 387 700 13 68 15
125 11 262 -3 96 -9 189 -15 205 -5 17 -15 55 -22 85 -12 50 -36 116 -61 162
-5 10 -9 22 -9 28 0 16 -73 132 -137 217 -62 83 -196 223 -213 223 -6 0 -13 7
-16 15 -4 8 -12 15 -19 15 -6 0 -24 11 -39 25 -15 14 -31 25 -37 25 -5 0 -9 5
-9 10 0 6 -6 10 -14 10 -7 0 -19 7 -26 15 -7 8 -21 15 -31 15 -10 0 -39 11
-65 25 -26 14 -53 25 -60 25 -8 0 -14 5 -14 10 0 6 -13 10 -29 10 -16 0 -34 6
-40 14 -7 8 -33 17 -59 20 -26 3 -77 9 -114 13 -37 5 -73 14 -80 21 -18 18
-225 16 -258 -3z m275 -110 c227 -32 361 -87 540 -221 114 -86 223 -196 264
-267 13 -23 31 -53 41 -67 30 -44 91 -200 111 -285 6 -22 15 -60 21 -85 20
-81 10 -431 -13 -454 -5 -6 -9 -22 -9 -37 0 -15 -4 -31 -10 -34 -5 -3 -10 -16
-10 -29 0 -12 -4 -26 -8 -31 -5 -6 -15 -26 -22 -45 -27 -71 -86 -186 -115
-225 -52 -69 -59 -77 -129 -151 -37 -40 -81 -79 -97 -86 -16 -7 -29 -16 -29
-20 0 -4 -17 -15 -37 -25 -21 -9 -46 -26 -56 -36 -10 -10 -28 -22 -40 -27 -12
-6 -29 -14 -37 -18 -42 -24 -61 -32 -79 -32 -10 0 -21 -7 -25 -15 -3 -8 -16
-15 -30 -15 -14 0 -28 -4 -31 -10 -3 -5 -28 -10 -54 -10 -27 0 -65 -7 -84 -15
-49 -20 -308 -21 -392 0 -33 8 -77 14 -97 15 -21 0 -38 5 -38 10 0 6 -13 10
-29 10 -17 0 -32 4 -36 9 -7 12 -64 41 -80 41 -7 0 -18 7 -25 15 -7 8 -23 15
-36 15 -13 0 -24 5 -24 10 0 6 -7 10 -15 10 -7 0 -18 6 -22 13 -4 6 -21 19
-38 27 -16 8 -52 36 -79 63 -27 26 -51 47 -53 47 -12 0 -140 146 -162 184 -73
127 -113 211 -139 296 -50 156 -56 196 -56 360 0 126 5 172 23 245 56 230 145
391 305 551 105 104 209 175 342 234 109 48 174 66 299 85 120 17 171 17 290
0z m511 -2211 c14 -10 33 -33 43 -53 10 -20 32 -62 49 -94 31 -57 31 -59 14
-85 -26 -40 -54 -61 -83 -62 -26 0 -69 29 -69 47 0 5 -20 33 -45 62 -25 29
-48 65 -51 79 -4 15 -11 32 -16 39 -9 12 -3 16 92 64 43 22 36 22 66 3z m410
-229 c19 -12 52 -73 86 -155 18 -44 65 -130 79 -145 5 -5 9 -15 9 -23 0 -7 13
-32 28 -55 15 -23 37 -62 47 -87 10 -25 32 -64 47 -87 15 -23 28 -49 28 -57 0
-9 5 -16 10 -16 6 0 10 -6 10 -13 0 -7 14 -34 30 -60 17 -26 30 -54 30 -62 0
-8 3 -15 8 -15 4 0 12 -17 19 -37 10 -32 9 -43 -6 -68 -9 -16 -27 -31 -39 -33
-12 -2 -22 -8 -22 -13 0 -5 -7 -9 -16 -9 -8 0 -30 -11 -48 -25 -18 -14 -40
-25 -48 -25 -9 0 -18 -7 -22 -15 -3 -8 -12 -15 -21 -15 -8 0 -15 -4 -15 -10 0
-5 -9 -10 -20 -10 -11 0 -20 -4 -20 -10 0 -5 -17 -17 -37 -27 -21 -9 -42 -21
-48 -25 -5 -5 -23 -20 -40 -33 -16 -14 -34 -25 -38 -25 -25 0 -51 29 -83 93
-20 39 -54 100 -75 135 -22 35 -39 70 -39 77 0 7 -3 15 -7 17 -5 2 -26 39 -49
83 -85 166 -158 301 -176 327 -10 14 -18 31 -18 38 0 7 -8 24 -18 38 -21 30
-47 91 -41 96 5 3 391 217 444 245 47 25 45 25 71 6z m495 -947 c33 -43 48
-71 49 -85 0 -20 -61 -83 -81 -83 -10 0 -19 -4 -19 -10 0 -5 -9 -10 -19 -10
-11 0 -21 -5 -23 -11 -4 -12 -70 -55 -100 -65 -10 -4 -18 -10 -18 -15 0 -5 -5
-9 -11 -9 -6 0 -39 -22 -73 -49 -106 -84 -158 -78 -190 24 -9 31 -16 58 -14
60 2 1 78 48 170 103 92 56 196 119 230 141 35 22 66 41 69 41 3 0 16 -14 30
-32z m107 -195 c21 -25 32 -48 32 -69 0 -40 -20 -59 -117 -109 -18 -10 -33
-20 -33 -24 0 -11 -89 -71 -105 -71 -8 0 -15 -4 -15 -10 0 -5 -5 -10 -11 -10
-11 0 -34 -18 -90 -72 -40 -39 -90 -39 -118 1 -12 16 -21 34 -21 40 0 7 -7 22
-15 35 -15 23 -15 24 47 63 92 59 327 211 368 239 19 13 37 24 40 24 3 0 20
-17 38 -37z m77 -162 c3 -11 12 -22 20 -25 8 -3 15 -12 15 -21 0 -8 5 -23 11
-33 13 -21 -14 -78 -46 -96 -10 -6 -24 -14 -29 -19 -87 -63 -168 -117 -176
-117 -6 0 -10 -4 -10 -10 0 -5 -9 -10 -19 -10 -10 0 -21 -7 -25 -15 -3 -8 -12
-15 -20 -15 -8 0 -16 -4 -18 -8 -6 -14 -75 -62 -90 -62 -8 0 -23 10 -34 23
-25 28 -57 109 -46 116 15 10 335 234 391 273 62 44 67 45 76 19z m120 -218
c39 -62 40 -116 4 -147 -67 -56 -114 -92 -138 -106 -14 -8 -30 -21 -34 -27 -4
-7 -15 -13 -22 -13 -8 0 -15 -4 -15 -10 0 -5 -6 -10 -13 -10 -7 0 -20 -8 -29
-17 -8 -10 -39 -40 -67 -66 -41 -39 -55 -47 -73 -41 -29 9 -59 46 -79 98 -9
23 -19 48 -23 56 -4 11 55 57 222 172 125 86 229 157 232 157 3 1 18 -20 35
-46z m99 -190 c11 -15 26 -37 32 -48 6 -11 16 -31 24 -45 27 -52 30 -61 30
-104 0 -40 -5 -49 -62 -110 -35 -36 -76 -81 -91 -100 -29 -36 -77 -66 -107
-66 -10 0 -34 -7 -53 -15 -56 -23 -132 -20 -157 7 -11 12 -20 26 -20 30 0 5
-8 21 -17 35 -17 25 -43 89 -43 105 0 6 44 41 336 266 52 39 97 72 100 72 4 0
16 -12 28 -27z"/>
<path d="M1100 4515 c-14 -8 -35 -14 -47 -15 -12 0 -25 -4 -28 -10 -3 -5 -21
-10 -40 -10 -32 0 -96 -26 -103 -42 -2 -5 -7 -8 -11 -8 -13 0 -142 -87 -189
-127 -60 -51 -137 -161 -195 -278 -11 -22 -23 -48 -28 -57 -5 -10 -9 -27 -9
-37 0 -11 -4 -22 -9 -25 -5 -3 -12 -25 -16 -48 -10 -57 -11 -325 -1 -363 19
-79 31 -115 57 -173 16 -35 29 -65 29 -68 0 -24 171 -211 243 -267 16 -12 34
-27 40 -33 29 -25 109 -65 197 -96 94 -32 98 -33 270 -33 156 0 182 2 245 23
318 105 530 337 602 657 20 93 20 270 -1 359 -30 123 -89 250 -153 326 -10 12
-25 30 -33 40 -8 9 -26 32 -39 49 -23 29 -113 101 -128 101 -3 0 -21 11 -39
25 -18 14 -37 25 -43 25 -6 0 -11 5 -11 10 0 6 -8 10 -18 10 -10 0 -27 7 -38
15 -10 8 -34 15 -52 15 -18 0 -40 4 -50 9 -9 5 -39 16 -67 25 -66 21 -298 22
-335 1z m337 -36 c13 -5 37 -9 53 -9 16 0 31 -4 34 -9 3 -4 40 -23 83 -42 129
-55 314 -222 365 -329 52 -108 75 -167 87 -220 7 -30 17 -71 22 -91 12 -47 12
-174 0 -213 -6 -17 -15 -58 -22 -91 -7 -33 -21 -81 -30 -107 -18 -51 -99 -192
-133 -231 -11 -13 -32 -39 -46 -57 -34 -45 -69 -77 -105 -95 -16 -9 -43 -24
-60 -35 -16 -10 -37 -19 -46 -19 -9 -1 -37 -12 -63 -26 -29 -16 -63 -25 -90
-25 -24 0 -61 -7 -82 -16 -32 -13 -65 -15 -179 -12 -82 3 -153 10 -170 18 -16
7 -44 19 -62 27 -18 7 -35 18 -38 23 -3 6 -17 10 -31 10 -13 0 -24 5 -24 10 0
6 -10 10 -23 10 -25 0 -57 20 -98 60 -15 14 -37 34 -50 46 -135 118 -239 310
-269 497 -42 256 45 522 230 707 124 124 300 210 480 233 51 7 238 -3 267 -14z"/>
<path d="M872 4188 c-9 -9 -12 -120 -12 -439 0 -234 3 -441 6 -458 6 -30 8
-31 61 -31 l54 0 -21 30 c-12 17 -30 30 -41 30 -18 0 -19 8 -19 156 l0 155 55
-38 c83 -58 135 -163 135 -275 l0 -58 320 0 320 0 0 50 c0 28 -6 66 -14 84
-17 40 -64 86 -89 86 -9 0 -25 4 -35 9 -16 8 -104 28 -168 38 -36 6 -118 70
-149 116 -39 58 -45 105 -45 324 l0 211 -137 1 c-77 0 -141 5 -147 11 -14 14
-59 13 -74 -2z m273 -47 c29 -6 1 -9 -102 -10 -90 -1 -143 3 -143 9 0 12 187
13 245 1z m35 -85 c0 -14 -5 -37 -11 -53 -7 -19 -7 -29 0 -31 6 -2 11 -10 11
-18 0 -15 -19 -18 -87 -14 -40 2 -43 0 -43 -24 0 -23 4 -26 35 -26 19 0 35 4
35 9 0 5 11 4 25 -2 45 -21 30 -37 -35 -37 l-60 0 0 -30 c0 -34 15 -38 58 -16
41 21 59 2 93 -101 17 -48 37 -98 44 -109 21 -33 129 -101 188 -118 52 -15 52
-15 51 -54 -2 -61 -13 -105 -33 -129 -18 -22 -27 -23 -145 -23 -79 0 -126 4
-126 10 0 6 -10 15 -22 21 -18 8 -23 19 -24 49 -2 52 -29 129 -56 162 -13 15
-36 43 -51 62 -15 20 -38 38 -51 42 -13 3 -29 17 -35 30 -6 14 -18 27 -26 30
-13 5 -15 36 -15 200 l0 194 140 0 140 0 0 -24z m434 -616 c30 -11 53 -44 62
-88 5 -26 2 -36 -17 -52 -29 -23 -62 -26 -79 -5 -7 8 -28 15 -46 15 -32 0 -33
1 -28 33 3 17 12 51 21 75 16 46 21 48 87 22z"/>
<path d="M1050 3995 c0 -20 5 -25 25 -25 23 0 24 2 13 25 -6 14 -17 25 -25 25
-7 0 -13 -11 -13 -25z"/>
<path d="M866 3214 c-8 -20 -8 -68 0 -88 5 -14 52 -16 425 -16 403 0 419 1
429 19 11 22 13 61 4 85 -10 25 -231 23 -249 -1 -13 -17 -14 -17 -32 0 -18 15
-48 17 -295 17 -242 0 -277 -2 -282 -16z m802 -49 c3 -3 -166 -5 -376 -5 -210
0 -382 3 -382 8 0 8 750 6 758 -3z"/>
</g>
</svg>
