<?xml version="1.0" encoding="UTF-8"?>
<!DOCTYPE svg PUBLIC "-//W3C//DTD SVG 1.1//EN" "http://www.w3.org/Graphics/SVG/1.1/DTD/svg11.dtd">
<svg xmlns="http://www.w3.org/2000/svg" version="1.1" width="351px" height="495px" style="shape-rendering:geometricPrecision; text-rendering:geometricPrecision; image-rendering:optimizeQuality; fill-rule:evenodd; clip-rule:evenodd" xmlns:xlink="http://www.w3.org/1999/xlink">
<g><path style="opacity:0.059" fill="#e9e9e9" d="M 191.5,5.5 C 186.575,2.66764 181.242,1.83431 175.5,3C 171.448,4.68582 167.781,6.85249 164.5,9.5C 171.233,1.08783 179.566,-1.07884 189.5,3C 190.381,3.7083 191.047,4.54163 191.5,5.5 Z"/></g>
<g><path style="opacity:1" fill="#060606" d="M 191.5,5.5 C 202.846,18.8586 210.513,34.1919 214.5,51.5C 214.747,52.7133 215.414,53.38 216.5,53.5C 227.394,54.4165 238.394,54.7499 249.5,54.5C 274.995,55.4978 300.661,55.8311 326.5,55.5C 327.167,55.8333 327.833,56.1667 328.5,56.5C 358.976,94.7038 352.976,125.204 310.5,148C 306.24,149.308 302.074,150.808 298,152.5C 297.333,153.167 297.333,153.833 298,154.5C 300.188,157.567 302.355,160.567 304.5,163.5C 305.41,166.992 307.076,169.992 309.5,172.5C 363.941,274.111 357.274,371.278 289.5,464C 204.754,504.976 122.754,500.31 43.5,450C 40.7148,447.069 38.3815,443.902 36.5,440.5C 35.3263,439.486 34.6596,438.153 34.5,436.5C 34.3404,434.847 33.6737,433.514 32.5,432.5C 32.3404,430.847 31.6737,429.514 30.5,428.5C 29.6176,424.407 27.951,420.74 25.5,417.5C 25.5979,415.447 24.9313,413.78 23.5,412.5C 21.2725,408.043 19.6058,403.376 18.5,398.5C 18.7406,396.102 18.0739,394.102 16.5,392.5C 16.5905,389.848 15.9238,387.515 14.5,385.5C 14.5,385.167 14.5,384.833 14.5,384.5C 14.5905,381.848 13.9238,379.515 12.5,377.5C 12.5,377.167 12.5,376.833 12.5,376.5C 12.4349,373.572 11.7682,370.905 10.5,368.5C 10.5,368.167 10.5,367.833 10.5,367.5C 10.8412,363.84 10.1745,360.507 8.5,357.5C 4.54213,333.153 4.54213,308.82 8.5,284.5C 9.98914,280.764 10.6558,276.764 10.5,272.5C 10.5,271.833 10.5,271.167 10.5,270.5C 11.9238,268.485 12.5905,266.152 12.5,263.5C 12.5,263.167 12.5,262.833 12.5,262.5C 13.9238,260.485 14.5905,258.152 14.5,255.5C 14.5,255.167 14.5,254.833 14.5,254.5C 16.0739,252.898 16.7406,250.898 16.5,248.5C 16.5,248.167 16.5,247.833 16.5,247.5C 17.9238,245.485 18.5905,243.152 18.5,240.5C 18.3284,239.508 18.6618,238.842 19.5,238.5C 21.0739,236.898 21.7406,234.898 21.5,232.5C 22.6737,231.486 23.3404,230.153 23.5,228.5C 23.5,228.167 23.5,227.833 23.5,227.5C 24.7384,225.786 25.405,223.786 25.5,221.5C 27.2132,220.365 27.8799,218.698 27.5,216.5C 29.1042,215.713 29.7709,214.38 29.5,212.5C 31.0667,207.039 33.4,202.039 36.5,197.5C 37.6737,196.486 38.3404,195.153 38.5,193.5C 38.6596,191.847 39.3263,190.514 40.5,189.5C 41.6737,188.486 42.3404,187.153 42.5,185.5C 42.3284,184.508 42.6618,183.842 43.5,183.5C 44.9063,183.027 45.573,182.027 45.5,180.5C 46.6737,179.486 47.3404,178.153 47.5,176.5C 48.9063,176.027 49.573,175.027 49.5,173.5C 50.9063,173.027 51.573,172.027 51.5,170.5C 51.3284,169.508 51.6618,168.842 52.5,168.5C 53.9063,168.027 54.573,167.027 54.5,165.5C 57.7747,163.627 58.7747,160.96 57.5,157.5C 47.2846,154.208 37.2846,150.542 27.5,146.5C 23.4109,139.985 19.0776,133.651 14.5,127.5C 14.3404,125.847 13.6737,124.514 12.5,123.5C 8.10021,114.702 6.76687,105.369 8.5,95.5C 9.92381,93.4855 10.5905,91.1522 10.5,88.5C 11.3257,85.5152 12.659,82.8485 14.5,80.5C 16.2624,79.7377 17.2624,78.4044 17.5,76.5C 19.1667,75.5 20.5,74.1667 21.5,72.5C 22.5,72.1667 23.1667,71.5 23.5,70.5C 29.0869,67.21 34.0869,63.21 38.5,58.5C 40.7933,57.1722 43.1267,55.8389 45.5,54.5C 76.5,54.5 107.5,54.5 138.5,54.5C 138.5,53.5 138.5,52.5 138.5,51.5C 138.796,49.597 139.463,47.9303 140.5,46.5C 142.104,45.713 142.771,44.3797 142.5,42.5C 144.245,40.9674 145.245,38.9674 145.5,36.5C 147.588,34.6644 148.921,32.3311 149.5,29.5C 151.262,28.7377 152.262,27.4044 152.5,25.5C 152.733,23.9382 153.4,22.6049 154.5,21.5C 156.587,20.4154 157.92,18.7488 158.5,16.5C 161.243,14.7607 163.243,12.4274 164.5,9.5C 167.781,6.85249 171.448,4.68582 175.5,3C 181.242,1.83431 186.575,2.66764 191.5,5.5 Z M 187.5,28.5 C 188.167,29.8333 189.167,30.8333 190.5,31.5C 190.5,32.1667 190.833,32.5 191.5,32.5C 191.427,34.0269 192.094,35.0269 193.5,35.5C 193.427,37.0269 194.094,38.0269 195.5,38.5C 197.008,42.8491 199.008,46.8491 201.5,50.5C 201.5,51.5 201.5,52.5 201.5,53.5C 185.153,53.8328 168.82,53.4994 152.5,52.5C 157.305,43.8843 163.305,36.2177 170.5,29.5C 176.137,26.6238 181.803,26.2905 187.5,28.5 Z M 95.5,73.5 C 95.5,73.8333 95.5,74.1667 95.5,74.5C 94.0687,75.7804 93.4021,77.4471 93.5,79.5C 93.5,79.8333 93.5,80.1667 93.5,80.5C 91.8958,81.287 91.2291,82.6203 91.5,84.5C 90.8902,85.391 90.5569,86.391 90.5,87.5C 88.9261,89.1016 88.2594,91.1016 88.5,93.5C 87.0762,95.5145 86.4095,97.8478 86.5,100.5C 86.5,100.833 86.5,101.167 86.5,101.5C 85.0762,103.515 84.4095,105.848 84.5,108.5C 84.5,108.833 84.5,109.167 84.5,109.5C 83.087,112.219 82.4203,115.219 82.5,118.5C 82.5,119.167 82.5,119.833 82.5,120.5C 80.8255,123.507 80.1588,126.84 80.5,130.5C 79.0897,134.705 78.423,139.038 78.5,143.5C 63.8333,143.5 49.1667,143.5 34.5,143.5C 25.7801,113.749 30.4468,86.4156 48.5,61.5C 65.4526,60.5143 82.4526,60.181 99.5,60.5C 98.1667,64.8333 96.8333,69.1667 95.5,73.5 Z M 114.5,61.5 C 114.5,61.8333 114.5,62.1667 114.5,62.5C 112.926,64.1016 112.259,66.1016 112.5,68.5C 111.262,70.2143 110.595,72.2143 110.5,74.5C 108.926,76.1016 108.259,78.1016 108.5,80.5C 108.5,81.1667 108.5,81.8333 108.5,82.5C 107.069,83.7804 106.402,85.4471 106.5,87.5C 104.971,90.9909 103.971,94.6575 103.5,98.5C 102.525,101.311 101.858,104.311 101.5,107.5C 101.5,107.833 101.5,108.167 101.5,108.5C 99.8819,111.171 99.2153,114.171 99.5,117.5C 99.5,117.833 99.5,118.167 99.5,118.5C 98.0109,122.236 97.3442,126.236 97.5,130.5C 97.5,131.167 97.5,131.833 97.5,132.5C 96.5975,135.997 95.9309,139.663 95.5,143.5C 94.2227,142.306 93.5561,140.64 93.5,138.5C 96.3054,112.372 101.305,86.7057 108.5,61.5C 110.516,60.3058 112.516,60.3058 114.5,61.5 Z M 223.5,62.5 C 225.235,69.4769 227.569,76.1436 230.5,82.5C 230.402,84.5529 231.069,86.2196 232.5,87.5C 232.5,87.8333 232.5,88.1667 232.5,88.5C 232.595,90.7857 233.262,92.7857 234.5,94.5C 234.5,94.8333 234.5,95.1667 234.5,95.5C 234.595,97.7857 235.262,99.7857 236.5,101.5C 237.007,105.083 238.007,108.417 239.5,111.5C 239.41,114.152 240.076,116.485 241.5,118.5C 241.5,119.167 241.5,119.833 241.5,120.5C 241.111,123.553 241.777,126.22 243.5,128.5C 243.5,128.833 243.5,129.167 243.5,129.5C 243.116,133.489 243.783,137.155 245.5,140.5C 245.567,141.959 245.234,143.292 244.5,144.5C 198.726,144.123 153.059,143.79 107.5,143.5C 109.475,115.359 114.142,87.6924 121.5,60.5C 154.835,60.3333 188.168,60.5 221.5,61C 222.044,61.7172 222.711,62.2172 223.5,62.5 Z M 239.5,60.5 C 239.66,62.153 240.326,63.4863 241.5,64.5C 241.595,66.7857 242.262,68.7857 243.5,70.5C 243.595,72.7857 244.262,74.7857 245.5,76.5C 245.402,78.5529 246.069,80.2196 247.5,81.5C 247.935,84.1573 248.935,86.4907 250.5,88.5C 250.259,90.8984 250.926,92.8984 252.5,94.5C 252.5,94.8333 252.5,95.1667 252.5,95.5C 252.259,97.8984 252.926,99.8984 254.5,101.5C 254.5,101.833 254.5,102.167 254.5,102.5C 254.171,105.228 254.837,107.562 256.5,109.5C 256.294,112.495 256.96,115.162 258.5,117.5C 258.5,117.833 258.5,118.167 258.5,118.5C 258.565,121.428 259.232,124.095 260.5,126.5C 261.222,132.225 262.222,137.892 263.5,143.5C 261.167,143.5 258.833,143.5 256.5,143.5C 253.743,125.394 249.243,107.727 243,90.5C 239.573,81.0442 235.406,72.0442 230.5,63.5C 230.5,62.5 230.5,61.5 230.5,60.5C 233.5,60.5 236.5,60.5 239.5,60.5 Z M 315.5,61.5 C 315.5,62.8333 316.167,63.5 317.5,63.5C 320.117,68.1141 323.117,72.4474 326.5,76.5C 326.229,78.3797 326.896,79.713 328.5,80.5C 328.402,82.5529 329.069,84.2196 330.5,85.5C 330.802,88.3725 331.469,91.0392 332.5,93.5C 332.5,96.8333 332.5,100.167 332.5,103.5C 331.076,105.515 330.41,107.848 330.5,110.5C 330.5,110.833 330.5,111.167 330.5,111.5C 329.069,112.78 328.402,114.447 328.5,116.5C 327.069,117.78 326.402,119.447 326.5,121.5C 324.331,123.34 322.998,125.674 322.5,128.5C 318.464,132.534 314.798,136.868 311.5,141.5C 301.02,143.398 290.353,144.065 279.5,143.5C 276.73,125.616 271.896,108.283 265,91.5C 263.058,87.9311 260.892,84.5978 258.5,81.5C 256.13,74.4161 252.797,67.7494 248.5,61.5C 270.869,60.1883 293.202,60.1883 315.5,61.5 Z M 293.5,159.5 C 293.259,161.898 293.926,163.898 295.5,165.5C 297.381,172.711 299.715,179.711 302.5,186.5C 302.259,188.898 302.926,190.898 304.5,192.5C 304.5,192.833 304.5,193.167 304.5,193.5C 304.41,196.152 305.076,198.485 306.5,200.5C 306.5,200.833 306.5,201.167 306.5,201.5C 306.41,204.152 307.076,206.485 308.5,208.5C 309.04,212.963 310.04,217.297 311.5,221.5C 311.42,224.781 312.087,227.781 313.5,230.5C 313.5,231.167 313.5,231.833 313.5,232.5C 313.646,236.387 314.313,240.054 315.5,243.5C 315.5,244.167 315.5,244.833 315.5,245.5C 315.444,250.731 316.111,255.731 317.5,260.5C 317.5,260.833 317.5,261.167 317.5,261.5C 317.788,271.677 318.455,281.677 319.5,291.5C 319.5,296.5 319.5,301.5 319.5,306.5C 318.473,316.658 317.807,326.991 317.5,337.5C 317.5,339.167 317.5,340.833 317.5,342.5C 316.105,346.591 315.438,350.924 315.5,355.5C 315.5,356.167 315.5,356.833 315.5,357.5C 314.215,360.589 313.549,363.922 313.5,367.5C 313.5,368.167 313.5,368.833 313.5,369.5C 311.989,372.544 311.322,375.878 311.5,379.5C 311.5,379.833 311.5,380.167 311.5,380.5C 310.232,382.905 309.565,385.572 309.5,388.5C 308.766,389.708 308.433,391.041 308.5,392.5C 306.96,394.838 306.294,397.505 306.5,400.5C 306.5,400.833 306.5,401.167 306.5,401.5C 305.076,403.515 304.41,405.848 304.5,408.5C 304.5,408.833 304.5,409.167 304.5,409.5C 303.076,411.515 302.41,413.848 302.5,416.5C 302.5,416.833 302.5,417.167 302.5,417.5C 301.777,419.213 300.443,420.213 298.5,420.5C 272.918,413.57 246.918,409.236 220.5,407.5C 196.802,404.882 173.135,404.882 149.5,407.5C 127.361,408.58 105.695,411.914 84.5,417.5C 70.065,420.091 56.065,424.091 42.5,429.5C 19.5873,349.489 22.754,270.489 52,192.5C 56.2529,181.664 61.2529,171.331 67,161.5C 70.4179,163.062 73.9179,164.396 77.5,165.5C 76.6583,185.079 78.325,204.412 82.5,223.5C 82.2153,226.829 82.8819,229.829 84.5,232.5C 84.5,233.167 84.5,233.833 84.5,234.5C 84.2938,237.495 84.9605,240.162 86.5,242.5C 86.5,242.833 86.5,243.167 86.5,243.5C 86.6633,245.857 86.4966,248.19 86,250.5C 83.952,251.098 82.7853,252.431 82.5,254.5C 83.4017,259.791 83.735,265.124 83.5,270.5C 82.8418,271.793 82.5085,273.293 82.5,275C 82.3049,277.352 82.9716,279.352 84.5,281C 95.3916,280.55 106.225,280.383 117,280.5C 117.667,270.5 117.667,260.5 117,250.5C 114.23,249.675 111.563,249.341 109,249.5C 106.66,228.061 105.16,206.561 104.5,185C 104.357,179.995 104.857,175.161 106,170.5C 115.322,172.724 124.822,173.891 134.5,174C 157.833,174.667 181.167,174.667 204.5,174C 219.214,172.989 233.714,170.822 248,167.5C 248.383,168.056 248.883,168.389 249.5,168.5C 250.106,181.166 250.773,193.832 251.5,206.5C 250.682,220.162 250.015,233.829 249.5,247.5C 246.129,248.973 242.629,250.307 239,251.5C 238.175,261.342 238.342,271.009 239.5,280.5C 239.414,281.496 239.748,282.329 240.5,283C 243.167,283.167 245.833,283.333 248.5,283.5C 257.582,282.669 266.582,282.336 275.5,282.5C 275.833,277 276.167,271.5 276.5,266C 276.495,260.124 275.829,254.624 274.5,249.5C 273.791,248.596 272.791,248.263 271.5,248.5C 279.675,220.008 282.841,191.008 281,161.5C 283.84,159.374 287.006,157.707 290.5,156.5C 291.735,157.34 292.735,158.34 293.5,159.5 Z M 267.5,173.5 C 267.5,191.167 267.5,208.833 267.5,226.5C 266.383,231.973 265.717,237.64 265.5,243.5C 265.5,244.5 265.5,245.5 265.5,246.5C 264.635,248.677 262.968,249.677 260.5,249.5C 256.455,249.41 255.622,247.743 258,244.5C 261.108,222.597 262.108,200.597 261,178.5C 260.73,174.627 260.23,170.794 259.5,167C 259.645,166.228 259.978,165.561 260.5,165C 262.167,164.333 263.833,164.333 265.5,165C 266.128,167.939 266.795,170.772 267.5,173.5 Z M 95.5,209.5 C 95.5,209.833 95.5,210.167 95.5,210.5C 95.1561,217.082 95.8228,223.416 97.5,229.5C 97.5,229.833 97.5,230.167 97.5,230.5C 97.1164,234.489 97.783,238.155 99.5,241.5C 99.5,241.833 99.5,242.167 99.5,242.5C 99.5,245.167 99.5,247.833 99.5,250.5C 97.8333,250.5 96.1667,250.5 94.5,250.5C 90.8941,224.326 89.7274,197.993 91,171.5C 91.2492,170.376 91.7492,169.376 92.5,168.5C 93.1095,182.351 94.1095,196.018 95.5,209.5 Z"/></g>
<g><path style="opacity:0.635" fill="#bababa" d="M 164.5,9.5 C 163.243,12.4274 161.243,14.7607 158.5,16.5C 159.757,13.5726 161.757,11.2393 164.5,9.5 Z"/></g>
<g><path style="opacity:0.247" fill="#c8c8c8" d="M 158.5,16.5 C 157.92,18.7488 156.587,20.4154 154.5,21.5C 155.08,19.2512 156.413,17.5846 158.5,16.5 Z"/></g>
<g><path style="opacity:0.449" fill="#ececec" d="M 187.5,28.5 C 181.803,26.2905 176.137,26.6238 170.5,29.5C 163.305,36.2177 157.305,43.8843 152.5,52.5C 168.82,53.4994 185.153,53.8328 201.5,53.5C 201.5,52.5 201.5,51.5 201.5,50.5C 202.434,51.5676 202.768,52.901 202.5,54.5C 185.497,54.6666 168.497,54.4999 151.5,54C 150.692,53.6924 150.025,53.1924 149.5,52.5C 154.677,42.9879 161.344,34.6546 169.5,27.5C 174.565,24.2003 179.899,23.7003 185.5,26C 186.381,26.7083 187.047,27.5416 187.5,28.5 Z"/></g>
<g><path style="opacity:0.784" fill="#8a8a8a" d="M 152.5,25.5 C 152.262,27.4044 151.262,28.7377 149.5,29.5C 149.738,27.5956 150.738,26.2623 152.5,25.5 Z"/></g>
<g><path style="opacity:0.637" fill="#d6d6d6" d="M 187.5,28.5 C 189.5,28.5 190.5,29.5 190.5,31.5C 189.167,30.8333 188.167,29.8333 187.5,28.5 Z"/></g>
<g><path style="opacity:0.357" fill="#f7f7f7" d="M 191.5,32.5 C 192.906,32.9731 193.573,33.9731 193.5,35.5C 192.094,35.0269 191.427,34.0269 191.5,32.5 Z"/></g>
<g><path style="opacity:0.149" fill="#e1e1e1" d="M 149.5,29.5 C 148.921,32.3311 147.588,34.6644 145.5,36.5C 146.079,33.6689 147.412,31.3356 149.5,29.5 Z"/></g>
<g><path style="opacity:0.094" fill="#e7e7e7" d="M 193.5,35.5 C 194.906,35.9731 195.573,36.9731 195.5,38.5C 194.094,38.0269 193.427,37.0269 193.5,35.5 Z"/></g>
<g><path style="opacity:0.283" fill="#f0f0f0" d="M 191.5,5.5 C 194.394,6.88229 196.894,8.88229 199,11.5C 206.918,24.5998 212.751,38.5998 216.5,53.5C 215.414,53.38 214.747,52.7133 214.5,51.5C 210.513,34.1919 202.846,18.8586 191.5,5.5 Z"/></g>
<g><path style="opacity:0.369" fill="#d5d5d5" d="M 145.5,36.5 C 145.245,38.9674 144.245,40.9674 142.5,42.5C 142.755,40.0326 143.755,38.0326 145.5,36.5 Z"/></g>
<g><path style="opacity:0.463" fill="#c8c8c8" d="M 142.5,42.5 C 142.771,44.3797 142.104,45.713 140.5,46.5C 140.66,44.847 141.326,43.5137 142.5,42.5 Z"/></g>
<g><path style="opacity:0.455" fill="#bababa" d="M 138.5,51.5 C 138.5,52.5 138.5,53.5 138.5,54.5C 107.5,54.5 76.5,54.5 45.5,54.5C 75.6639,53.6676 105.997,53.1676 136.5,53C 137.044,52.2828 137.711,51.7828 138.5,51.5 Z"/></g>
<g><path style="opacity:0.892" fill="#505050" d="M 326.5,54.5 C 326.5,54.8333 326.5,55.1667 326.5,55.5C 300.661,55.8311 274.995,55.4978 249.5,54.5C 275.47,54.3676 301.137,54.3676 326.5,54.5 Z"/></g>
<g><path style="opacity:0.352" fill="#fefffe" d="M 326.5,55.5 C 326.5,55.1667 326.5,54.8333 326.5,54.5C 327.833,54.5 328.5,55.1667 328.5,56.5C 327.833,56.1667 327.167,55.8333 326.5,55.5 Z"/></g>
<g><path style="opacity:0.665" fill="#f5f5f5" d="M 95.5,73.5 C 96.8333,69.1667 98.1667,64.8333 99.5,60.5C 82.4526,60.181 65.4526,60.5143 48.5,61.5C 30.4468,86.4156 25.7801,113.749 34.5,143.5C 33.2502,143.423 32.4169,142.756 32,141.5C 24.012,111.373 29.1786,83.8733 47.5,59C 65.5,58.3333 83.5,58.3333 101.5,59C 100.166,63.5135 98.6662,68.0135 97,72.5C 96.6174,73.056 96.1174,73.3893 95.5,73.5 Z"/></g>
<g><path style="opacity:0.513" fill="#f6f6f6" d="M 223.5,62.5 C 222.711,62.2172 222.044,61.7172 221.5,61C 188.168,60.5 154.835,60.3333 121.5,60.5C 114.142,87.6924 109.475,115.359 107.5,143.5C 106.223,142.306 105.556,140.64 105.5,138.5C 108.026,111.677 113.026,85.3436 120.5,59.5C 153.646,58.8707 186.646,58.5374 219.5,58.5C 222.175,58.5307 223.509,59.8641 223.5,62.5 Z"/></g>
<g><path style="opacity:0.579" fill="#f4f4f4" d="M 239.5,60.5 C 236.5,60.5 233.5,60.5 230.5,60.5C 230.5,61.5 230.5,62.5 230.5,63.5C 229.521,62.2347 228.521,60.9014 227.5,59.5C 227.833,59.1667 228.167,58.8333 228.5,58.5C 230.492,59.0206 232.659,59.0206 235,58.5C 236.986,58.5687 238.486,59.2353 239.5,60.5 Z"/></g>
<g><path style="opacity:0.726" fill="#f4f4f4" d="M 315.5,61.5 C 293.202,60.1883 270.869,60.1883 248.5,61.5C 252.797,67.7494 256.13,74.4161 258.5,81.5C 254.234,73.8123 249.567,66.3123 244.5,59C 267.833,58.3333 291.167,58.3333 314.5,59C 315.252,59.6708 315.586,60.5041 315.5,61.5 Z"/></g>
<g><path style="opacity:0.278" fill="#fdfdfd" d="M 315.5,61.5 C 316.5,61.8333 317.167,62.5 317.5,63.5C 316.167,63.5 315.5,62.8333 315.5,61.5 Z"/></g>
<g><path style="opacity:0.392" fill="#d7d7d7" d="M 239.5,60.5 C 241.104,61.287 241.771,62.6203 241.5,64.5C 240.326,63.4863 239.66,62.153 239.5,60.5 Z"/></g>
<g><path style="opacity:0.554" fill="#f8f8f8" d="M 114.5,61.5 C 112.516,60.3058 110.516,60.3058 108.5,61.5C 101.305,86.7057 96.3054,112.372 93.5,138.5C 93.5561,140.64 94.2227,142.306 95.5,143.5C 93.9106,144.621 92.2439,144.454 90.5,143C 93.7727,114.489 99.1061,86.656 106.5,59.5C 109.086,58.52 111.753,58.1866 114.5,58.5C 114.5,59.5 114.5,60.5 114.5,61.5 Z"/></g>
<g><path style="opacity:0.055" fill="#ececec" d="M 114.5,62.5 C 114.405,64.7857 113.738,66.7857 112.5,68.5C 112.259,66.1016 112.926,64.1016 114.5,62.5 Z"/></g>
<g><path style="opacity:0.475" fill="#cdcdcd" d="M 38.5,58.5 C 34.0869,63.21 29.0869,67.21 23.5,70.5C 23.5106,68.9826 24.1772,67.8159 25.5,67C 29.7336,63.9178 34.0669,61.0845 38.5,58.5 Z"/></g>
<g><path style="opacity:0.624" fill="#bdbdbd" d="M 241.5,64.5 C 243.074,66.1016 243.741,68.1016 243.5,70.5C 242.262,68.7857 241.595,66.7857 241.5,64.5 Z"/></g>
<g><path style="opacity:0.318" fill="#eaeaea" d="M 23.5,70.5 C 23.1667,71.5 22.5,72.1667 21.5,72.5C 21.5,71.1667 22.1667,70.5 23.5,70.5 Z"/></g>
<g><path style="opacity:0.156" fill="#f8f8f8" d="M 317.5,63.5 C 321.662,67.0013 324.662,71.3346 326.5,76.5C 323.117,72.4474 320.117,68.1141 317.5,63.5 Z"/></g>
<g><path style="opacity:0.561" fill="#cfcfcf" d="M 21.5,72.5 C 20.5,74.1667 19.1667,75.5 17.5,76.5C 17.8333,74.1667 19.1667,72.8333 21.5,72.5 Z"/></g>
<g><path style="opacity:0.112" fill="#fbfbfb" d="M 245.5,76.5 C 246.931,77.7804 247.598,79.4471 247.5,81.5C 246.069,80.2196 245.402,78.5529 245.5,76.5 Z"/></g>
<g><path style="opacity:0.202" fill="#fdfdfd" d="M 326.5,76.5 C 327.674,77.5137 328.34,78.847 328.5,80.5C 326.896,79.713 326.229,78.3797 326.5,76.5 Z"/></g>
<g><path style="opacity:0.961" fill="#777777" d="M 95.5,74.5 C 95.8799,76.698 95.2132,78.3646 93.5,79.5C 93.4021,77.4471 94.0687,75.7804 95.5,74.5 Z"/></g>
<g><path style="opacity:0.153" fill="#e4e4e4" d="M 110.5,74.5 C 110.405,76.7857 109.738,78.7857 108.5,80.5C 108.259,78.1016 108.926,76.1016 110.5,74.5 Z"/></g>
<g><path style="opacity:0.439" fill="#d6d6d6" d="M 17.5,76.5 C 17.2624,78.4044 16.2624,79.7377 14.5,80.5C 14.7376,78.5956 15.7376,77.2623 17.5,76.5 Z"/></g>
<g><path style="opacity:0.314" fill="#c2c2c2" d="M 93.5,80.5 C 93.3404,82.153 92.6737,83.4863 91.5,84.5C 91.2291,82.6203 91.8958,81.287 93.5,80.5 Z"/></g>
<g><path style="opacity:0.318" fill="#eaeaea" d="M 328.5,80.5 C 329.931,81.7804 330.598,83.4471 330.5,85.5C 329.069,84.2196 328.402,82.5529 328.5,80.5 Z"/></g>
<g><path style="opacity:0.259" fill="#d1d1d1" d="M 108.5,82.5 C 108.598,84.5529 107.931,86.2196 106.5,87.5C 106.402,85.4471 107.069,83.7804 108.5,82.5 Z"/></g>
<g><path style="opacity:0.639" fill="#b2b2b2" d="M 230.5,82.5 C 231.931,83.7804 232.598,85.4471 232.5,87.5C 231.069,86.2196 230.402,84.5529 230.5,82.5 Z"/></g>
<g><path style="opacity:0.386" fill="#f3f3f3" d="M 230.5,63.5 C 235.406,72.0442 239.573,81.0442 243,90.5C 249.243,107.727 253.743,125.394 256.5,143.5C 255.883,143.389 255.383,143.056 255,142.5C 253.255,133.106 251.255,123.772 249,114.5C 243.376,97.2621 237.209,80.2621 230.5,63.5 Z"/></g>
<g><path style="opacity:0.529" fill="#cbcbcb" d="M 330.5,85.5 C 332.223,87.78 332.889,90.4467 332.5,93.5C 331.469,91.0392 330.802,88.3725 330.5,85.5 Z"/></g>
<g><path style="opacity:0.061" fill="#e5e5e5" d="M 90.5,87.5 C 90.405,89.7857 89.7384,91.7857 88.5,93.5C 88.2594,91.1016 88.9261,89.1016 90.5,87.5 Z"/></g>
<g><path style="opacity:0.135" fill="#cdcdcd" d="M 250.5,88.5 C 251.738,90.2143 252.405,92.2143 252.5,94.5C 250.926,92.8984 250.259,90.8984 250.5,88.5 Z"/></g>
<g><path style="opacity:0.537" fill="#c8c8c8" d="M 232.5,88.5 C 234.074,90.1016 234.741,92.1016 234.5,94.5C 233.262,92.7857 232.595,90.7857 232.5,88.5 Z"/></g>
<g><path style="opacity:0.38" fill="#bebebe" d="M 10.5,88.5 C 10.5905,91.1522 9.92381,93.4855 8.5,95.5C 8.17057,92.7718 8.83724,90.4385 10.5,88.5 Z"/></g>
<g><path style="opacity:0.651" fill="#cdcdcd" d="M 88.5,93.5 C 88.5905,96.1522 87.9238,98.4855 86.5,100.5C 86.4095,97.8478 87.0762,95.5145 88.5,93.5 Z"/></g>
<g><path style="opacity:0.102" fill="#dadada" d="M 252.5,95.5 C 253.738,97.2143 254.405,99.2143 254.5,101.5C 252.926,99.8984 252.259,97.8984 252.5,95.5 Z"/></g>
<g><path style="opacity:0.518" fill="#cdcdcd" d="M 234.5,95.5 C 236.074,97.1016 236.741,99.1016 236.5,101.5C 235.262,99.7857 234.595,97.7857 234.5,95.5 Z"/></g>
<g><path style="opacity:0.455" fill="#d4d4d4" d="M 103.5,98.5 C 103.932,101.877 103.265,104.877 101.5,107.5C 101.858,104.311 102.525,101.311 103.5,98.5 Z"/></g>
<g><path style="opacity:0.722" fill="#c0c0c0" d="M 86.5,101.5 C 86.5905,104.152 85.9238,106.485 84.5,108.5C 84.4095,105.848 85.0762,103.515 86.5,101.5 Z"/></g>
<g><path style="opacity:0.08" fill="#e0e0e0" d="M 254.5,102.5 C 255.924,104.515 256.59,106.848 256.5,109.5C 254.837,107.562 254.171,105.228 254.5,102.5 Z"/></g>
<g><path style="opacity:0.592" fill="#d6d6d6" d="M 332.5,103.5 C 332.59,106.152 331.924,108.485 330.5,110.5C 330.41,107.848 331.076,105.515 332.5,103.5 Z"/></g>
<g><path style="opacity:0.596" fill="#d4d4d4" d="M 101.5,108.5 C 101.324,111.727 100.657,114.727 99.5,117.5C 99.2153,114.171 99.8819,111.171 101.5,108.5 Z"/></g>
<g><path style="opacity:0.078" fill="#e3e3e3" d="M 256.5,109.5 C 257.768,111.905 258.435,114.572 258.5,117.5C 256.96,115.162 256.294,112.495 256.5,109.5 Z"/></g>
<g><path style="opacity:0.069" fill="#e4e4e4" d="M 330.5,111.5 C 330.598,113.553 329.931,115.22 328.5,116.5C 328.402,114.447 329.069,112.78 330.5,111.5 Z"/></g>
<g><path style="opacity:0.769" fill="#9d9d9d" d="M 239.5,111.5 C 240.924,113.515 241.59,115.848 241.5,118.5C 240.076,116.485 239.41,114.152 239.5,111.5 Z"/></g>
<g><path style="opacity:0.419" fill="#f6f6f6" d="M 258.5,81.5 C 260.892,84.5978 263.058,87.9311 265,91.5C 271.896,108.283 276.73,125.616 279.5,143.5C 278.351,143.209 277.684,142.376 277.5,141C 273.865,120.264 267.532,100.431 258.5,81.5 Z"/></g>
<g><path style="opacity:0.353" fill="#c5c5c5" d="M 84.5,109.5 C 84.5797,112.781 83.913,115.781 82.5,118.5C 82.4203,115.219 83.087,112.219 84.5,109.5 Z"/></g>
<g><path style="opacity:0.039" fill="#e3e3e3" d="M 258.5,118.5 C 260.04,120.838 260.706,123.505 260.5,126.5C 259.232,124.095 258.565,121.428 258.5,118.5 Z"/></g>
<g><path style="opacity:0.886" fill="#a0a0a0" d="M 328.5,116.5 C 328.88,118.698 328.213,120.365 326.5,121.5C 326.402,119.447 327.069,117.78 328.5,116.5 Z"/></g>
<g><path style="opacity:0.349" fill="#d0d0d0" d="M 326.5,121.5 C 325.921,124.331 324.588,126.664 322.5,128.5C 322.998,125.674 324.331,123.34 326.5,121.5 Z"/></g>
<g><path style="opacity:0.267" fill="#fbfbfb" d="M 12.5,123.5 C 13.6737,124.514 14.3404,125.847 14.5,127.5C 12.8958,126.713 12.2291,125.38 12.5,123.5 Z"/></g>
<g><path style="opacity:0.384" fill="#bebebe" d="M 82.5,120.5 C 82.4512,124.078 81.7846,127.411 80.5,130.5C 80.1588,126.84 80.8255,123.507 82.5,120.5 Z"/></g>
<g><path style="opacity:0.19" fill="#d4d4d4" d="M 99.5,118.5 C 99.6558,122.764 98.9891,126.764 97.5,130.5C 97.3442,126.236 98.0109,122.236 99.5,118.5 Z"/></g>
<g><path style="opacity:0.153" fill="#d1d1d1" d="M 241.5,120.5 C 242.768,122.905 243.435,125.572 243.5,128.5C 241.777,126.22 241.111,123.553 241.5,120.5 Z"/></g>
<g><path style="opacity:0.507" fill="#f5f5f5" d="M 328.5,56.5 C 345.201,71.9241 351.701,90.9241 348,113.5C 340.917,129.584 329.417,141.417 313.5,149C 309.244,150.807 304.911,152.307 300.5,153.5C 301.833,156.833 303.167,160.167 304.5,163.5C 302.355,160.567 300.188,157.567 298,154.5C 297.333,153.833 297.333,153.167 298,152.5C 302.074,150.808 306.24,149.308 310.5,148C 352.976,125.204 358.976,94.7038 328.5,56.5 Z"/></g>
<g><path style="opacity:0.617" fill="#c3c3c3" d="M 243.5,129.5 C 245.217,132.845 245.884,136.511 245.5,140.5C 243.783,137.155 243.116,133.489 243.5,129.5 Z"/></g>
<g><path style="opacity:0.306" fill="#f8f8f8" d="M 14.5,127.5 C 19.0776,133.651 23.4109,139.985 27.5,146.5C 21.4238,141.344 17.0905,135.011 14.5,127.5 Z"/></g>
<g><path style="opacity:0.835" fill="#999999" d="M 322.5,128.5 C 319.954,133.719 316.287,138.052 311.5,141.5C 314.798,136.868 318.464,132.534 322.5,128.5 Z"/></g>
<g><path style="opacity:0.714" fill="#a7a7a7" d="M 97.5,132.5 C 97.665,135.85 97.4983,139.183 97,142.5C 96.6174,143.056 96.1174,143.389 95.5,143.5C 95.9309,139.663 96.5975,135.997 97.5,132.5 Z"/></g>
<g><path style="opacity:0.933" fill="#949494" d="M 245.5,140.5 C 246.124,140.917 246.457,141.584 246.5,142.5C 246.253,143.713 245.586,144.38 244.5,144.5C 245.234,143.292 245.567,141.959 245.5,140.5 Z"/></g>
<g><path style="opacity:0.545" fill="#efefef" d="M 27.5,146.5 C 37.2846,150.542 47.2846,154.208 57.5,157.5C 58.7747,160.96 57.7747,163.627 54.5,165.5C 55.2423,163.574 56.2423,161.741 57.5,160C 47.7083,156.796 38.0416,153.13 28.5,149C 27.7476,148.329 27.4142,147.496 27.5,146.5 Z"/></g>
<g><path style="opacity:0.056" fill="#dfdfdf" d="M 293.5,159.5 C 295.074,161.102 295.741,163.102 295.5,165.5C 293.926,163.898 293.259,161.898 293.5,159.5 Z"/></g>
<g><path style="opacity:0.457" fill="#f1f1f1" d="M 95.5,209.5 C 94.1095,196.018 93.1095,182.351 92.5,168.5C 91.7492,169.376 91.2492,170.376 91,171.5C 89.7274,197.993 90.8941,224.326 94.5,250.5C 93.8826,250.389 93.3826,250.056 93,249.5C 88.6504,221.641 87.4837,193.641 89.5,165.5C 91.3904,165.297 92.8904,165.963 94,167.5C 94.5001,181.503 95.0001,195.503 95.5,209.5 Z"/></g>
<g><path style="opacity:0.478" fill="#f1f1f1" d="M 304.5,163.5 C 306.943,166.052 308.61,169.052 309.5,172.5C 307.076,169.992 305.41,166.992 304.5,163.5 Z"/></g>
<g><path style="opacity:0.455" fill="#bdbdbd" d="M 54.5,165.5 C 54.573,167.027 53.9063,168.027 52.5,168.5C 52.427,166.973 53.0937,165.973 54.5,165.5 Z"/></g>
<g><path style="opacity:0.395" fill="#eeeeee" d="M 267.5,173.5 C 266.795,170.772 266.128,167.939 265.5,165C 263.833,164.333 262.167,164.333 260.5,165C 259.978,165.561 259.645,166.228 259.5,167C 260.23,170.794 260.73,174.627 261,178.5C 262.108,200.597 261.108,222.597 258,244.5C 255.622,247.743 256.455,249.41 260.5,249.5C 262.968,249.677 264.635,248.677 265.5,246.5C 265.625,249.893 263.958,251.226 260.5,250.5C 257.062,251.224 255.396,249.891 255.5,246.5C 259.805,219.026 260.472,191.526 257.5,164C 260.378,162.255 263.378,161.755 266.5,162.5C 267.426,166.094 267.759,169.76 267.5,173.5 Z"/></g>
<g><path style="opacity:0.506" fill="#b1b1b1" d="M 51.5,170.5 C 51.573,172.027 50.9063,173.027 49.5,173.5C 49.427,171.973 50.0937,170.973 51.5,170.5 Z"/></g>
<g><path style="opacity:0.282" fill="#d5d5d5" d="M 49.5,173.5 C 49.573,175.027 48.9063,176.027 47.5,176.5C 47.427,174.973 48.0937,173.973 49.5,173.5 Z"/></g>
<g><path style="opacity:0.544" fill="#f4f4f4" d="M 249.5,168.5 C 248.883,168.389 248.383,168.056 248,167.5C 233.714,170.822 219.214,172.989 204.5,174C 181.167,174.667 157.833,174.667 134.5,174C 124.822,173.891 115.322,172.724 106,170.5C 104.857,175.161 104.357,179.995 104.5,185C 105.16,206.561 106.66,228.061 109,249.5C 111.563,249.341 114.23,249.675 117,250.5C 117.667,260.5 117.667,270.5 117,280.5C 106.225,280.383 95.3916,280.55 84.5,281C 82.9716,279.352 82.3049,277.352 82.5,275C 82.5085,273.293 82.8418,271.793 83.5,270.5C 83.5,271.5 83.5,272.5 83.5,273.5C 83.1814,275.75 83.6814,277.75 85,279.5C 95.0682,278.558 105.068,278.225 115,278.5C 115.181,269.589 115.681,260.755 116.5,252C 115.892,251.13 115.059,250.63 114,250.5C 111.945,251.692 109.945,251.692 108,250.5C 104.024,223.323 102.524,195.989 103.5,168.5C 151.518,175.938 199.351,174.938 247,165.5C 248.749,165.748 249.582,166.748 249.5,168.5 Z"/></g>
<g><path style="opacity:0.506" fill="#dddddd" d="M 47.5,176.5 C 47.3404,178.153 46.6737,179.486 45.5,180.5C 45.2291,178.62 45.8958,177.287 47.5,176.5 Z"/></g>
<g><path style="opacity:0.427" fill="#c0c0c0" d="M 45.5,180.5 C 45.573,182.027 44.9063,183.027 43.5,183.5C 43.427,181.973 44.0937,180.973 45.5,180.5 Z"/></g>
<g><path style="opacity:0.529" fill="#d9d9d9" d="M 42.5,185.5 C 42.3404,187.153 41.6737,188.486 40.5,189.5C 40.2291,187.62 40.8958,186.287 42.5,185.5 Z"/></g>
<g><path style="opacity:0.102" fill="#d6d6d6" d="M 302.5,186.5 C 304.074,188.102 304.741,190.102 304.5,192.5C 302.926,190.898 302.259,188.898 302.5,186.5 Z"/></g>
<g><path style="opacity:0.588" fill="#d0d0d0" d="M 38.5,193.5 C 38.3404,195.153 37.6737,196.486 36.5,197.5C 36.2291,195.62 36.8958,194.287 38.5,193.5 Z"/></g>
<g><path style="opacity:0.589" fill="#f6f6f6" d="M 293.5,159.5 C 292.735,158.34 291.735,157.34 290.5,156.5C 287.006,157.707 283.84,159.374 281,161.5C 282.841,191.008 279.675,220.008 271.5,248.5C 272.791,248.263 273.791,248.596 274.5,249.5C 272.335,249.884 270.668,249.217 269.5,247.5C 278.03,218.066 281.363,188.066 279.5,157.5C 283.069,156.811 286.569,155.811 290,154.5C 292.54,155.207 293.707,156.873 293.5,159.5 Z"/></g>
<g><path style="opacity:0.072" fill="#dedede" d="M 304.5,193.5 C 306.163,195.438 306.829,197.772 306.5,200.5C 305.076,198.485 304.41,196.152 304.5,193.5 Z"/></g>
<g><path style="opacity:0.059" fill="#eeeeee" d="M 306.5,201.5 C 307.924,203.515 308.59,205.848 308.5,208.5C 307.076,206.485 306.41,204.152 306.5,201.5 Z"/></g>
<g><path style="opacity:0.408" fill="#d6d6d6" d="M 29.5,212.5 C 29.7709,214.38 29.1042,215.713 27.5,216.5C 27.6596,214.847 28.3263,213.514 29.5,212.5 Z"/></g>
<g><path style="opacity:0.268" fill="#d2d2d2" d="M 95.5,210.5 C 96.7472,216.63 97.4138,222.963 97.5,229.5C 95.8228,223.416 95.1561,217.082 95.5,210.5 Z"/></g>
<g><path style="opacity:0.925" fill="#959595" d="M 27.5,216.5 C 27.8799,218.698 27.2132,220.365 25.5,221.5C 25.4021,219.447 26.0687,217.78 27.5,216.5 Z"/></g>
<g><path style="opacity:0.157" fill="#dddddd" d="M 25.5,221.5 C 25.405,223.786 24.7384,225.786 23.5,227.5C 23.2594,225.102 23.9261,223.102 25.5,221.5 Z"/></g>
<g><path style="opacity:0.816" fill="#a0a0a0" d="M 311.5,221.5 C 313.118,224.171 313.785,227.171 313.5,230.5C 312.087,227.781 311.42,224.781 311.5,221.5 Z"/></g>
<g><path style="opacity:0.765" fill="#a4a4a4" d="M 82.5,223.5 C 83.913,226.219 84.5797,229.219 84.5,232.5C 82.8819,229.829 82.2153,226.829 82.5,223.5 Z"/></g>
<g><path style="opacity:0.632" fill="#b1b1b1" d="M 267.5,226.5 C 267.784,232.417 267.117,238.084 265.5,243.5C 265.717,237.64 266.383,231.973 267.5,226.5 Z"/></g>
<g><path style="opacity:0.302" fill="#b9b9b9" d="M 23.5,228.5 C 23.3404,230.153 22.6737,231.486 21.5,232.5C 21.2291,230.62 21.8958,229.287 23.5,228.5 Z"/></g>
<g><path style="opacity:0.093" fill="#e5e5e5" d="M 97.5,230.5 C 98.6874,233.946 99.3541,237.613 99.5,241.5C 97.783,238.155 97.1164,234.489 97.5,230.5 Z"/></g>
<g><path style="opacity:0.89" fill="#939393" d="M 21.5,232.5 C 21.7406,234.898 21.0739,236.898 19.5,238.5C 19.2594,236.102 19.9261,234.102 21.5,232.5 Z"/></g>
<g><path style="opacity:0.431" fill="#d1d1d1" d="M 313.5,232.5 C 315.082,235.876 315.749,239.542 315.5,243.5C 314.313,240.054 313.646,236.387 313.5,232.5 Z"/></g>
<g><path style="opacity:0.055" fill="#d6d6d6" d="M 84.5,234.5 C 86.0395,236.838 86.7062,239.505 86.5,242.5C 84.9605,240.162 84.2938,237.495 84.5,234.5 Z"/></g>
<g><path style="opacity:0.018" fill="#dfdfdf" d="M 18.5,240.5 C 18.5905,243.152 17.9238,245.485 16.5,247.5C 16.4095,244.848 17.0762,242.515 18.5,240.5 Z"/></g>
<g><path style="opacity:0.052" fill="#e1e1e1" d="M 99.5,242.5 C 100.657,245.273 101.324,248.273 101.5,251.5C 98.9407,251.802 96.6074,251.468 94.5,250.5C 96.1667,250.5 97.8333,250.5 99.5,250.5C 99.5,247.833 99.5,245.167 99.5,242.5 Z"/></g>
<g><path style="opacity:0.42" fill="#cfcfcf" d="M 16.5,248.5 C 16.7406,250.898 16.0739,252.898 14.5,254.5C 14.595,252.214 15.2616,250.214 16.5,248.5 Z"/></g>
<g><path style="opacity:0.355" fill="#f1f1f1" d="M 274.5,249.5 C 275.829,254.624 276.495,260.124 276.5,266C 276.167,271.5 275.833,277 275.5,282.5C 266.582,282.336 257.582,282.669 248.5,283.5C 245.833,283.333 243.167,283.167 240.5,283C 239.748,282.329 239.414,281.496 239.5,280.5C 250.838,280.667 262.172,280.5 273.5,280C 274.179,270.53 274.846,261.03 275.5,251.5C 275.137,250.817 274.804,250.15 274.5,249.5 Z"/></g>
<g><path style="opacity:0.663" fill="#a7a7a7" d="M 86.5,243.5 C 87.6341,245.966 87.8007,248.633 87,251.5C 85.5134,252.155 84.3467,253.155 83.5,254.5C 84.8106,260.962 84.8106,267.296 83.5,273.5C 83.5,272.5 83.5,271.5 83.5,270.5C 83.735,265.124 83.4017,259.791 82.5,254.5C 82.7853,252.431 83.952,251.098 86,250.5C 86.4966,248.19 86.6633,245.857 86.5,243.5 Z"/></g>
<g><path style="opacity:0.633" fill="#c2c2c2" d="M 315.5,245.5 C 317.031,250.25 317.698,255.25 317.5,260.5C 316.111,255.731 315.444,250.731 315.5,245.5 Z"/></g>
<g><path style="opacity:0.186" fill="#d0d0d0" d="M 14.5,255.5 C 14.5905,258.152 13.9238,260.485 12.5,262.5C 12.4095,259.848 13.0762,257.515 14.5,255.5 Z"/></g>
<g><path style="opacity:0.175" fill="#cdcdcd" d="M 249.5,247.5 C 249.5,248.5 249.5,249.5 249.5,250.5C 246.07,250.107 242.904,250.773 240,252.5C 239.5,261.827 239.334,271.161 239.5,280.5C 238.342,271.009 238.175,261.342 239,251.5C 242.629,250.307 246.129,248.973 249.5,247.5 Z"/></g>
<g><path style="opacity:0.286" fill="#cfcfcf" d="M 12.5,263.5 C 12.5905,266.152 11.9238,268.485 10.5,270.5C 10.1706,267.772 10.8372,265.438 12.5,263.5 Z"/></g>
<g><path style="opacity:0.546" fill="#c6c6c6" d="M 317.5,261.5 C 319.158,271.283 319.825,281.283 319.5,291.5C 318.455,281.677 317.788,271.677 317.5,261.5 Z"/></g>
<g><path style="opacity:0.353" fill="#bebebe" d="M 10.5,272.5 C 10.6558,276.764 9.98914,280.764 8.5,284.5C 8.3442,280.236 9.01086,276.236 10.5,272.5 Z"/></g>
<g><path style="opacity:0.597" fill="#f6f6f6" d="M 77.5,165.5 C 73.9179,164.396 70.4179,163.062 67,161.5C 61.2529,171.331 56.2529,181.664 52,192.5C 22.754,270.489 19.5873,349.489 42.5,429.5C 42.1667,429.5 41.8333,429.5 41.5,429.5C 16.308,344.741 20.808,261.408 55,179.5C 57.7663,172.801 60.933,166.301 64.5,160C 67.7492,160.596 71.0826,161.263 74.5,162C 76.4257,162.422 77.4257,163.589 77.5,165.5 Z"/></g>
<g><path style="opacity:0.544" fill="#c5c5c5" d="M 319.5,306.5 C 319.841,317.05 319.175,327.383 317.5,337.5C 317.807,326.991 318.473,316.658 319.5,306.5 Z"/></g>
<g><path style="opacity:0.178" fill="#dfdfdf" d="M 317.5,342.5 C 317.562,347.076 316.895,351.409 315.5,355.5C 315.438,350.924 316.105,346.591 317.5,342.5 Z"/></g>
<g><path style="opacity:0.776" fill="#a1a1a1" d="M 8.5,357.5 C 10.1745,360.507 10.8412,363.84 10.5,367.5C 9.21543,364.411 8.54877,361.078 8.5,357.5 Z"/></g>
<g><path style="opacity:0.247" fill="#cecece" d="M 315.5,357.5 C 315.841,361.16 315.175,364.493 313.5,367.5C 313.549,363.922 314.215,360.589 315.5,357.5 Z"/></g>
<g><path style="opacity:0.146" fill="#dcdcdc" d="M 10.5,368.5 C 11.7682,370.905 12.4349,373.572 12.5,376.5C 10.9605,374.162 10.2938,371.495 10.5,368.5 Z"/></g>
<g><path style="opacity:0.331" fill="#b8b8b8" d="M 313.5,369.5 C 313.451,373.078 312.785,376.411 311.5,379.5C 311.322,375.878 311.989,372.544 313.5,369.5 Z"/></g>
<g><path style="opacity:0.099" fill="#dddddd" d="M 12.5,377.5 C 13.9238,379.515 14.5905,381.848 14.5,384.5C 12.8372,382.562 12.1706,380.228 12.5,377.5 Z"/></g>
<g><path style="opacity:0.275" fill="#b2b2b2" d="M 311.5,380.5 C 311.706,383.495 311.04,386.162 309.5,388.5C 309.565,385.572 310.232,382.905 311.5,380.5 Z"/></g>
<g><path style="opacity:0.108" fill="#e6e6e6" d="M 14.5,385.5 C 15.9238,387.515 16.5905,389.848 16.5,392.5C 15.0762,390.485 14.4095,388.152 14.5,385.5 Z"/></g>
<g><path style="opacity:0.506" fill="#e2e2e2" d="M 16.5,392.5 C 18.0739,394.102 18.7406,396.102 18.5,398.5C 17.2616,396.786 16.595,394.786 16.5,392.5 Z"/></g>
<g><path style="opacity:0.549" fill="#cacaca" d="M 308.5,392.5 C 308.706,395.495 308.04,398.162 306.5,400.5C 306.294,397.505 306.96,394.838 308.5,392.5 Z"/></g>
<g><path style="opacity:0.612" fill="#cfcfcf" d="M 306.5,401.5 C 306.59,404.152 305.924,406.485 304.5,408.5C 304.41,405.848 305.076,403.515 306.5,401.5 Z"/></g>
<g><path style="opacity:0.088" fill="#e9e9e9" d="M 220.5,407.5 C 246.918,409.236 272.918,413.57 298.5,420.5C 300.443,420.213 301.777,419.213 302.5,417.5C 302.773,419.958 301.773,421.625 299.5,422.5C 273.467,415.22 247.134,410.22 220.5,407.5 Z"/></g>
<g><path style="opacity:0.112" fill="#efefef" d="M 149.5,407.5 C 128.476,409.836 107.476,413.17 86.5,417.5C 85.8333,417.5 85.1667,417.5 84.5,417.5C 105.695,411.914 127.361,408.58 149.5,407.5 Z"/></g>
<g><path style="opacity:0.157" fill="#d4d4d4" d="M 304.5,409.5 C 304.59,412.152 303.924,414.485 302.5,416.5C 302.41,413.848 303.076,411.515 304.5,409.5 Z"/></g>
<g><path style="opacity:0.447" fill="#f2f2f2" d="M 23.5,412.5 C 24.9313,413.78 25.5979,415.447 25.5,417.5C 24.0687,416.22 23.4021,414.553 23.5,412.5 Z"/></g>
<g><path style="opacity:0.393" fill="#f9f9f9" d="M 25.5,417.5 C 27.951,420.74 29.6176,424.407 30.5,428.5C 28.5486,426.52 27.0486,424.187 26,421.5C 25.51,420.207 25.3433,418.873 25.5,417.5 Z"/></g>
<g><path style="opacity:0.573" fill="#bababa" d="M 84.5,417.5 C 85.1667,417.5 85.8333,417.5 86.5,417.5C 71.8429,420.882 57.3429,425.215 43,430.5C 42.2352,430.43 41.7352,430.097 41.5,429.5C 41.8333,429.5 42.1667,429.5 42.5,429.5C 56.065,424.091 70.065,420.091 84.5,417.5 Z"/></g>
<g><path style="opacity:0.302" fill="#fefffe" d="M 30.5,428.5 C 31.6737,429.514 32.3404,430.847 32.5,432.5C 30.8958,431.713 30.2291,430.38 30.5,428.5 Z"/></g>
<g><path style="opacity:0.239" fill="#fdfdfd" d="M 32.5,432.5 C 33.6737,433.514 34.3404,434.847 34.5,436.5C 32.8958,435.713 32.2291,434.38 32.5,432.5 Z"/></g>
<g><path style="opacity:0.441" fill="#f6f6f6" d="M 309.5,172.5 C 359.011,257.363 360.845,343.363 315,430.5C 307.709,441.582 300.542,452.748 293.5,464C 262.073,480.756 228.739,490.923 193.5,494.5C 182.833,494.5 172.167,494.5 161.5,494.5C 118.215,489.016 78.2148,474.516 41.5,451C 39.154,447.781 37.4873,444.281 36.5,440.5C 38.3815,443.902 40.7148,447.069 43.5,450C 122.754,500.31 204.754,504.976 289.5,464C 357.274,371.278 363.941,274.111 309.5,172.5 Z"/></g>
</svg>
