<?xml version="1.0" standalone="no"?>
<!DOCTYPE svg PUBLIC "-//W3C//DTD SVG 20010904//EN"
 "http://www.w3.org/TR/2001/REC-SVG-20010904/DTD/svg10.dtd">
<svg version="1.0" xmlns="http://www.w3.org/2000/svg"
 width="371.000000pt" height="636.000000pt" viewBox="0 0 371.000000 636.000000"
 preserveAspectRatio="xMidYMid meet">

<g transform="translate(0.000000,636.000000) scale(0.100000,-0.100000)"
fill="#000000" stroke="none">
<path d="M1635 6218 c-94 -10 -270 -56 -370 -95 -187 -74 -363 -192 -520 -348
-250 -248 -382 -512 -444 -886 -15 -90 -13 -325 3 -432 12 -81 16 -90 49 -121
23 -21 37 -43 37 -58 0 -20 45 -224 107 -483 8 -33 18 -76 22 -95 56 -233 184
-648 281 -910 17 -47 46 -125 65 -175 41 -111 156 -386 200 -480 92 -195 131
-274 213 -430 49 -93 99 -186 110 -205 12 -19 36 -62 55 -95 29 -52 154 -246
277 -432 52 -78 67 -74 165 44 497 604 839 1188 1107 1898 146 385 275 894
338 1335 11 80 28 168 38 195 27 80 24 415 -6 551 -52 238 -135 424 -278 620
-56 77 -235 261 -289 297 -18 12 -52 36 -76 53 -61 44 -240 136 -324 167 -229
85 -495 115 -760 85z m434 -138 c159 -27 371 -106 511 -193 124 -77 268 -209
369 -337 79 -102 78 -100 141 -222 122 -238 167 -444 157 -725 -5 -129 -3
-168 8 -189 15 -30 14 -48 -11 -219 -31 -212 -101 -535 -174 -800 -48 -177
-185 -564 -255 -720 -7 -16 -25 -59 -40 -95 -15 -36 -77 -164 -137 -285 -202
-402 -443 -776 -746 -1155 -81 -102 -90 -110 -106 -104 -20 8 -259 386 -344
544 -19 36 -64 119 -100 185 -238 439 -500 1093 -661 1655 -129 452 -215 836
-241 1075 -38 367 34 687 221 970 223 337 582 564 979 620 113 16 316 13 429
-5z"/>
<path d="M1830 5823 c-151 -8 -325 -50 -420 -100 -230 -122 -345 -232 -462
-444 -31 -56 -69 -159 -94 -254 -27 -106 -25 -361 4 -472 30 -117 71 -206 144
-319 181 -278 502 -447 848 -446 388 1 737 218 912 567 80 159 114 321 105
507 -7 155 -32 251 -101 393 -124 254 -338 438 -608 524 -56 17 -262 55 -270
49 -2 -1 -28 -3 -58 -5z m160 -83 c297 -47 549 -230 698 -510 48 -89 96 -240
82 -254 -12 -12 -46 3 -115 49 -27 18 -72 45 -100 60 -27 16 -52 31 -55 35 -3
4 -21 15 -40 25 -19 10 -37 21 -40 25 -3 4 -23 17 -45 29 -63 34 -188 111
-206 127 -8 7 -29 16 -46 20 -26 5 -31 2 -43 -25 -7 -17 -17 -31 -22 -31 -21
0 -230 117 -248 140 -18 22 -81 60 -99 60 -13 0 -48 -20 -79 -45 -32 -25 -114
-92 -183 -148 -70 -56 -173 -138 -229 -182 -57 -44 -143 -113 -192 -153 -104
-85 -123 -88 -112 -15 59 408 392 740 799 796 61 8 212 7 275 -3z m-258 -349
c5 -14 150 -107 209 -135 147 -68 182 -74 206 -31 7 11 45 -9 183 -94 433
-266 458 -282 462 -305 3 -12 1 -60 -4 -107 -27 -272 -135 -470 -356 -656
-135 -113 -325 -190 -482 -195 l-75 -3 -3 133 c-1 72 1 132 6 132 5 0 33 -18
62 -40 29 -22 59 -40 66 -40 27 0 44 13 44 35 0 18 -19 37 -77 79 -43 31 -84
61 -90 66 -9 8 -13 45 -13 120 l0 110 25 -10 c13 -5 43 -19 65 -30 56 -28 94
-24 98 12 3 24 -4 30 -72 62 -42 20 -80 36 -85 36 -19 0 -31 39 -31 104 0 69
8 75 49 39 37 -33 94 -73 112 -78 26 -9 49 11 49 41 0 16 -11 31 -34 46 -18
13 -66 46 -106 73 -95 65 -115 76 -132 70 -18 -8 -173 -203 -189 -238 -11 -24
-11 -30 2 -38 31 -20 37 -15 121 85 31 37 48 27 48 -27 0 -67 -16 -107 -81
-196 -63 -88 -72 -123 -32 -129 15 -2 31 9 54 37 25 32 35 38 46 30 33 -28 8
-100 -66 -184 -38 -45 -75 -119 -68 -138 4 -10 17 -17 31 -17 18 0 32 13 56
50 46 72 61 56 59 -64 -1 -131 0 -129 -67 -121 -191 23 -357 99 -496 226 -175
160 -295 393 -313 611 -5 55 -3 72 8 78 8 5 185 144 394 309 209 165 388 301
397 301 9 0 18 -4 20 -9z"/>
<path d="M1795 2773 c-42 -11 -65 -44 -65 -94 0 -39 4 -51 26 -68 41 -33 89
-28 130 13 24 24 34 43 34 64 0 58 -64 101 -125 85z"/>
<path d="M1813 483 c-25 -5 -60 -48 -63 -78 -5 -41 1 -57 26 -80 31 -29 71
-32 114 -10 35 18 50 43 50 84 0 43 -9 60 -41 76 -28 15 -43 16 -86 8z"/>
</g>
</svg>
